{
.appVersion = "1352";
copyright = "Copyright 2014 The Corinthia Project Authors (https://github.com/googlefonts/Praise)";
customParameters = (
{
name = licenseURL;
value = "https://scripts.sil.org/OFL";
},
{
name = license;
value = "This Font Software is licensed under the SIL Open Font License, Version 1.1. This license is available with a FAQ at: https://scripts.sil.org/OFL";
},
{
name = vendorID;
value = GOOG;
},
{
name = "Disable Subroutines";
value = 1;
},
{
name = glyphOrder;
value = (
.notdef,
CR,
NULL,
space,
nbspace
);
},
{
name = fsType;
value = (
);
},
{
name = "Use Typo Metrics";
value = 1;
},
{
name = Axes;
value = (
{
Name = Weight;
Tag = wght;
}
);
}
);
date = "2021-08-31 12:47:07 +0000";
designer = "Robert E. Leuschke";
designerURL = www.typesetit.com;
disablesNiceNames = 1;
familyName = Praise;
featurePrefixes = (
{
code = "lookup lookup_0 {\012sub r by r.begin;\012sub r.ss01 by r.beginss01;\012sub r.ss03 by r.beginss01;\012sub r.ss05 by r.beginss05;\012} lookup_0;\012";
name = lookup_0;
},
{
automatic = 1;
code = "languagesystem DFLT dflt;\012\012languagesystem latn dflt;\012languagesystem latn AZE;\012languagesystem latn CRT;\012languagesystem latn KAZ;\012languagesystem latn TAT;\012languagesystem latn TRK;\012languagesystem latn ROM;\012languagesystem latn MOL;\012languagesystem latn CAT;\012";
name = Languagesystems;
}
);
features = (
{
automatic = 1;
code = "feature calt;\012feature clig;\012feature ornm;\012feature salt;\012feature smcp;\012feature ss01;\012feature ss02;\012feature ss03;\012feature ss04;\012feature ss05;\012feature ss06;\012feature swsh;\012feature titl;\012feature locl;\012feature sups;\012feature frac;\012feature ordn;\012feature c2sc;\012feature init;\012";
name = aalt;
},
{

glyphs = (
{
color = 3;
glyphname = .notdef;
lastChange = "2021-08-21 18:45:25 +0000";
layers = (
{
layerId = "C623C401-2266-4A98-B253-3D45160C29C7";
paths = (
{
closed = 1;
nodes = (
"469 0 LINE",
"478 8 LINE",
"478 621 LINE",
"469 630 LINE",
"48 630 LINE",
"40 620 LINE",
"40 9 LINE",
"48 0 LINE"
);
},
{
closed = 1;
nodes = (
"144 150 LINE",
"234 316 LINE",
"144 479 LINE",
"163 514 LINE",
"253 350 LINE",
"344 514 LINE",
"363 479 LINE",
"273 314 LINE",
"363 150 LINE",
"344 116 LINE",
"253 279 LINE",
"163 116 LINE"
);
},
{
closed = 1;
nodes = (
"57 613 LINE",
"461 613 LINE",
"461 16 LINE",
"57 16 LINE"
);
},
{
closed = 1;
nodes = (
"427 49 LINE",
"427 577 LINE",
"92 577 LINE",
"92 49 LINE"
);
}
);
width = 518;
}
);
note = .notdef;
},
{
color = 3;
glyphname = A;
lastChange = "2021-08-21 18:45:25 +0000";
layers = (
{
anchors = (
{
name = bottom;
position = "{256, 0}";
},
{
name = ogonek;
position = "{460, 10}";
},
{
name = top;
position = "{256, 633}";
}
);
hints = (
{
horizontal = 1;
place = "{-7, 46}";
type = Stem;
},
{
horizontal = 1;
place = "{-18, 21}";
target = up;
type = BottomGhost;
},
{
horizontal = 1;
place = "{-4, 21}";
target = up;
type = BottomGhost;
},
{
horizontal = 1;
place = "{232, 36}";
type = Stem;
},
{
horizontal = 1;
place = "{547, 24}";
type = Stem;
},
{
horizontal = 1;
place = "{556, 44}";
type = Stem;
},
{
place = "{44, 133}";
type = Stem;
},
{
place = "{377, 89}";
type = Stem;
},
{
place = "{425, 35}";
type = Stem;
},
{
place = "{446, 57}";
type = Stem;
}
);
layerId = "C623C401-2266-4A98-B253-3D45160C29C7";
paths = (
{
closed = 1;
nodes = (
"448 -12 OFFCURVE",
"473 -7 OFFCURVE",
"473 8 CURVE",
"469 11 OFFCURVE",
"457 18 OFFCURVE",
"457 38 CURVE SMOOTH",
"457 123 OFFCURVE",
"499 273 OFFCURVE",
"580 380 CURVE SMOOTH",
"583 385 OFFCURVE",
"584 389 OFFCURVE",
"584 394 CURVE SMOOTH",
"584 428 OFFCURVE",
"497 439 OFFCURVE",
"464 445 CURVE",
"370 250 OFFCURVE",
"291 45 OFFCURVE",
"207 43 CURVE SMOOTH",
"181 43 OFFCURVE",
"171 64 OFFCURVE",
"171 97 CURVE SMOOTH",
"171 146 OFFCURVE",
"194 219 OFFCURVE",
"223 281 CURVE SMOOTH",
"268 369 OFFCURVE",
"375 546 OFFCURVE",
"488 546 CURVE SMOOTH",
"519 546 OFFCURVE",
"565 537 OFFCURVE",
"569 509 CURVE SMOOTH",
"570 505 OFFCURVE",
"572 503 OFFCURVE",
"576 503 CURVE SMOOTH",
"585 503 OFFCURVE",
"598 513 OFFCURVE",
"598 533 CURVE SMOOTH",
"598 539 OFFCURVE",
"597 546 OFFCURVE",
"594 553 CURVE SMOOTH",
"580 588 OFFCURVE",
"547 607 OFFCURVE",
"489 607 CURVE SMOOTH",
"247 607 OFFCURVE",
"109 369 OFFCURVE",
"58 190 CURVE SMOOTH",
"49 160 OFFCURVE",
"45 132 OFFCURVE",
"45 107 CURVE SMOOTH",
"45 39 OFFCURVE",
"79 -5 OFFCURVE",
"157 -5 CURVE SMOOTH",
"239 -5 OFFCURVE",
"317 61 OFFCURVE",
"368 174 CURVE",
"363 154 OFFCURVE",
"353 114 OFFCURVE",
"353 77 CURVE SMOOTH",
"353 37 OFFCURVE",
"364 0 OFFCURVE",
"402 -9 CURVE SMOOTH",
"408 -11 OFFCURVE",
"417 -12 OFFCURVE",
"427 -12 CURVE SMOOTH"
);
}
);
width = 511;
}
);
note = A;
unicode = 0041;
},
{
color = 3;
glyphname = AE;
lastChange = "2021-08-21 18:45:25 +0000";
layers = (
{
hints = (
{
horizontal = 1;
place = "{-5, 21}";
target = up;
type = BottomGhost;
},
{
horizontal = 1;
place = "{612, -20}";
target = down;
type = TopGhost;
},
{
place = "{340, 95}";
type = Stem;
}
);
layerId = "C623C401-2266-4A98-B253-3D45160C29C7";
paths = (
{
closed = 1;
nodes = (
"128 -11 OFFCURVE",
"157 21 OFFCURVE",
"201 80 CURVE SMOOTH",
"213 96 OFFCURVE",
"254 156 OFFCURVE",
"303 229 CURVE",
"332 230 OFFCURVE",
"363 231 OFFCURVE",
"395 230 CURVE",
"380 193 OFFCURVE",
"362 153 OFFCURVE",
"342 106 CURVE SMOOTH",
"339 97 OFFCURVE",
"338 87 OFFCURVE",
"338 79 CURVE SMOOTH",
"338 32 OFFCURVE",
"374 -3 OFFCURVE",
"421 -3 CURVE SMOOTH",
"428 -3 OFFCURVE",
"435 -3 OFFCURVE",
"442 -1 CURVE SMOOTH",
"476 5 OFFCURVE",
"585 23 OFFCURVE",
"653 23 CURVE SMOOTH",
"682 23 OFFCURVE",
"704 20 OFFCURVE",
"708 11 CURVE SMOOTH",
"710 6 OFFCURVE",
"715 7 OFFCURVE",
"715 14 CURVE SMOOTH",
"715 23 OFFCURVE",
"720 39 OFFCURVE",
"720 49 CURVE SMOOTH",
"720 88 OFFCURVE",
"653 99 OFFCURVE",
"579 99 CURVE SMOOTH",
"533 99 OFFCURVE",
"484 95 OFFCURVE",
"448 90 CURVE",
"460 125 OFFCURVE",
"481 172 OFFCURVE",
"506 226 CURVE",
"525 227 LINE SMOOTH",
"563 229 OFFCURVE",
"600 231 OFFCURVE",
"632 231 CURVE SMOOTH",
"678 231 OFFCURVE",
"712 228 OFFCURVE",
"718 221 CURVE SMOOTH",
"726 213 OFFCURVE",
"727 238 OFFCURVE",
"727 242 CURVE SMOOTH",
"727 274 OFFCURVE",
"625 285 OFFCURVE",
"534 287 CURVE",
"538 294 LINE SMOOTH",
"568 358 OFFCURVE",
"601 420 OFFCURVE",
"630 471 CURVE SMOOTH",
"644 496 OFFCURVE",
"657 518 OFFCURVE",
"668 536 CURVE",
"688 537 OFFCURVE",
"707 538 OFFCURVE",
"725 538 CURVE SMOOTH",
"771 538 OFFCURVE",
"805 533 OFFCURVE",
"805 524 CURVE SMOOTH",
"805 526 LINE SMOOTH",
"804 534 OFFCURVE",
"807 547 OFFCURVE",
"807 556 CURVE SMOOTH",
"807 608 OFFCURVE",
"727 621 OFFCURVE",
"663 621 CURVE SMOOTH",
"648 621 OFFCURVE",
"634 620 OFFCURVE",
"622 619 CURVE SMOOTH",
"574 614 OFFCURVE",
"543 626 OFFCURVE",
"520 572 CURVE SMOOTH",
"516 560 LINE",
"513 556 LINE",
"467 508 OFFCURVE",
"361 394 OFFCURVE",
"256 285 CURVE",
"202 285 OFFCURVE",
"159 283 OFFCURVE",
"146 280 CURVE SMOOTH",
"105 271 OFFCURVE",
"88 263 OFFCURVE",
"74 238 CURVE SMOOTH",
"70 230 OFFCURVE",
"68 223 OFFCURVE",
"68 218 CURVE SMOOTH",
"68 211 OFFCURVE",
"71 207 OFFCURVE",
"75 208 CURVE SMOOTH",
"87 210 OFFCURVE",
"114 214 OFFCURVE",
"148 217 CURVE SMOOTH",
"163 219 OFFCURVE",
"179 221 OFFCURVE",
"195 222 CURVE",
"104 128 OFFCURVE",
"22 49 OFFCURVE",
"-8 32 CURVE SMOOTH",
"-12 30 OFFCURVE",
"-14 27 OFFCURVE",
"-14 24 CURVE SMOOTH",
"-14 13 OFFCURVE",
"21 1 OFFCURVE",
"60 -4 CURVE SMOOTH"
);
},
{
closed = 1;
nodes = (
"407 288 OFFCURVE",
"391 288 OFFCURVE",
"376 288 CURVE SMOOTH",
"338 288 LINE",
"376 345 OFFCURVE",
"461 448 OFFCURVE",
"512 514 CURVE",
"489 465 OFFCURVE",
"469 407 OFFCURVE",
"419 287 CURVE"
);
}
);
width = 729;
}
);
note = AE;
unicode = 00C6;
},
{
color = 3;
glyphname = B;
lastChange = "2021-08-21 18:45:25 +0000";
layers = (
{
anchors = (
{
name = bottom;
position = "{236, 0}";
},
{
name = top;
position = "{236, 633}";
}
);
hints = (
{
horizontal = 1;
place = "{-6, 36}";
type = Stem;
},
{
horizontal = 1;
place = "{572, 29}";
type = Stem;
},
{
place = "{18, 34}";
type = Stem;
},
{
place = "{81, 88}";
type = Stem;
},
{
place = "{273, 200}";
type = Stem;
},
{
place = "{449, 110}";
type = Stem;
}
);
layerId = "C623C401-2266-4A98-B253-3D45160C29C7";
paths = (
{
closed = 1;
nodes = (
"298 -10 OFFCURVE",
"339 -3 OFFCURVE",
"373 10 CURVE SMOOTH",
"443 37 OFFCURVE",
"474 92 OFFCURVE",
"474 147 CURVE SMOOTH",
"474 212 OFFCURVE",
"430 277 OFFCURVE",
"353 294 CURVE",
"465 299 OFFCURVE",
"546 391 OFFCURVE",
"546 475 CURVE SMOOTH",
"546 537 OFFCURVE",
"503 595 OFFCURVE",
"396 612 CURVE SMOOTH",
"380 615 OFFCURVE",
"360 616 OFFCURVE",
"337 616 CURVE SMOOTH",
"205 616 OFFCURVE",
"-5 566 OFFCURVE",
"5 449 CURVE SMOOTH",
"9 414 OFFCURVE",
"57 409 OFFCURVE",
"67 406 CURVE",
"75 458 OFFCURVE",
"129 518 OFFCURVE",
"204 553 CURVE SMOOTH",
"238 569 OFFCURVE",
"289 584 OFFCURVE",
"333 584 CURVE SMOOTH",
"385 584 OFFCURVE",
"429 563 OFFCURVE",
"429 499 CURVE SMOOTH",
"429 407 OFFCURVE",
"348 291 OFFCURVE",
"284 292 CURVE",
"277 291 OFFCURVE",
"273 287 OFFCURVE",
"273 281 CURVE SMOOTH",
"273 276 OFFCURVE",
"276 271 OFFCURVE",
"283 267 CURVE SMOOTH",
"325 242 OFFCURVE",
"345 171 OFFCURVE",
"345 123 CURVE",
"346 113 OFFCURVE",
"345 104 OFFCURVE",
"343 97 CURVE SMOOTH",
"332 49 OFFCURVE",
"284 23 OFFCURVE",
"233 23 CURVE SMOOTH",
"224 23 OFFCURVE",
"215 23 OFFCURVE",
"206 25 CURVE SMOOTH",
"182 29 OFFCURVE",
"174 41 OFFCURVE",
"174 56 CURVE SMOOTH",
"174 60 OFFCURVE",
"175 65 OFFCURVE",
"176 69 CURVE SMOOTH",
"188 123 OFFCURVE",
"224 220 OFFCURVE",
"268 313 CURVE SMOOTH",
"296 372 OFFCURVE",
"346 477 OFFCURVE",
"389 526 CURVE SMOOTH",
"395 533 OFFCURVE",
"378 538 OFFCURVE",
"332 538 CURVE SMOOTH",
"290 538 OFFCURVE",
"251 525 OFFCURVE",
"226 486 CURVE SMOOTH",
"172 398 OFFCURVE",
"80 194 OFFCURVE",
"80 91 CURVE SMOOTH",
"80 62 OFFCURVE",
"84 40 OFFCURVE",
"99 30 CURVE SMOOTH",
"142 3 OFFCURVE",
"200 -10 OFFCURVE",
"257 -10 CURVE SMOOTH"
);
}
);
width = 472;
}
);
note = B;
unicode = 0042;
},
{
color = 3;
glyphname = C;
lastChange = "2021-08-21 18:45:25 +0000";
layers = (
{
anchors = (
{
name = bottom;
position = "{217, 0}";
},
{
name = top;
position = "{217, 633}";
}
);
hints = (
{
horizontal = 1;
place = "{-7, 46}";
type = Stem;
},
{
horizontal = 1;
place = "{556, 44}";
type = Stem;
},
{
place = "{44, 133}";
type = Stem;
},
{
place = "{425, 35}";
type = Stem;
},
{
place = "{446, 57}";
type = Stem;
}
);
layerId = "C623C401-2266-4A98-B253-3D45160C29C7";
paths = (
{
closed = 1;
nodes = (
"182 -6 OFFCURVE",
"208 -3 OFFCURVE",
"238 5 CURVE SMOOTH",
"311 23 OFFCURVE",
"390 83 OFFCURVE",
"433 154 CURVE SMOOTH",
"453 188 OFFCURVE",
"460 208 OFFCURVE",
"460 221 CURVE SMOOTH",
"460 245 OFFCURVE",
"435 241 OFFCURVE",
"426 242 CURVE",
"386 165 OFFCURVE",
"302 40 OFFCURVE",
"227 40 CURVE SMOOTH",
"191 40 OFFCURVE",
"178 67 OFFCURVE",
"178 107 CURVE SMOOTH",
"178 159 OFFCURVE",
"201 232 OFFCURVE",
"227 292 CURVE SMOOTH",
"244 329 OFFCURVE",
"287 411 OFFCURVE",
"335 475 CURVE SMOOTH",
"378 534 OFFCURVE",
"409 556 OFFCURVE",
"428 556 CURVE SMOOTH",
"440 556 OFFCURVE",
"447 546 OFFCURVE",
"447 528 CURVE SMOOTH",
"447 511 OFFCURVE",
"441 488 OFFCURVE",
"429 463 CURVE SMOOTH",
"404 408 OFFCURVE",
"352 343 OFFCURVE",
"336 328 CURVE SMOOTH",
"330 322 OFFCURVE",
"324 316 OFFCURVE",
"324 312 CURVE SMOOTH",
"324 310 OFFCURVE",
"326 308 OFFCURVE",
"331 308 CURVE SMOOTH",
"334 308 OFFCURVE",
"337 308 OFFCURVE",
"341 309 CURVE SMOOTH",
"428 326 OFFCURVE",
"503 431 OFFCURVE",
"503 510 CURVE SMOOTH",
"503 560 OFFCURVE",
"473 600 OFFCURVE",
"396 600 CURVE SMOOTH",
"353 600 OFFCURVE",
"303 582 OFFCURVE",
"263 547 CURVE SMOOTH",
"175 472 OFFCURVE",
"86 297 OFFCURVE",
"57 194 CURVE SMOOTH",
"48 163 OFFCURVE",
"44 134 OFFCURVE",
"44 109 CURVE SMOOTH",
"44 39 OFFCURVE",
"79 -6 OFFCURVE",
"159 -6 CURVE SMOOTH"
);
}
);
width = 433;
}
);
note = C;
unicode = 0043;
},
{
color = 3;
glyphname = D;
lastChange = "2021-08-21 18:45:25 +0000";
layers = (
{
anchors = (
{
name = bottom;
position = "{244, 0}";
},
{
name = center;
position = "{244, 317}";
},
{
name = top;
position = "{244, 633}";
}
);
hints = (
{
horizontal = 1;
place = "{-8, 31}";
type = Stem;
},
{
horizontal = 1;
place = "{567, 34}";
type = Stem;
},
{
place = "{18, 34}";
type = Stem;
},
{
place = "{92, 84}";
type = Stem;
},
{
place = "{456, 117}";
type = Stem;
}
);
layerId = "C623C401-2266-4A98-B253-3D45160C29C7";
paths = (
{
closed = 1;
nodes = (
"293 -8 OFFCURVE",
"388 65 OFFCURVE",
"457 158 CURVE SMOOTH",
"512 232 OFFCURVE",
"573 352 OFFCURVE",
"573 463 CURVE SMOOTH",
"573 540 OFFCURVE",
"531 600 OFFCURVE",
"417 601 CURVE SMOOTH",
"355 601 OFFCURVE",
"292 588 OFFCURVE",
"239 566 CURVE SMOOTH",
"126 518 OFFCURVE",
"65 455 OFFCURVE",
"57 445 CURVE SMOOTH",
"28 408 OFFCURVE",
"19 387 OFFCURVE",
"19 375 CURVE SMOOTH",
"19 354 OFFCURVE",
"44 358 OFFCURVE",
"52 357 CURVE",
"94 424 OFFCURVE",
"195 499 OFFCURVE",
"283 540 CURVE SMOOTH",
"324 559 OFFCURVE",
"357 568 OFFCURVE",
"382 568 CURVE SMOOTH",
"436 568 OFFCURVE",
"456 528 OFFCURVE",
"456 472 CURVE SMOOTH",
"456 373 OFFCURVE",
"394 224 OFFCURVE",
"354 159 CURVE SMOOTH",
"315 94 OFFCURVE",
"249 24 OFFCURVE",
"190 24 CURVE SMOOTH",
"186 24 OFFCURVE",
"182 24 OFFCURVE",
"178 25 CURVE",
"169 70 OFFCURVE",
"232 223 OFFCURVE",
"269 303 CURVE SMOOTH",
"298 363 OFFCURVE",
"350 456 OFFCURVE",
"393 505 CURVE SMOOTH",
"399 512 OFFCURVE",
"372 517 OFFCURVE",
"326 517 CURVE SMOOTH",
"284 517 OFFCURVE",
"251 503 OFFCURVE",
"225 465 CURVE SMOOTH",
"175 389 OFFCURVE",
"91 207 OFFCURVE",
"76 83 CURVE SMOOTH",
"70 33 OFFCURVE",
"92 36 OFFCURVE",
"125 20 CURVE",
"137 16 LINE",
"159 0 OFFCURVE",
"184 -8 OFFCURVE",
"211 -8 CURVE SMOOTH"
);
}
);
width = 488;
}
);
note = D;
unicode = 0044;
},
{
color = 3;
glyphname = Eth;
lastChange = "2021-08-21 18:45:25 +0000";
layers = (
{
hints = (
{
horizontal = 1;
place = "{243, 45}";
type = Stem;
},
{
place = "{104, 270}";
type = Stem;
}
);
layerId = "C623C401-2266-4A98-B253-3D45160C29C7";
paths = (
{
closed = 1;
nodes = (
"143 -27 OFFCURVE",
"147 -25 OFFCURVE",
"147 -21 CURVE SMOOTH",
"147 -19 OFFCURVE",
"146 -17 OFFCURVE",
"144 -15 CURVE SMOOTH",
"141 -12 OFFCURVE",
"140 -6 OFFCURVE",
"140 2 CURVE SMOOTH",
"140 39 OFFCURVE",
"166 121 OFFCURVE",
"205 211 CURVE SMOOTH",
"210 222 LINE",
"269 222 LINE SMOOTH",
"275 222 OFFCURVE",
"300 257 OFFCURVE",
"300 273 CURVE SMOOTH",
"300 279 OFFCURVE",
"297 282 OFFCURVE",
"291 282 CURVE SMOOTH",
"240 282 LINE",
"286 362 OFFCURVE",
"344 440 OFFCURVE",
"377 482 CURVE SMOOTH",
"391 500 OFFCURVE",
"402 508 OFFCURVE",
"409 508 CURVE SMOOTH",
"420 508 OFFCURVE",
"424 492 OFFCURVE",
"423 466 CURVE SMOOTH",
"416 359 OFFCURVE",
"343 180 OFFCURVE",
"275 92 CURVE SMOOTH",
"257 69 OFFCURVE",
"229 40 OFFCURVE",
"200 40 CURVE SMOOTH",
"189 40 OFFCURVE",
"178 44 OFFCURVE",
"167 54 CURVE SMOOTH",
"165 56 OFFCURVE",
"160 52 OFFCURVE",
"160 44 CURVE SMOOTH",
"160 39 OFFCURVE",
"162 32 OFFCURVE",
"167 24 CURVE SMOOTH",
"176 11 OFFCURVE",
"210 0 OFFCURVE",
"225 0 CURVE SMOOTH",
"378 0 OFFCURVE",
"541 296 OFFCURVE",
"541 467 CURVE SMOOTH",
"541 509 OFFCURVE",
"531 544 OFFCURVE",
"508 564 CURVE SMOOTH",
"491 580 OFFCURVE",
"465 589 OFFCURVE",
"444 589 CURVE SMOOTH",
"433 589 OFFCURVE",
"423 586 OFFCURVE",
"417 580 CURVE SMOOTH",
"383 546 OFFCURVE",
"319 448 OFFCURVE",
"276 379 CURVE",
"304 442 OFFCURVE",
"331 499 OFFCURVE",
"350 537 CURVE SMOOTH",
"355 547 OFFCURVE",
"357 556 OFFCURVE",
"357 563 CURVE SMOOTH",
"357 587 OFFCURVE",
"337 599 OFFCURVE",
"320 604 CURVE SMOOTH",
"288 613 OFFCURVE",
"252 616 OFFCURVE",
"223 616 CURVE SMOOTH",
"206 616 OFFCURVE",
"198 610 OFFCURVE",
"198 605 CURVE SMOOTH",
"198 603 OFFCURVE",
"200 600 OFFCURVE",
"204 599 CURVE SMOOTH",
"216 594 OFFCURVE",
"221 582 OFFCURVE",
"221 566 CURVE SMOOTH",
"221 521 OFFCURVE",
"184 440 OFFCURVE",
"147 365 CURVE SMOOTH",
"135 341 OFFCURVE",
"122 312 OFFCURVE",
"109 282 CURVE",
"79 282 LINE SMOOTH",
"66 282 OFFCURVE",
"28 222 OFFCURVE",
"45 222 CURVE SMOOTH",
"85 222 LINE",
"63 163 OFFCURVE",
"47 103 OFFCURVE",
"47 59 CURVE SMOOTH",
"47 28 OFFCURVE",
"55 5 OFFCURVE",
"76 -5 CURVE SMOOTH",
"90 -12 OFFCURVE",
"124 -19 OFFCURVE",
"135 -24 CURVE SMOOTH"
);
}
);
width = 475;
}
);
note = Eth;
unicode = 00D0;
},
{
color = 3;
glyphname = E;
lastChange = "2021-08-21 18:45:25 +0000";
layers = (
{
anchors = (
{
name = bottom;
position = "{215, 0}";
},
{
name = ogonek;
position = "{387, 10}";
},
{
name = top;
position = "{215, 633}";
},
{
name = topleft;
position = "{20, 633}";
}
);
hints = (
{
horizontal = 1;
place = "{-2, 41}";
type = Stem;
},
{
horizontal = 1;
place = "{537, 68}";
type = Stem;
},
{
place = "{18, 110}";
type = Stem;
},
{
place = "{132, 112}";
type = Stem;
},
{
place = "{389, 27}";
type = Stem;
},
{
place = "{414, 38}";
type = Stem;
}
);
layerId = "C623C401-2266-4A98-B253-3D45160C29C7";
paths = (
{
closed = 1;
nodes = (
"224 -1 OFFCURVE",
"363 68 OFFCURVE",
"422 160 CURVE SMOOTH",
"445 196 OFFCURVE",
"453 218 OFFCURVE",
"453 231 CURVE SMOOTH",
"453 257 OFFCURVE",
"424 252 OFFCURVE",
"414 254 CURVE",
"369 172 OFFCURVE",
"252 40 OFFCURVE",
"177 40 CURVE SMOOTH",
"144 40 OFFCURVE",
"129 59 OFFCURVE",
"129 87 CURVE SMOOTH",
"129 151 OFFCURVE",
"207 262 OFFCURVE",
"330 307 CURVE SMOOTH",
"340 311 OFFCURVE",
"344 319 OFFCURVE",
"344 328 CURVE SMOOTH",
"344 350 OFFCURVE",
"317 382 OFFCURVE",
"293 383 CURVE",
"257 396 OFFCURVE",
"245 415 OFFCURVE",
"245 434 CURVE SMOOTH",
"245 468 OFFCURVE",
"283 505 OFFCURVE",
"307 517 CURVE SMOOTH",
"336 532 OFFCURVE",
"363 537 OFFCURVE",
"387 537 CURVE SMOOTH",
"394 537 OFFCURVE",
"400 537 OFFCURVE",
"406 536 CURVE",
"395 503 OFFCURVE",
"389 462 OFFCURVE",
"389 429 CURVE SMOOTH",
"389 394 OFFCURVE",
"397 368 OFFCURVE",
"417 375 CURVE",
"422 431 OFFCURVE",
"453 485 OFFCURVE",
"483 525 CURVE SMOOTH",
"498 544 OFFCURVE",
"517 564 OFFCURVE",
"545 586 CURVE SMOOTH",
"552 591 OFFCURVE",
"555 597 OFFCURVE",
"555 602 CURVE SMOOTH",
"555 617 OFFCURVE",
"535 629 OFFCURVE",
"509 629 CURVE SMOOTH",
"481 629 OFFCURVE",
"446 615 OFFCURVE",
"422 574 CURVE",
"404 590 OFFCURVE",
"374 606 OFFCURVE",
"329 606 CURVE SMOOTH",
"256 605 OFFCURVE",
"173 578 OFFCURVE",
"145 525 CURVE SMOOTH",
"136 509 OFFCURVE",
"132 494 OFFCURVE",
"132 480 CURVE SMOOTH",
"132 421 OFFCURVE",
"199 381 OFFCURVE",
"259 376 CURVE",
"96 326 OFFCURVE",
"19 208 OFFCURVE",
"19 115 CURVE SMOOTH",
"19 50 OFFCURVE",
"60 -1 OFFCURVE",
"137 -1 CURVE SMOOTH"
);
}
);
width = 430;
}
);
note = E;
unicode = 0045;
},
{
color = 3;
glyphname = F;
lastChange = "2021-08-21 18:45:25 +0000";
layers = (
{
hints = (
{
horizontal = 1;
place = "{-7, 21}";
target = up;
type = BottomGhost;
},
{
horizontal = 1;
place = "{232, 94}";
type = Stem;
},
{
horizontal = 1;
place = "{372, 127}";
type = Stem;
},
{
place = "{33, 70}";
type = Stem;
},
{
place = "{162, 91}";
type = Stem;
},
{
place = "{358, 156}";
type = Stem;
}
);
layerId = "C623C401-2266-4A98-B253-3D45160C29C7";
paths = (
{
closed = 1;
nodes = (
"264 -7 OFFCURVE",
"267 -6 OFFCURVE",
"267 -4 CURVE SMOOTH",
"267 -3 OFFCURVE",
"266 -2 OFFCURVE",
"265 0 CURVE",
"258 8 OFFCURVE",
"254 21 OFFCURVE",
"254 38 CURVE SMOOTH",
"254 83 OFFCURVE",
"279 154 OFFCURVE",
"322 236 CURVE",
"368 246 OFFCURVE",
"400 269 OFFCURVE",
"419 308 CURVE",
"417 306 OFFCURVE",
"409 301 OFFCURVE",
"375 300 CURVE",
"372 299 OFFCURVE",
"365 300 OFFCURVE",
"357 301 CURVE",
"396 367 OFFCURVE",
"444 438 OFFCURVE",
"499 510 CURVE SMOOTH",
"510 524 OFFCURVE",
"514 537 OFFCURVE",
"514 549 CURVE SMOOTH",
"514 556 OFFCURVE",
"513 562 OFFCURVE",
"511 568 CURVE SMOOTH",
"505 588 OFFCURVE",
"486 622 OFFCURVE",
"463 627 CURVE SMOOTH",
"390 641 OFFCURVE",
"198 499 OFFCURVE",
"127 499 CURVE SMOOTH",
"120 499 OFFCURVE",
"114 501 OFFCURVE",
"109 504 CURVE",
"107 506 OFFCURVE",
"103 505 OFFCURVE",
"103 509 CURVE SMOOTH",
"103 512 OFFCURVE",
"104 516 OFFCURVE",
"108 523 CURVE SMOOTH",
"110 527 OFFCURVE",
"105 529 OFFCURVE",
"98 529 CURVE SMOOTH",
"91 529 OFFCURVE",
"83 527 OFFCURVE",
"80 523 CURVE SMOOTH",
"53 484 OFFCURVE",
"33 438 OFFCURVE",
"33 408 CURVE SMOOTH",
"33 393 OFFCURVE",
"38 382 OFFCURVE",
"50 378 CURVE SMOOTH",
"60 374 OFFCURVE",
"70 373 OFFCURVE",
"80 373 CURVE SMOOTH",
"177 373 OFFCURVE",
"289 532 OFFCURVE",
"346 553 CURVE SMOOTH",
"355 556 OFFCURVE",
"359 553 OFFCURVE",
"359 547 CURVE SMOOTH",
"359 526 OFFCURVE",
"323 470 OFFCURVE",
"316 460 CURVE SMOOTH",
"288 416 OFFCURVE",
"263 367 OFFCURVE",
"241 319 CURVE",
"234 320 OFFCURVE",
"229 322 OFFCURVE",
"224 323 CURVE SMOOTH",
"212 326 OFFCURVE",
"202 327 OFFCURVE",
"193 327 CURVE SMOOTH",
"159 327 OFFCURVE",
"139 306 OFFCURVE",
"119 248 CURVE SMOOTH",
"116 239 OFFCURVE",
"165 236 OFFCURVE",
"206 234 CURVE",
"182 173 OFFCURVE",
"167 120 OFFCURVE",
"163 90 CURVE SMOOTH",
"162 82 OFFCURVE",
"161 74 OFFCURVE",
"161 66 CURVE SMOOTH",
"161 15 OFFCURVE",
"192 -7 OFFCURVE",
"257 -7 CURVE SMOOTH"
);
}
);
width = 387;
}
);
note = F;
unicode = 0046;
},
{
color = 3;
glyphname = G;
lastChange = "2021-08-21 18:45:25 +0000";
layers = (
{
anchors = (
{
name = bottom;
position = "{251, 0}";
},
{
name = top;
position = "{251, 633}";
}
);
hints = (
{
horizontal = 1;
place = "{-129, 35}";
type = Stem;
},
{
horizontal = 1;
place = "{0, 41}";
type = Stem;
},
{
horizontal = 1;
place = "{563, 42}";
type = Stem;
},
{
place = "{60, 112}";
type = Stem;
},
{
place = "{398, 19}";
type = Stem;
},
{
place = "{471, 62}";
type = Stem;
}
);
layerId = "C623C401-2266-4A98-B253-3D45160C29C7";
paths = (
{
closed = 1;
nodes = (
"270 -129 OFFCURVE",
"316 -99 OFFCURVE",
"356 -45 CURVE SMOOTH",
"378 -15 OFFCURVE",
"421 55 OFFCURVE",
"448 129 CURVE SMOOTH",
"491 243 OFFCURVE",
"531 301 OFFCURVE",
"544 307 CURVE",
"550 311 OFFCURVE",
"553 315 OFFCURVE",
"553 318 CURVE SMOOTH",
"553 321 OFFCURVE",
"550 323 OFFCURVE",
"545 323 CURVE SMOOTH",
"436 323 LINE SMOOTH",
"405 323 OFFCURVE",
"393 299 OFFCURVE",
"379 263 CURVE SMOOTH",
"347 189 LINE SMOOTH",
"312 111 OFFCURVE",
"266 42 OFFCURVE",
"219 42 CURVE SMOOTH",
"185 42 OFFCURVE",
"173 68 OFFCURVE",
"173 106 CURVE SMOOTH",
"173 156 OFFCURVE",
"195 226 OFFCURVE",
"220 284 CURVE SMOOTH",
"235 320 OFFCURVE",
"283 416 OFFCURVE",
"330 480 CURVE SMOOTH",
"375 540 OFFCURVE",
"414 564 OFFCURVE",
"439 564 CURVE SMOOTH",
"459 564 OFFCURVE",
"471 549 OFFCURVE",
"471 526 CURVE SMOOTH",
"471 483 OFFCURVE",
"426 405 OFFCURVE",
"402 373 CURVE SMOOTH",
"399 369 OFFCURVE",
"397 366 OFFCURVE",
"397 364 CURVE SMOOTH",
"397 361 OFFCURVE",
"400 359 OFFCURVE",
"406 359 CURVE SMOOTH",
"411 359 LINE SMOOTH",
"460 365 OFFCURVE",
"533 440 OFFCURVE",
"533 497 CURVE SMOOTH",
"533 552 OFFCURVE",
"490 605 OFFCURVE",
"392 605 CURVE SMOOTH",
"348 605 OFFCURVE",
"299 586 OFFCURVE",
"258 552 CURVE SMOOTH",
"219 518 OFFCURVE",
"155 436 OFFCURVE",
"110 332 CURVE SMOOTH",
"82 265 OFFCURVE",
"61 192 OFFCURVE",
"61 132 CURVE SMOOTH",
"61 56 OFFCURVE",
"93 0 OFFCURVE",
"181 0 CURVE SMOOTH",
"236 0 OFFCURVE",
"281 42 OFFCURVE",
"318 95 CURVE",
"307 62 OFFCURVE",
"297 36 OFFCURVE",
"292 24 CURVE SMOOTH",
"267 -35 OFFCURVE",
"253 -93 OFFCURVE",
"203 -93 CURVE SMOOTH",
"192 -93 OFFCURVE",
"179 -90 OFFCURVE",
"163 -83 CURVE SMOOTH",
"160 -82 OFFCURVE",
"157 -81 OFFCURVE",
"154 -81 CURVE SMOOTH",
"146 -81 OFFCURVE",
"142 -86 OFFCURVE",
"142 -92 CURVE SMOOTH",
"142 -96 OFFCURVE",
"144 -101 OFFCURVE",
"149 -105 CURVE SMOOTH",
"172 -124 OFFCURVE",
"198 -129 OFFCURVE",
"222 -129 CURVE SMOOTH"
);
}
);
width = 502;
}
);
note = G;
unicode = 0047;
},
{
color = 3;
glyphname = H;
lastChange = "2021-08-21 18:45:25 +0000";
layers = (
{
anchors = (
{
name = bottom;
position = "{250, 0}";
},
{
name = center;
position = "{250, 317}";
},
{
name = top;
position = "{250, 633}";
},
{
name = topleft;
position = "{20, 633}";
}
);
hints = (
{
horizontal = 1;
place = "{262, 76}";
type = Stem;
},
{
horizontal = 1;
place = "{597, -20}";
target = down;
type = TopGhost;
},
{
place = "{60, 94}";
type = Stem;
},
{
place = "{311, 93}";
type = Stem;
}
);
layerId = "C623C401-2266-4A98-B253-3D45160C29C7";
paths = (
{
closed = 1;
nodes = (
"158 -28 OFFCURVE",
"162 -25 OFFCURVE",
"162 -21 CURVE SMOOTH",
"162 -19 OFFCURVE",
"161 -17 OFFCURVE",
"160 -15 CURVE",
"156 -11 OFFCURVE",
"154 -3 OFFCURVE",
"154 7 CURVE SMOOTH",
"154 35 OFFCURVE",
"169 84 OFFCURVE",
"192 141 CURVE",
"236 110 OFFCURVE",
"287 61 OFFCURVE",
"321 30 CURVE",
"328 18 OFFCURVE",
"338 8 OFFCURVE",
"353 3 CURVE SMOOTH",
"357 1 OFFCURVE",
"358 1 OFFCURVE",
"359 2 CURVE",
"373 -2 OFFCURVE",
"391 -4 OFFCURVE",
"401 -9 CURVE SMOOTH",
"408 -13 OFFCURVE",
"412 -10 OFFCURVE",
"412 -6 CURVE SMOOTH",
"412 -4 OFFCURVE",
"411 -2 OFFCURVE",
"410 0 CURVE SMOOTH",
"406 5 OFFCURVE",
"404 12 OFFCURVE",
"404 22 CURVE SMOOTH",
"404 130 OFFCURVE",
"613 525 OFFCURVE",
"679 573 CURVE SMOOTH",
"683 576 OFFCURVE",
"684 578 OFFCURVE",
"684 580 CURVE SMOOTH",
"684 590 OFFCURVE",
"652 597 OFFCURVE",
"616 597 CURVE SMOOTH",
"547 597 OFFCURVE",
"517 570 OFFCURVE",
"479 507 CURVE SMOOTH",
"460 476 OFFCURVE",
"399 369 OFFCURVE",
"356 261 CURVE",
"247 263 LINE",
"315 402 OFFCURVE",
"401 545 OFFCURVE",
"440 573 CURVE SMOOTH",
"444 576 OFFCURVE",
"445 578 OFFCURVE",
"445 580 CURVE SMOOTH",
"445 591 OFFCURVE",
"413 598 OFFCURVE",
"375 598 CURVE SMOOTH",
"304 598 OFFCURVE",
"272 569 OFFCURVE",
"233 505 CURVE SMOOTH",
"214 474 OFFCURVE",
"157 372 OFFCURVE",
"114 267 CURVE",
"95 267 LINE",
"90 268 OFFCURVE",
"84 269 OFFCURVE",
"79 269 CURVE SMOOTH",
"75 269 OFFCURVE",
"72 268 OFFCURVE",
"68 268 CURVE SMOOTH",
"40 265 OFFCURVE",
"18 243 OFFCURVE",
"18 224 CURVE SMOOTH",
"18 213 OFFCURVE",
"25 204 OFFCURVE",
"43 200 CURVE SMOOTH",
"58 197 OFFCURVE",
"71 194 OFFCURVE",
"85 189 CURVE",
"70 144 OFFCURVE",
"61 101 OFFCURVE",
"61 66 CURVE SMOOTH",
"61 27 OFFCURVE",
"73 -1 OFFCURVE",
"103 -12 CURVE SMOOTH",
"117 -16 OFFCURVE",
"139 -19 OFFCURVE",
"151 -24 CURVE SMOOTH"
);
},
{
closed = 1;
nodes = (
"291 106 OFFCURVE",
"256 154 OFFCURVE",
"215 195 CURVE",
"233 235 LINE",
"270 233 OFFCURVE",
"308 232 OFFCURVE",
"345 232 CURVE",
"324 174 OFFCURVE",
"309 117 OFFCURVE",
"311 75 CURVE"
);
}
);
width = 499;
}
);
note = H;
unicode = 0048;
},
{
color = 3;
glyphname = I;
lastChange = "2021-08-21 18:45:25 +0000";
layers = (
{
anchors = (
{
name = bottom;
position = "{182, 0}";
},
{
name = ogonek;
position = "{328, 10}";
},
{
name = top;
position = "{182, 633}";
},
{
name = topleft;
position = "{20, 633}";
}
);
hints = (
{
horizontal = 1;
place = "{-18, 43}";
type = Stem;
},
{
place = "{116, 37}";
type = Stem;
}
);
layerId = "C623C401-2266-4A98-B253-3D45160C29C7";
paths = (
{
closed = 1;
nodes = (
"138 -31 OFFCURVE",
"180 -16 OFFCURVE",
"204 -1 CURVE SMOOTH",
"260 37 OFFCURVE",
"315 141 OFFCURVE",
"357 238 CURVE SMOOTH",
"392 320 OFFCURVE",
"453 507 OFFCURVE",
"460 556 CURVE SMOOTH",
"464 589 OFFCURVE",
"448 604 OFFCURVE",
"417 604 CURVE SMOOTH",
"318 604 OFFCURVE",
"189 504 OFFCURVE",
"146 421 CURVE SMOOTH",
"129 388 OFFCURVE",
"123 368 OFFCURVE",
"123 355 CURVE SMOOTH",
"123 328 OFFCURVE",
"150 335 OFFCURVE",
"159 334 CURVE",
"191 406 OFFCURVE",
"255 519 OFFCURVE",
"322 544 CURVE",
"318 524 LINE SMOOTH",
"293 386 OFFCURVE",
"198 138 OFFCURVE",
"131 52 CURVE SMOOTH",
"125 44 OFFCURVE",
"101 15 OFFCURVE",
"76 12 CURVE SMOOTH",
"45 9 OFFCURVE",
"34 23 OFFCURVE",
"23 30 CURVE SMOOTH",
"16 34 OFFCURVE",
"6 30 OFFCURVE",
"6 20 CURVE SMOOTH",
"6 15 OFFCURVE",
"8 9 OFFCURVE",
"14 1 CURVE SMOOTH",
"30 -19 OFFCURVE",
"57 -31 OFFCURVE",
"91 -31 CURVE SMOOTH"
);
}
);
width = 364;
}
);
note = I;
unicode = 0049;
},
{
color = 3;
glyphname = J;
lastChange = "2021-08-21 18:45:25 +0000";
layers = (
{
anchors = (
{
name = bottom;
position = "{201, 0}";
},
{
name = top;
position = "{201, 633}";
}
);
hints = (
{
horizontal = 1;
place = "{-88, 50}";
type = Stem;
},
{
horizontal = 1;
place = "{540, 81}";
type = Stem;
},
{
place = "{470, 8}";
type = Stem;
}
);
layerId = "C623C401-2266-4A98-B253-3D45160C29C7";
paths = (
{
closed = 1;
nodes = (
"256 -37 OFFCURVE",
"329 102 OFFCURVE",
"381 225 CURVE SMOOTH",
"413 301 OFFCURVE",
"461 445 OFFCURVE",
"482 525 CURVE",
"520 525 OFFCURVE",
"550 522 OFFCURVE",
"554 514 CURVE SMOOTH",
"556 511 OFFCURVE",
"560 511 OFFCURVE",
"560 517 CURVE SMOOTH",
"559 524 OFFCURVE",
"561 534 OFFCURVE",
"561 542 CURVE SMOOTH",
"561 580 OFFCURVE",
"482 590 OFFCURVE",
"402 590 CURVE SMOOTH",
"330 590 OFFCURVE",
"258 582 OFFCURVE",
"240 578 CURVE SMOOTH",
"206 571 OFFCURVE",
"200 565 OFFCURVE",
"189 532 CURVE SMOOTH",
"186 522 OFFCURVE",
"184 512 OFFCURVE",
"184 505 CURVE SMOOTH",
"184 496 OFFCURVE",
"187 490 OFFCURVE",
"190 491 CURVE SMOOTH",
"200 494 OFFCURVE",
"221 499 OFFCURVE",
"248 504 CURVE SMOOTH",
"275 509 OFFCURVE",
"307 514 OFFCURVE",
"340 517 CURVE SMOOTH",
"347 518 LINE",
"322 398 OFFCURVE",
"251 197 OFFCURVE",
"191 86 CURVE SMOOTH",
"156 22 OFFCURVE",
"125 -3 OFFCURVE",
"103 -3 CURVE SMOOTH",
"84 -3 OFFCURVE",
"73 15 OFFCURVE",
"73 43 CURVE SMOOTH",
"73 55 OFFCURVE",
"75 68 OFFCURVE",
"79 82 CURVE SMOOTH",
"110 191 OFFCURVE",
"172 271 OFFCURVE",
"228 297 CURVE SMOOTH",
"233 299 OFFCURVE",
"236 302 OFFCURVE",
"236 305 CURVE SMOOTH",
"236 311 OFFCURVE",
"224 317 OFFCURVE",
"206 317 CURVE SMOOTH",
"199 317 OFFCURVE",
"191 316 OFFCURVE",
"182 314 CURVE SMOOTH",
"76 286 OFFCURVE",
"0 157 OFFCURVE",
"0 62 CURVE SMOOTH",
"0 4 OFFCURVE",
"29 -37 OFFCURVE",
"97 -37 CURVE SMOOTH"
);
}
);
width = 401;
}
);
note = J;
unicode = 004A;
},
{
color = 3;
glyphname = K;
lastChange = "2021-08-21 18:45:25 +0000";
layers = (
{
anchors = (
{
name = bottom;
position = "{311, 0}";
},
{
name = top;
position = "{311, 633}";
}
);
hints = (
{
horizontal = 1;
place = "{-15, 21}";
target = up;
type = BottomGhost;
},
{
horizontal = 1;
place = "{274, 28}";
type = Stem;
},
{
horizontal = 1;
place = "{597, -20}";
target = down;
type = TopGhost;
},
{
place = "{-2, 94}";
type = Stem;
}
);
layerId = "C623C401-2266-4A98-B253-3D45160C29C7";
paths = (
{
closed = 1;
nodes = (
"580 -15 OFFCURVE",
"632 58 OFFCURVE",
"621 56 CURVE SMOOTH",
"569 46 OFFCURVE",
"478 288 OFFCURVE",
"475 306 CURVE",
"552 346 OFFCURVE",
"723 451 OFFCURVE",
"723 554 CURVE SMOOTH",
"723 585 OFFCURVE",
"703 598 OFFCURVE",
"683 598 CURVE SMOOTH",
"672 598 OFFCURVE",
"660 595 OFFCURVE",
"651 588 CURVE SMOOTH",
"580 541 OFFCURVE",
"516 335 OFFCURVE",
"361 305 CURVE",
"411 400 OFFCURVE",
"466 491 OFFCURVE",
"492 529 CURVE SMOOTH",
"502 542 OFFCURVE",
"509 554 OFFCURVE",
"509 567 CURVE SMOOTH",
"509 572 OFFCURVE",
"508 577 OFFCURVE",
"506 582 CURVE SMOOTH",
"497 601 OFFCURVE",
"481 623 OFFCURVE",
"463 627 CURVE SMOOTH",
"390 641 OFFCURVE",
"197 499 OFFCURVE",
"126 499 CURVE SMOOTH",
"115 499 OFFCURVE",
"104 502 OFFCURVE",
"104 511 CURVE SMOOTH",
"104 514 OFFCURVE",
"106 518 OFFCURVE",
"108 523 CURVE SMOOTH",
"110 526 OFFCURVE",
"111 529 OFFCURVE",
"111 531 CURVE SMOOTH",
"111 536 OFFCURVE",
"108 538 OFFCURVE",
"103 538 CURVE SMOOTH",
"97 538 OFFCURVE",
"87 534 OFFCURVE",
"80 523 CURVE SMOOTH",
"53 484 OFFCURVE",
"33 438 OFFCURVE",
"33 408 CURVE SMOOTH",
"33 393 OFFCURVE",
"38 382 OFFCURVE",
"50 378 CURVE SMOOTH",
"60 374 OFFCURVE",
"71 372 OFFCURVE",
"81 372 CURVE SMOOTH",
"177 372 OFFCURVE",
"281 522 OFFCURVE",
"336 546 CURVE SMOOTH",
"344 550 OFFCURVE",
"347 547 OFFCURVE",
"347 542 CURVE SMOOTH",
"347 524 OFFCURVE",
"316 474 OFFCURVE",
"311 464 CURVE SMOOTH",
"275 398 OFFCURVE",
"164 196 OFFCURVE",
"164 81 CURVE SMOOTH",
"164 42 OFFCURVE",
"177 14 OFFCURVE",
"208 3 CURVE SMOOTH",
"222 -2 OFFCURVE",
"244 -4 OFFCURVE",
"256 -9 CURVE SMOOTH",
"263 -13 OFFCURVE",
"267 -10 OFFCURVE",
"267 -6 CURVE SMOOTH",
"267 -4 OFFCURVE",
"266 -2 OFFCURVE",
"265 0 CURVE",
"259 7 OFFCURVE",
"256 17 OFFCURVE",
"256 31 CURVE SMOOTH",
"256 83 OFFCURVE",
"297 179 OFFCURVE",
"346 275 CURVE",
"352 275 LINE SMOOTH",
"361 274 OFFCURVE",
"373 275 OFFCURVE",
"388 278 CURVE",
"389 275 LINE",
"396 226 OFFCURVE",
"419 -15 OFFCURVE",
"527 -15 CURVE SMOOTH"
);
}
);
width = 621;
}
);
note = K;
unicode = 004B;
},
{
color = 3;
glyphname = L;
lastChange = "2021-08-21 18:45:25 +0000";
layers = (
{
anchors = (
{
name = bottom;
position = "{211, 0}";
},
{
name = center;
position = "{211, 317}";
},
{
name = top;
position = "{211, 633}";
},
{
name = topright;
position = "{401, 633}";
}
);
hints = (
{
horizontal = 1;
place = "{-4, 103}";
type = Stem;
},
{
horizontal = 1;
place = "{17, 82}";
type = Stem;
},
{
horizontal = 1;
place = "{200, 23}";
type = Stem;
},
{
horizontal = 1;
place = "{546, 50}";
type = Stem;
},
{
place = "{398, 55}";
type = Stem;
}
);
layerId = "C623C401-2266-4A98-B253-3D45160C29C7";
paths = (
{
closed = 1;
nodes = (
"166 -3 OFFCURVE",
"191 7 OFFCURVE",
"232 12 CURVE SMOOTH",
"271 16 OFFCURVE",
"310 19 OFFCURVE",
"343 19 CURVE SMOOTH",
"387 19 OFFCURVE",
"419 14 OFFCURVE",
"419 3 CURVE SMOOTH",
"419 5 LINE SMOOTH",
"418 13 OFFCURVE",
"421 27 OFFCURVE",
"421 36 CURVE SMOOTH",
"421 83 OFFCURVE",
"347 95 OFFCURVE",
"271 95 CURVE SMOOTH",
"227 95 OFFCURVE",
"183 91 OFFCURVE",
"151 87 CURVE",
"164 126 OFFCURVE",
"186 181 OFFCURVE",
"210 233 CURVE",
"335 294 OFFCURVE",
"453 427 OFFCURVE",
"453 523 CURVE SMOOTH",
"453 555 OFFCURVE",
"420 578 OFFCURVE",
"385 589 CURVE SMOOTH",
"368 594 OFFCURVE",
"351 597 OFFCURVE",
"336 597 CURVE SMOOTH",
"271 595 OFFCURVE",
"256 586 OFFCURVE",
"219 523 CURVE SMOOTH",
"197 486 OFFCURVE",
"119 349 OFFCURVE",
"76 225 CURVE",
"66 226 OFFCURVE",
"57 228 OFFCURVE",
"47 232 CURVE SMOOTH",
"34 237 OFFCURVE",
"22 227 OFFCURVE",
"22 219 CURVE SMOOTH",
"22 215 OFFCURVE",
"25 212 OFFCURVE",
"30 210 CURVE SMOOTH",
"42 205 OFFCURVE",
"55 202 OFFCURVE",
"68 201 CURVE",
"54 158 OFFCURVE",
"45 117 OFFCURVE",
"45 84 CURVE SMOOTH",
"45 47 OFFCURVE",
"56 20 OFFCURVE",
"83 9 CURVE SMOOTH",
"104 0 OFFCURVE",
"121 -3 OFFCURVE",
"137 -3 CURVE SMOOTH"
);
},
{
closed = 1;
nodes = (
"238 294 LINE SMOOTH",
"268 359 OFFCURVE",
"357 547 OFFCURVE",
"387 547 CURVE SMOOTH",
"395 547 OFFCURVE",
"399 538 OFFCURVE",
"399 524 CURVE SMOOTH",
"399 506 OFFCURVE",
"392 480 OFFCURVE",
"377 451 CURVE SMOOTH",
"349 399 OFFCURVE",
"295 328 OFFCURVE",
"231 280 CURVE"
);
}
);
width = 421;
}
);
note = L;
unicode = 004C;
},
{
color = 3;
glyphname = M;
lastChange = "2021-08-21 18:45:25 +0000";
layers = (
{
hints = (
{
horizontal = 1;
place = "{-7, 21}";
target = up;
type = BottomGhost;
},
{
horizontal = 1;
place = "{372, 128}";
type = Stem;
},
{
horizontal = 1;
place = "{506, 77}";
type = Stem;
},
{
horizontal = 1;
place = "{583, -20}";
target = down;
type = TopGhost;
},
{
place = "{33, 71}";
type = Stem;
},
{
place = "{160, 93}";
type = Stem;
},
{
place = "{408, 102}";
type = Stem;
},
{
place = "{626, 100}";
type = Stem;
}
);
layerId = "C623C401-2266-4A98-B253-3D45160C29C7";
paths = (
{
closed = 1;
nodes = (
"714 -92 OFFCURVE",
"728 -87 OFFCURVE",
"736 -79 CURVE",
"729 -69 OFFCURVE",
"727 -54 OFFCURVE",
"727 -36 CURVE SMOOTH",
"727 88 OFFCURVE",
"861 371 OFFCURVE",
"893 429 CURVE SMOOTH",
"910 461 OFFCURVE",
"934 506 OFFCURVE",
"934 546 CURVE SMOOTH",
"934 572 OFFCURVE",
"923 595 OFFCURVE",
"894 610 CURVE SMOOTH",
"871 622 OFFCURVE",
"858 629 OFFCURVE",
"847 629 CURVE SMOOTH",
"839 629 OFFCURVE",
"831 625 OFFCURVE",
"820 617 CURVE SMOOTH",
"807 607 OFFCURVE",
"646 421 OFFCURVE",
"578 336 CURVE",
"634 423 OFFCURVE",
"682 490 OFFCURVE",
"682 533 CURVE SMOOTH",
"682 549 OFFCURVE",
"676 562 OFFCURVE",
"661 571 CURVE SMOOTH",
"644 582 OFFCURVE",
"629 585 OFFCURVE",
"615 585 CURVE SMOOTH",
"590 585 OFFCURVE",
"571 573 OFFCURVE",
"564 568 CURVE SMOOTH",
"527 540 OFFCURVE",
"409 399 OFFCURVE",
"351 322 CURVE SMOOTH",
"346 315 OFFCURVE",
"344 327 OFFCURVE",
"352 340 CURVE SMOOTH",
"372 370 OFFCURVE",
"416 429 OFFCURVE",
"442 462 CURVE SMOOTH",
"458 484 OFFCURVE",
"517 551 OFFCURVE",
"511 568 CURVE SMOOTH",
"505 588 OFFCURVE",
"486 622 OFFCURVE",
"463 627 CURVE SMOOTH",
"390 641 OFFCURVE",
"197 499 OFFCURVE",
"126 499 CURVE SMOOTH",
"115 499 OFFCURVE",
"104 502 OFFCURVE",
"104 511 CURVE SMOOTH",
"104 514 OFFCURVE",
"106 518 OFFCURVE",
"108 523 CURVE SMOOTH",
"110 526 OFFCURVE",
"111 529 OFFCURVE",
"111 531 CURVE SMOOTH",
"111 536 OFFCURVE",
"108 538 OFFCURVE",
"103 538 CURVE SMOOTH",
"97 538 OFFCURVE",
"87 534 OFFCURVE",
"80 523 CURVE SMOOTH",
"53 484 OFFCURVE",
"33 438 OFFCURVE",
"33 408 CURVE SMOOTH",
"33 393 OFFCURVE",
"38 382 OFFCURVE",
"50 378 CURVE SMOOTH",
"60 374 OFFCURVE",
"70 373 OFFCURVE",
"80 373 CURVE SMOOTH",
"177 373 OFFCURVE",
"289 532 OFFCURVE",
"346 553 CURVE SMOOTH",
"354 556 OFFCURVE",
"358 554 OFFCURVE",
"358 549 CURVE SMOOTH",
"358 530 OFFCURVE",
"313 469 OFFCURVE",
"307 459 CURVE SMOOTH",
"226 326 OFFCURVE",
"169 155 OFFCURVE",
"161 89 CURVE SMOOTH",
"160 81 OFFCURVE",
"159 74 OFFCURVE",
"159 68 CURVE SMOOTH",
"159 15 OFFCURVE",
"191 -7 OFFCURVE",
"257 -7 CURVE SMOOTH",
"264 -7 OFFCURVE",
"267 -6 OFFCURVE",
"267 -4 CURVE SMOOTH",
"267 -3 OFFCURVE",
"266 -2 OFFCURVE",
"265 0 CURVE",
"258 8 OFFCURVE",
"254 20 OFFCURVE",
"254 35 CURVE SMOOTH",
"254 192 OFFCURVE",
"454 418 OFFCURVE",
"561 515 CURVE",
"547 492 OFFCURVE",
"501 413 OFFCURVE",
"473 347 CURVE SMOOTH",
"439 268 OFFCURVE",
"409 176 OFFCURVE",
"409 108 CURVE SMOOTH",
"409 51 OFFCURVE",
"431 10 OFFCURVE",
"492 10 CURVE SMOOTH",
"506 10 OFFCURVE",
"516 14 OFFCURVE",
"516 20 CURVE SMOOTH",
"516 21 OFFCURVE",
"515 22 OFFCURVE",
"515 23 CURVE",
"511 30 OFFCURVE",
"509 41 OFFCURVE",
"509 54 CURVE SMOOTH",
"509 106 OFFCURVE",
"538 194 OFFCURVE",
"549 220 CURVE SMOOTH",
"607 352 OFFCURVE",
"757 494 OFFCURVE",
"799 531 CURVE",
"749 448 OFFCURVE",
"625 188 OFFCURVE",
"625 30 CURVE SMOOTH",
"625 -30 OFFCURVE",
"643 -75 OFFCURVE",
"690 -90 CURVE SMOOTH",
"694 -91 OFFCURVE",
"698 -92 OFFCURVE",
"702 -92 CURVE SMOOTH"
);
}
);
width = 844;
}
);
note = M;
unicode = 004D;
},
{
color = 3;
glyphname = N;
lastChange = "2021-08-21 18:45:25 +0000";
layers = (
{
anchors = (
{
name = bottom;
position = "{317, 0}";
},
{
name = top;
position = "{317, 633}";
}
);
hints = (
{
horizontal = 1;
place = "{-7, 21}";
target = up;
type = BottomGhost;
},
{
horizontal = 1;
place = "{372, 128}";
type = Stem;
},
{
place = "{33, 71}";
type = Stem;
},
{
place = "{160, 93}";
type = Stem;
},
{
place = "{419, 104}";
type = Stem;
},
{
horizontal = 1;
place = "{-1, 21}";
target = up;
type = BottomGhost;
}
);
layerId = "C623C401-2266-4A98-B253-3D45160C29C7";
paths = (
{
closed = 1;
nodes = (
"264 -7 OFFCURVE",
"267 -6 OFFCURVE",
"267 -4 CURVE SMOOTH",
"267 -3 OFFCURVE",
"266 -2 OFFCURVE",
"265 0 CURVE",
"258 8 OFFCURVE",
"254 21 OFFCURVE",
"254 36 CURVE SMOOTH",
"254 206 OFFCURVE",
"450 418 OFFCURVE",
"558 515 CURVE",
"553 499 OFFCURVE",
"538 464 OFFCURVE",
"520 424 CURVE SMOOTH",
"487 353 OFFCURVE",
"414 208 OFFCURVE",
"414 106 CURVE SMOOTH",
"414 54 OFFCURVE",
"442 -1 OFFCURVE",
"497 -1 CURVE SMOOTH",
"512 -1 OFFCURVE",
"528 3 OFFCURVE",
"532 11 CURVE",
"525 20 OFFCURVE",
"521 40 OFFCURVE",
"521 65 CURVE SMOOTH",
"521 97 OFFCURVE",
"528 138 OFFCURVE",
"542 179 CURVE SMOOTH",
"572 264 OFFCURVE",
"625 356 OFFCURVE",
"688 480 CURVE SMOOTH",
"698 500 OFFCURVE",
"705 523 OFFCURVE",
"705 544 CURVE SMOOTH",
"705 570 OFFCURVE",
"695 594 OFFCURVE",
"667 609 CURVE SMOOTH",
"649 619 OFFCURVE",
"637 626 OFFCURVE",
"624 626 CURVE SMOOTH",
"616 626 OFFCURVE",
"607 623 OFFCURVE",
"597 615 CURVE SMOOTH",
"560 587 OFFCURVE",
"423 426 OFFCURVE",
"352 323 CURVE SMOOTH",
"347 316 OFFCURVE",
"346 330 OFFCURVE",
"354 343 CURVE SMOOTH",
"374 373 OFFCURVE",
"416 429 OFFCURVE",
"442 462 CURVE SMOOTH",
"458 484 OFFCURVE",
"517 551 OFFCURVE",
"511 568 CURVE SMOOTH",
"505 588 OFFCURVE",
"486 622 OFFCURVE",
"463 627 CURVE SMOOTH",
"390 641 OFFCURVE",
"197 499 OFFCURVE",
"126 499 CURVE SMOOTH",
"115 499 OFFCURVE",
"104 502 OFFCURVE",
"104 511 CURVE SMOOTH",
"104 514 OFFCURVE",
"106 518 OFFCURVE",
"108 523 CURVE SMOOTH",
"110 526 OFFCURVE",
"111 529 OFFCURVE",
"111 531 CURVE SMOOTH",
"111 536 OFFCURVE",
"108 538 OFFCURVE",
"103 538 CURVE SMOOTH",
"97 538 OFFCURVE",
"87 534 OFFCURVE",
"80 523 CURVE SMOOTH",
"53 484 OFFCURVE",
"33 438 OFFCURVE",
"33 408 CURVE SMOOTH",
"33 393 OFFCURVE",
"38 382 OFFCURVE",
"50 378 CURVE SMOOTH",
"60 374 OFFCURVE",
"70 373 OFFCURVE",
"80 373 CURVE SMOOTH",
"177 373 OFFCURVE",
"289 532 OFFCURVE",
"346 553 CURVE SMOOTH",
"354 556 OFFCURVE",
"358 554 OFFCURVE",
"358 549 CURVE SMOOTH",
"358 530 OFFCURVE",
"313 469 OFFCURVE",
"307 459 CURVE SMOOTH",
"226 326 OFFCURVE",
"169 155 OFFCURVE",
"161 89 CURVE SMOOTH",
"160 81 OFFCURVE",
"159 74 OFFCURVE",
"159 68 CURVE SMOOTH",
"159 15 OFFCURVE",
"191 -7 OFFCURVE",
"257 -7 CURVE SMOOTH"
);
}
);
width = 633;
}
);
note = N;
unicode = 004E;
},
{
color = 3;
glyphname = Eng;
lastChange = "2021-08-21 18:45:25 +0000";
layers = (
{
hints = (
{
horizontal = 1;
place = "{-7, 21}";
target = up;
type = BottomGhost;
},
{
horizontal = 1;
place = "{372, 128}";
type = Stem;
},
{
place = "{33, 71}";
type = Stem;
},
{
place = "{160, 93}";
type = Stem;
},
{
place = "{419, 104}";
type = Stem;
},
{
horizontal = 1;
place = "{-1, 21}";
target = up;
type = BottomGhost;
},
{
horizontal = 1;
place = "{-66, 50}";
type = Stem;
},
{
horizontal = 1;
place = "{562, 81}";
type = Stem;
},
{
place = "{1309, 8}";
type = Stem;
}
);
layerId = "C623C401-2266-4A98-B253-3D45160C29C7";
paths = (
{
closed = 1;
nodes = (
"342 -349 OFFCURVE",
"431 -177 OFFCURVE",
"547 99 CURVE SMOOTH",
"623 280 OFFCURVE",
"654 378 OFFCURVE",
"688 480 CURVE SMOOTH",
"695 501 OFFCURVE",
"702 525 OFFCURVE",
"702 548 CURVE SMOOTH",
"702 572 OFFCURVE",
"694 594 OFFCURVE",
"667 609 CURVE SMOOTH",
"649 619 OFFCURVE",
"637 626 OFFCURVE",
"624 626 CURVE SMOOTH",
"616 626 OFFCURVE",
"607 623 OFFCURVE",
"597 615 CURVE SMOOTH",
"560 587 OFFCURVE",
"423 426 OFFCURVE",
"352 323 CURVE SMOOTH",
"347 316 OFFCURVE",
"346 330 OFFCURVE",
"354 343 CURVE SMOOTH",
"374 373 OFFCURVE",
"416 429 OFFCURVE",
"442 462 CURVE SMOOTH",
"458 484 OFFCURVE",
"517 551 OFFCURVE",
"511 568 CURVE SMOOTH",
"505 588 OFFCURVE",
"486 622 OFFCURVE",
"463 627 CURVE SMOOTH",
"390 641 OFFCURVE",
"197 499 OFFCURVE",
"126 499 CURVE SMOOTH",
"115 499 OFFCURVE",
"104 502 OFFCURVE",
"104 511 CURVE SMOOTH",
"104 514 OFFCURVE",
"106 518 OFFCURVE",
"108 523 CURVE SMOOTH",
"110 526 OFFCURVE",
"111 529 OFFCURVE",
"111 531 CURVE SMOOTH",
"111 536 OFFCURVE",
"108 538 OFFCURVE",
"103 538 CURVE SMOOTH",
"97 538 OFFCURVE",
"87 534 OFFCURVE",
"80 523 CURVE SMOOTH",
"53 484 OFFCURVE",
"33 438 OFFCURVE",
"33 408 CURVE SMOOTH",
"33 393 OFFCURVE",
"38 382 OFFCURVE",
"50 378 CURVE SMOOTH",
"60 374 OFFCURVE",
"70 373 OFFCURVE",
"80 373 CURVE SMOOTH",
"177 373 OFFCURVE",
"289 532 OFFCURVE",
"346 553 CURVE SMOOTH",
"354 556 OFFCURVE",
"358 554 OFFCURVE",
"358 549 CURVE SMOOTH",
"358 530 OFFCURVE",
"313 469 OFFCURVE",
"307 459 CURVE SMOOTH",
"226 326 OFFCURVE",
"169 155 OFFCURVE",
"161 89 CURVE SMOOTH",
"160 81 OFFCURVE",
"159 74 OFFCURVE",
"159 68 CURVE SMOOTH",
"159 15 OFFCURVE",
"191 -7 OFFCURVE",
"257 -7 CURVE SMOOTH",
"264 -7 OFFCURVE",
"267 -6 OFFCURVE",
"267 -4 CURVE SMOOTH",
"267 -3 OFFCURVE",
"266 -2 OFFCURVE",
"265 0 CURVE",
"258 8 OFFCURVE",
"254 21 OFFCURVE",
"254 36 CURVE SMOOTH",
"254 206 OFFCURVE",
"450 418 OFFCURVE",
"558 515 CURVE",
"553 499 OFFCURVE",
"547 432 OFFCURVE",
"535 391 CURVE SMOOTH",
"486 219 OFFCURVE",
"370 -56 OFFCURVE",
"278 -226 CURVE SMOOTH",
"245 -286 OFFCURVE",
"218 -310 OFFCURVE",
"200 -310 CURVE SMOOTH",
"185 -310 OFFCURVE",
"176 -292 OFFCURVE",
"176 -265 CURVE SMOOTH",
"176 -251 OFFCURVE",
"179 -234 OFFCURVE",
"184 -216 CURVE",
"186 -177 OFFCURVE",
"223 -130 OFFCURVE",
"246 -122 CURVE",
"254 -118 OFFCURVE",
"259 -112 OFFCURVE",
"259 -107 CURVE SMOOTH",
"259 -99 OFFCURVE",
"251 -92 OFFCURVE",
"236 -92 CURVE SMOOTH",
"232 -92 OFFCURVE",
"227 -93 OFFCURVE",
"222 -94 CURVE SMOOTH",
"137 -113 OFFCURVE",
"85 -195 OFFCURVE",
"85 -259 CURVE SMOOTH",
"85 -312 OFFCURVE",
"119 -349 OFFCURVE",
"181 -349 CURVE SMOOTH"
);
}
);
width = 633;
}
);
unicode = 014A;
},
{
color = 3;
glyphname = O;
lastChange = "2021-08-21 18:45:25 +0000";
layers = (
{
anchors = (
{
name = bottom;
position = "{235, 0}";
},
{
name = center;
position = "{235, 317}";
},
{
name = ogonek;
position = "{423, 10}";
},
{
name = top;
position = "{235, 633}";
},
{
name = topleft;
position = "{20, 633}";
},
{
name = topright;
position = "{450, 633}";
}
);
hints = (
{
horizontal = 1;
place = "{5, 32}";
type = Stem;
},
{
horizontal = 1;
place = "{588, 29}";
type = Stem;
},
{
place = "{22, 120}";
type = Stem;
},
{
place = "{403, 89}";
type = Stem;
}
);
layerId = "C623C401-2266-4A98-B253-3D45160C29C7";
paths = (
{
closed = 1;
nodes = (
"241 -10 OFFCURVE",
"293 7 OFFCURVE",
"332 38 CURVE SMOOTH",
"394 86 OFFCURVE",
"448 169 OFFCURVE",
"483 245 CURVE SMOOTH",
"503 288 OFFCURVE",
"524 355 OFFCURVE",
"524 417 CURVE SMOOTH",
"524 473 OFFCURVE",
"506 524 OFFCURVE",
"454 547 CURVE SMOOTH",
"447 550 OFFCURVE",
"441 551 OFFCURVE",
"436 551 CURVE SMOOTH",
"429 551 OFFCURVE",
"424 549 OFFCURVE",
"424 544 CURVE SMOOTH",
"424 542 OFFCURVE",
"426 539 OFFCURVE",
"429 535 CURVE SMOOTH",
"442 520 OFFCURVE",
"449 492 OFFCURVE",
"449 455 CURVE SMOOTH",
"449 404 OFFCURVE",
"435 338 OFFCURVE",
"404 272 CURVE SMOOTH",
"328 112 OFFCURVE",
"253 27 OFFCURVE",
"199 27 CURVE SMOOTH",
"174 27 OFFCURVE",
"165 47 OFFCURVE",
"165 78 CURVE SMOOTH",
"165 143 OFFCURVE",
"208 257 OFFCURVE",
"237 320 CURVE SMOOTH",
"268 388 OFFCURVE",
"307 461 OFFCURVE",
"345 506 CURVE SMOOTH",
"378 543 OFFCURVE",
"419 583 OFFCURVE",
"456 583 CURVE SMOOTH",
"468 583 OFFCURVE",
"480 578 OFFCURVE",
"491 569 CURVE SMOOTH",
"495 565 OFFCURVE",
"498 564 OFFCURVE",
"501 564 CURVE SMOOTH",
"508 564 OFFCURVE",
"511 573 OFFCURVE",
"511 581 CURVE SMOOTH",
"511 587 OFFCURVE",
"509 593 OFFCURVE",
"506 596 CURVE SMOOTH",
"491 612 OFFCURVE",
"454 621 OFFCURVE",
"414 621 CURVE SMOOTH",
"333 621 OFFCURVE",
"273 594 OFFCURVE",
"215 542 CURVE SMOOTH",
"109 448 OFFCURVE",
"41 282 OFFCURVE",
"41 150 CURVE SMOOTH",
"41 142 OFFCURVE",
"41 134 OFFCURVE",
"42 126 CURVE SMOOTH",
"47 31 OFFCURVE",
"116 -10 OFFCURVE",
"192 -10 CURVE SMOOTH"
);
}
);
width = 470;
}
);
note = O;
unicode = 004F;
},
{
color = 3;
glyphname = Oslash;
lastChange = "2021-08-21 18:45:25 +0000";
layers = (
{
hints = (
{
horizontal = 1;
place = "{-10, 38}";
type = Stem;
},
{
horizontal = 1;
place = "{574, 38}";
type = Stem;
},
{
place = "{473, 66}";
type = Stem;
},
{
horizontal = 1;
place = "{0, 21}";
target = up;
type = BottomGhost;
},
{
place = "{512, 41}";
type = Stem;
}
);
layerId = "C623C401-2266-4A98-B253-3D45160C29C7";
paths = (
{
closed = 1;
nodes = (
"66 -80 OFFCURVE",
"82 -74 OFFCURVE",
"86 -70 CURVE SMOOTH",
"99 -55 OFFCURVE",
"119 -30 OFFCURVE",
"143 0 CURVE",
"162 -7 OFFCURVE",
"183 -10 OFFCURVE",
"204 -10 CURVE SMOOTH",
"246 -10 OFFCURVE",
"289 2 OFFCURVE",
"324 26 CURVE SMOOTH",
"392 73 OFFCURVE",
"452 163 OFFCURVE",
"490 246 CURVE SMOOTH",
"510 293 OFFCURVE",
"539 383 OFFCURVE",
"539 461 CURVE SMOOTH",
"539 495 OFFCURVE",
"534 527 OFFCURVE",
"520 552 CURVE",
"539 585 OFFCURVE",
"553 615 OFFCURVE",
"553 636 CURVE SMOOTH",
"553 653 OFFCURVE",
"544 663 OFFCURVE",
"521 663 CURVE SMOOTH",
"512 663 OFFCURVE",
"510 662 OFFCURVE",
"510 660 CURVE SMOOTH",
"510 658 OFFCURVE",
"514 656 OFFCURVE",
"512 655 CURVE",
"507 642 OFFCURVE",
"496 621 OFFCURVE",
"480 594 CURVE",
"459 608 OFFCURVE",
"433 612 OFFCURVE",
"405 612 CURVE SMOOTH",
"188 612 OFFCURVE",
"53 342 OFFCURVE",
"53 148 CURVE SMOOTH",
"53 90 OFFCURVE",
"71 51 OFFCURVE",
"101 24 CURVE",
"50 -48 LINE SMOOTH",
"43 -58 OFFCURVE",
"40 -65 OFFCURVE",
"40 -70 CURVE SMOOTH",
"40 -77 OFFCURVE",
"46 -80 OFFCURVE",
"54 -80 CURVE SMOOTH"
);
},
{
closed = 1;
nodes = (
"194 28 OFFCURVE",
"185 36 OFFCURVE",
"180 50 CURVE",
"265 164 OFFCURVE",
"380 329 OFFCURVE",
"462 460 CURVE SMOOTH",
"473 477 LINE",
"465 415 OFFCURVE",
"440 336 OFFCURVE",
"411 274 CURVE SMOOTH",
"336 113 OFFCURVE",
"263 28 OFFCURVE",
"210 28 CURVE SMOOTH"
);
},
{
closed = 1;
nodes = (
"199 205 OFFCURVE",
"226 276 OFFCURVE",
"247 322 CURVE SMOOTH",
"270 375 OFFCURVE",
"369 574 OFFCURVE",
"440 574 CURVE SMOOTH",
"449 574 OFFCURVE",
"457 570 OFFCURVE",
"462 563 CURVE",
"398 457 OFFCURVE",
"284 289 OFFCURVE",
"185 144 CURVE"
);
}
);
width = 463;
}
);
note = Oslash;
unicode = 00D8;
},
{
color = 3;
glyphname = OE;
lastChange = "2021-08-21 18:45:25 +0000";
layers = (
{
hints = (
{
horizontal = 1;
place = "{-10, 38}";
type = Stem;
},
{
horizontal = 1;
place = "{231, 56}";
type = Stem;
},
{
horizontal = 1;
place = "{574, 38}";
type = Stem;
},
{
place = "{54, 122}";
type = Stem;
},
{
horizontal = 1;
place = "{536, 83}";
type = Stem;
},
{
horizontal = 1;
place = "{23, 76}";
type = Stem;
}
);
layerId = "C623C401-2266-4A98-B253-3D45160C29C7";
paths = (
{
closed = 1;
nodes = (
"247 -10 OFFCURVE",
"289 2 OFFCURVE",
"324 26 CURVE SMOOTH",
"331 31 OFFCURVE",
"338 37 OFFCURVE",
"345 43 CURVE",
"358 15 OFFCURVE",
"386 -3 OFFCURVE",
"421 -3 CURVE SMOOTH",
"427 -3 OFFCURVE",
"435 -3 OFFCURVE",
"442 -1 CURVE SMOOTH",
"476 5 OFFCURVE",
"585 23 OFFCURVE",
"653 23 CURVE SMOOTH",
"682 23 OFFCURVE",
"704 20 OFFCURVE",
"708 11 CURVE SMOOTH",
"710 6 OFFCURVE",
"715 7 OFFCURVE",
"715 14 CURVE SMOOTH",
"715 23 OFFCURVE",
"720 39 OFFCURVE",
"720 49 CURVE SMOOTH",
"720 88 OFFCURVE",
"653 99 OFFCURVE",
"579 99 CURVE SMOOTH",
"533 99 OFFCURVE",
"484 95 OFFCURVE",
"448 90 CURVE",
"460 125 OFFCURVE",
"481 172 OFFCURVE",
"506 226 CURVE",
"525 227 LINE SMOOTH",
"563 229 OFFCURVE",
"600 231 OFFCURVE",
"632 231 CURVE SMOOTH",
"678 231 OFFCURVE",
"712 228 OFFCURVE",
"718 221 CURVE SMOOTH",
"726 213 OFFCURVE",
"727 238 OFFCURVE",
"727 242 CURVE SMOOTH",
"727 274 OFFCURVE",
"625 285 OFFCURVE",
"534 287 CURVE",
"538 294 LINE SMOOTH",
"568 358 OFFCURVE",
"601 420 OFFCURVE",
"630 471 CURVE SMOOTH",
"644 496 OFFCURVE",
"657 518 OFFCURVE",
"668 536 CURVE",
"688 537 OFFCURVE",
"707 538 OFFCURVE",
"725 538 CURVE SMOOTH",
"771 538 OFFCURVE",
"805 533 OFFCURVE",
"805 524 CURVE SMOOTH",
"805 526 LINE SMOOTH",
"804 534 OFFCURVE",
"807 547 OFFCURVE",
"807 556 CURVE SMOOTH",
"807 608 OFFCURVE",
"727 621 OFFCURVE",
"663 621 CURVE SMOOTH",
"648 621 OFFCURVE",
"634 620 OFFCURVE",
"622 619 CURVE SMOOTH",
"574 614 OFFCURVE",
"543 626 OFFCURVE",
"520 572 CURVE",
"516 559 LINE",
"508 573 OFFCURVE",
"496 584 OFFCURVE",
"482 593 CURVE SMOOTH",
"461 608 OFFCURVE",
"434 612 OFFCURVE",
"405 612 CURVE SMOOTH",
"180 612 OFFCURVE",
"43 321 OFFCURVE",
"54 126 CURVE SMOOTH",
"60 32 OFFCURVE",
"130 -10 OFFCURVE",
"206 -10 CURVE SMOOTH"
);
},
{
closed = 1;
nodes = (
"185 28 OFFCURVE",
"176 48 OFFCURVE",
"176 79 CURVE SMOOTH",
"176 145 OFFCURVE",
"218 258 OFFCURVE",
"247 322 CURVE SMOOTH",
"270 375 OFFCURVE",
"369 574 OFFCURVE",
"440 574 CURVE SMOOTH",
"465 574 OFFCURVE",
"475 549 OFFCURVE",
"475 512 CURVE SMOOTH",
"475 448 OFFCURVE",
"446 349 OFFCURVE",
"411 274 CURVE SMOOTH",
"336 113 OFFCURVE",
"263 28 OFFCURVE",
"210 28 CURVE SMOOTH"
);
}
);
width = 729;
}
);
note = OE;
unicode = 0152;
},
{
color = 3;
glyphname = P;
lastChange = "2021-08-21 18:45:25 +0000";
layers = (
{
hints = (
{
horizontal = 1;
place = "{195, 42}";
type = Stem;
},
{
horizontal = 1;
place = "{534, 75}";
type = Stem;
},
{
horizontal = 1;
place = "{596, -20}";
target = down;
type = TopGhost;
},
{
horizontal = 1;
place = "{609, -20}";
target = down;
type = TopGhost;
},
{
place = "{52, 94}";
type = Stem;
},
{
place = "{207, 46}";
type = Stem;
},
{
place = "{443, 110}";
type = Stem;
}
);
layerId = "C623C401-2266-4A98-B253-3D45160C29C7";
paths = (
{
closed = 1;
nodes = (
"174 -27 OFFCURVE",
"177 -25 OFFCURVE",
"177 -21 CURVE SMOOTH",
"177 -19 OFFCURVE",
"177 -17 OFFCURVE",
"175 -15 CURVE SMOOTH",
"171 -10 OFFCURVE",
"169 -2 OFFCURVE",
"169 9 CURVE SMOOTH",
"169 50 OFFCURVE",
"196 132 OFFCURVE",
"232 219 CURVE",
"237 213 OFFCURVE",
"251 211 OFFCURVE",
"267 211 CURVE SMOOTH",
"295 211 OFFCURVE",
"332 217 OFFCURVE",
"350 223 CURVE SMOOTH",
"472 261 OFFCURVE",
"565 382 OFFCURVE",
"565 478 CURVE SMOOTH",
"565 556 OFFCURVE",
"502 614 OFFCURVE",
"368 614 CURVE SMOOTH",
"171 614 OFFCURVE",
"24 553 OFFCURVE",
"24 452 CURVE SMOOTH",
"24 417 OFFCURVE",
"81 405 OFFCURVE",
"89 404 CURVE",
"112 526 OFFCURVE",
"270 583 OFFCURVE",
"358 583 CURVE SMOOTH",
"425 583 OFFCURVE",
"450 546 OFFCURVE",
"450 496 CURVE SMOOTH",
"450 394 OFFCURVE",
"348 241 OFFCURVE",
"286 241 CURVE SMOOTH",
"275 241 OFFCURVE",
"248 243 OFFCURVE",
"244 247 CURVE",
"252 265 OFFCURVE",
"260 284 OFFCURVE",
"269 302 CURVE SMOOTH",
"297 361 OFFCURVE",
"340 456 OFFCURVE",
"383 505 CURVE SMOOTH",
"389 512 OFFCURVE",
"372 517 OFFCURVE",
"326 517 CURVE SMOOTH",
"284 517 OFFCURVE",
"250 504 OFFCURVE",
"225 465 CURVE SMOOTH",
"205 433 OFFCURVE",
"82 199 OFFCURVE",
"82 68 CURVE SMOOTH",
"82 30 OFFCURVE",
"92 1 OFFCURVE",
"119 -12 CURVE SMOOTH",
"132 -18 OFFCURVE",
"155 -19 OFFCURVE",
"166 -24 CURVE SMOOTH"
);
}
);
width = 459;
}
);
note = P;
unicode = 0050;
},
{
color = 3;
glyphname = Thorn;
lastChange = "2021-08-21 18:45:25 +0000";
layers = (
{
hints = (
{
horizontal = 1;
place = "{151, 21}";
target = up;
type = BottomGhost;
},
{
horizontal = 1;
place = "{584, -20}";
target = down;
type = TopGhost;
},
{
horizontal = 1;
place = "{588, -20}";
target = down;
type = TopGhost;
},
{
place = "{-14, 97}";
type = Stem;
},
{
place = "{194, 100}";
type = Stem;
},
{
place = "{342, 128}";
type = Stem;
}
);
layerId = "C623C401-2266-4A98-B253-3D45160C29C7";
paths = (
{
closed = 1;
nodes = (
"116 -26 OFFCURVE",
"119 -25 OFFCURVE",
"119 -21 CURVE SMOOTH",
"119 -20 OFFCURVE",
"119 -18 OFFCURVE",
"117 -16 CURVE SMOOTH",
"114 -13 OFFCURVE",
"113 -6 OFFCURVE",
"113 3 CURVE SMOOTH",
"113 39 OFFCURVE",
"136 115 OFFCURVE",
"179 191 CURVE SMOOTH",
"181 194 LINE",
"196 143 OFFCURVE",
"215 116 OFFCURVE",
"256 116 CURVE SMOOTH",
"304 116 OFFCURVE",
"339 147 OFFCURVE",
"366 186 CURVE SMOOTH",
"396 231 OFFCURVE",
"486 403 OFFCURVE",
"486 490 CURVE SMOOTH",
"486 515 OFFCURVE",
"479 533 OFFCURVE",
"461 539 CURVE SMOOTH",
"442 546 OFFCURVE",
"426 551 OFFCURVE",
"412 551 CURVE SMOOTH",
"403 551 OFFCURVE",
"395 549 OFFCURVE",
"388 543 CURVE SMOOTH",
"368 527 OFFCURVE",
"300 407 OFFCURVE",
"263 358 CURVE",
"282 395 OFFCURVE",
"362 567 OFFCURVE",
"368 585 CURVE SMOOTH",
"371 594 OFFCURVE",
"373 604 OFFCURVE",
"373 615 CURVE SMOOTH",
"373 649 OFFCURVE",
"351 686 OFFCURVE",
"278 694 CURVE SMOOTH",
"271 695 OFFCURVE",
"268 693 OFFCURVE",
"268 691 CURVE SMOOTH",
"268 690 OFFCURVE",
"269 689 OFFCURVE",
"270 687 CURVE",
"273 684 OFFCURVE",
"274 678 OFFCURVE",
"274 672 CURVE SMOOTH",
"274 651 OFFCURVE",
"262 618 OFFCURVE",
"254 599 CURVE SMOOTH",
"231 540 OFFCURVE",
"15 112 OFFCURVE",
"16 52 CURVE SMOOTH",
"17 21 OFFCURVE",
"30 -5 OFFCURVE",
"70 -12 CURVE SMOOTH",
"84 -14 OFFCURVE",
"98 -18 OFFCURVE",
"109 -23 CURVE SMOOTH"
);
},
{
closed = 1;
nodes = (
"210 162 OFFCURVE",
"199 189 OFFCURVE",
"191 212 CURVE",
"233 284 OFFCURVE",
"317 415 OFFCURVE",
"357 467 CURVE",
"354 438 OFFCURVE",
"332 367 OFFCURVE",
"310 321 CURVE SMOOTH",
"286 272 OFFCURVE",
"239 148 OFFCURVE",
"222 156 CURVE SMOOTH"
);
}
);
width = 372;
}
);
note = Thorn;
unicode = 00DE;
},
{
color = 3;
glyphname = Q;
lastChange = "2021-08-21 18:45:25 +0000";
layers = (
{
hints = (
{
horizontal = 1;
place = "{-183, 21}";
target = up;
type = BottomGhost;
},
{
horizontal = 1;
place = "{5, 32}";
type = Stem;
},
{
horizontal = 1;
place = "{5, 108}";
type = Stem;
},
{
horizontal = 1;
place = "{588, 29}";
type = Stem;
},
{
place = "{62, 120}";
type = Stem;
},
{
place = "{443, 89}";
type = Stem;
}
);
layerId = "C623C401-2266-4A98-B253-3D45160C29C7";
paths = (
{
closed = 1;
nodes = (
"253 1 OFFCURVE",
"302 18 OFFCURVE",
"340 48 CURVE SMOOTH",
"401 96 OFFCURVE",
"455 177 OFFCURVE",
"489 252 CURVE SMOOTH",
"508 294 OFFCURVE",
"528 361 OFFCURVE",
"528 422 CURVE SMOOTH",
"528 477 OFFCURVE",
"511 528 OFFCURVE",
"460 550 CURVE SMOOTH",
"453 553 OFFCURVE",
"447 554 OFFCURVE",
"442 554 CURVE SMOOTH",
"435 554 OFFCURVE",
"431 552 OFFCURVE",
"431 547 CURVE SMOOTH",
"431 545 OFFCURVE",
"433 542 OFFCURVE",
"436 538 CURVE SMOOTH",
"449 524 OFFCURVE",
"455 496 OFFCURVE",
"455 460 CURVE SMOOTH",
"455 410 OFFCURVE",
"442 345 OFFCURVE",
"411 279 CURVE SMOOTH",
"338 122 OFFCURVE",
"265 38 OFFCURVE",
"212 38 CURVE SMOOTH",
"188 38 OFFCURVE",
"179 58 OFFCURVE",
"179 88 CURVE SMOOTH",
"179 153 OFFCURVE",
"221 264 OFFCURVE",
"249 327 CURVE SMOOTH",
"279 394 OFFCURVE",
"317 465 OFFCURVE",
"354 509 CURVE SMOOTH",
"386 546 OFFCURVE",
"426 585 OFFCURVE",
"463 585 CURVE SMOOTH",
"475 585 OFFCURVE",
"486 581 OFFCURVE",
"497 572 CURVE SMOOTH",
"501 568 OFFCURVE",
"504 567 OFFCURVE",
"507 567 CURVE SMOOTH",
"513 567 OFFCURVE",
"516 575 OFFCURVE",
"516 583 CURVE SMOOTH",
"516 589 OFFCURVE",
"514 596 OFFCURVE",
"511 599 CURVE SMOOTH",
"496 615 OFFCURVE",
"459 623 OFFCURVE",
"422 623 CURVE SMOOTH",
"342 623 OFFCURVE",
"284 596 OFFCURVE",
"227 545 CURVE SMOOTH",
"118 447 OFFCURVE",
"51 268 OFFCURVE",
"59 135 CURVE SMOOTH",
"64 42 OFFCURVE",
"132 1 OFFCURVE",
"206 1 CURVE SMOOTH"
);
},
{
closed = 1;
nodes = (
"392 -208 OFFCURVE",
"422 -163 OFFCURVE",
"422 -123 CURVE SMOOTH",
"422 -110 OFFCURVE",
"419 -97 OFFCURVE",
"412 -87 CURVE",
"400 -104 OFFCURVE",
"384 -113 OFFCURVE",
"367 -113 CURVE SMOOTH",
"360 -113 OFFCURVE",
"353 -111 OFFCURVE",
"346 -108 CURVE SMOOTH",
"274 -71 OFFCURVE",
"213 -5 OFFCURVE",
"129 -5 CURVE SMOOTH",
"89 -5 OFFCURVE",
"61 -23 OFFCURVE",
"57 -53 CURVE SMOOTH",
"57 -56 OFFCURVE",
"58 -60 OFFCURVE",
"63 -56 CURVE SMOOTH",
"70 -50 OFFCURVE",
"78 -48 OFFCURVE",
"87 -48 CURVE SMOOTH",
"111 -48 OFFCURVE",
"139 -64 OFFCURVE",
"149 -71 CURVE SMOOTH",
"173 -89 OFFCURVE",
"228 -157 OFFCURVE",
"281 -189 CURVE SMOOTH",
"303 -203 OFFCURVE",
"324 -208 OFFCURVE",
"342 -208 CURVE SMOOTH"
);
}
);
width = 469;
}
);
note = Q;
unicode = 0051;
},
{
color = 3;
glyphname = R;
lastChange = "2021-08-21 18:45:25 +0000";
layers = (
{
anchors = (
{
name = bottom;
position = "{248, 0}";
},
{
name = top;
position = "{248, 633}";
}
);
hints = (
{
horizontal = 1;
place = "{-15, 21}";
target = up;
type = BottomGhost;
},
{
horizontal = 1;
place = "{294, 10}";
type = Stem;
},
{
horizontal = 1;
place = "{425, -20}";
target = down;
type = TopGhost;
},
{
horizontal = 1;
place = "{608, -20}";
target = down;
type = TopGhost;
},
{
place = "{49, 94}";
type = Stem;
},
{
place = "{244, 11}";
type = Stem;
},
{
place = "{324, 10}";
type = Stem;
},
{
place = "{414, 132}";
type = Stem;
}
);
layerId = "C623C401-2266-4A98-B253-3D45160C29C7";
paths = (
{
closed = 1;
nodes = (
"512 -86 OFFCURVE",
"548 -10 OFFCURVE",
"536 -13 CURVE SMOOTH",
"487 -26 OFFCURVE",
"374 174 OFFCURVE",
"350 223 CURVE",
"472 261 OFFCURVE",
"565 382 OFFCURVE",
"565 478 CURVE SMOOTH",
"565 556 OFFCURVE",
"502 614 OFFCURVE",
"368 614 CURVE SMOOTH",
"171 614 OFFCURVE",
"24 553 OFFCURVE",
"24 452 CURVE SMOOTH",
"24 417 OFFCURVE",
"81 405 OFFCURVE",
"89 404 CURVE",
"112 526 OFFCURVE",
"270 583 OFFCURVE",
"358 583 CURVE SMOOTH",
"425 583 OFFCURVE",
"450 546 OFFCURVE",
"450 496 CURVE SMOOTH",
"450 394 OFFCURVE",
"348 241 OFFCURVE",
"286 241 CURVE SMOOTH",
"275 241 OFFCURVE",
"268 243 OFFCURVE",
"264 247 CURVE",
"299 344 OFFCURVE",
"351 453 OFFCURVE",
"409 526 CURVE SMOOTH",
"415 533 OFFCURVE",
"398 538 OFFCURVE",
"352 538 CURVE SMOOTH",
"310 538 OFFCURVE",
"273 523 OFFCURVE",
"248 484 CURVE SMOOTH",
"228 451 OFFCURVE",
"102 205 OFFCURVE",
"102 70 CURVE SMOOTH",
"102 31 OFFCURVE",
"113 1 OFFCURVE",
"139 -12 CURVE SMOOTH",
"152 -18 OFFCURVE",
"175 -19 OFFCURVE",
"186 -24 CURVE SMOOTH",
"194 -27 OFFCURVE",
"197 -25 OFFCURVE",
"197 -21 CURVE SMOOTH",
"197 -19 OFFCURVE",
"197 -17 OFFCURVE",
"195 -15 CURVE SMOOTH",
"191 -10 OFFCURVE",
"189 -2 OFFCURVE",
"189 9 CURVE SMOOTH",
"189 50 OFFCURVE",
"216 132 OFFCURVE",
"252 219 CURVE",
"255 215 OFFCURVE",
"259 212 OFFCURVE",
"264 209 CURVE",
"274 144 OFFCURVE",
"325 -88 OFFCURVE",
"440 -87 CURVE SMOOTH"
);
}
);
width = 496;
}
);
note = R;
unicode = 0052;
},
{
color = 3;
glyphname = S;
lastChange = "2021-08-21 18:45:25 +0000";
layers = (
{
anchors = (
{
name = bottom;
position = "{221, 0}";
},
{
name = top;
position = "{221, 633}";
}
);
hints = (
{
horizontal = 1;
place = "{-24, 30}";
type = Stem;
},
{
horizontal = 1;
place = "{545, 75}";
type = Stem;
},
{
place = "{20, 78}";
type = Stem;
},
{
place = "{142, 151}";
type = Stem;
},
{
place = "{399, 29}";
type = Stem;
},
{
horizontal = 1;
place = "{545, 45}";
type = Stem;
},
{
place = "{315, 109}";
type = Stem;
}
);
layerId = "C623C401-2266-4A98-B253-3D45160C29C7";
paths = (
{
closed = 1;
nodes = (
"348 -24 OFFCURVE",
"424 29 OFFCURVE",
"424 115 CURVE SMOOTH",
"424 147 OFFCURVE",
"413 184 OFFCURVE",
"389 225 CURVE SMOOTH",
"349 290 OFFCURVE",
"293 357 OFFCURVE",
"293 426 CURVE SMOOTH",
"293 444 OFFCURVE",
"297 463 OFFCURVE",
"306 481 CURVE SMOOTH",
"331 531 OFFCURVE",
"359 545 OFFCURVE",
"382 545 CURVE SMOOTH",
"399 545 OFFCURVE",
"413 538 OFFCURVE",
"421 530 CURVE",
"408 495 OFFCURVE",
"399 446 OFFCURVE",
"399 409 CURVE SMOOTH",
"399 377 OFFCURVE",
"405 354 OFFCURVE",
"420 354 CURVE SMOOTH",
"422 354 OFFCURVE",
"425 355 OFFCURVE",
"428 356 CURVE",
"432 412 OFFCURVE",
"463 470 OFFCURVE",
"492 513 CURVE SMOOTH",
"507 535 OFFCURVE",
"526 557 OFFCURVE",
"553 583 CURVE SMOOTH",
"560 589 OFFCURVE",
"563 595 OFFCURVE",
"563 601 CURVE SMOOTH",
"563 613 OFFCURVE",
"549 621 OFFCURVE",
"529 621 CURVE SMOOTH",
"503 621 OFFCURVE",
"467 607 OFFCURVE",
"440 568 CURVE",
"425 574 LINE SMOOTH",
"391 586 OFFCURVE",
"351 590 OFFCURVE",
"321 590 CURVE SMOOTH",
"221 590 OFFCURVE",
"142 529 OFFCURVE",
"142 422 CURVE SMOOTH",
"142 377 OFFCURVE",
"163 333 OFFCURVE",
"190 292 CURVE SMOOTH",
"241 216 OFFCURVE",
"316 141 OFFCURVE",
"316 64 CURVE SMOOTH",
"316 23 OFFCURVE",
"296 6 OFFCURVE",
"267 6 CURVE SMOOTH",
"220 6 OFFCURVE",
"151 54 OFFCURVE",
"124 134 CURVE SMOOTH",
"109 179 OFFCURVE",
"98 233 OFFCURVE",
"98 270 CURVE SMOOTH",
"98 284 OFFCURVE",
"100 296 OFFCURVE",
"103 304 CURVE",
"42 293 OFFCURVE",
"20 232 OFFCURVE",
"20 171 CURVE SMOOTH",
"20 135 OFFCURVE",
"27 100 OFFCURVE",
"39 75 CURVE SMOOTH",
"74 4 OFFCURVE",
"154 -24 OFFCURVE",
"232 -24 CURVE SMOOTH"
);
}
);
width = 442;
}
);
note = S;
unicode = 0053;
},
{
color = 3;
glyphname = Germandbls;
lastChange = "2021-08-21 18:45:25 +0000";
layers = (
{
background = {
components = (
{
name = B;
}
);
};
hints = (
{
horizontal = 1;
place = "{-164, 45}";
type = Stem;
},
{
horizontal = 1;
place = "{9, 33}";
type = Stem;
},
{
horizontal = 1;
place = "{501, 51}";
type = Stem;
},
{
place = "{410, 64}";
type = Stem;
},
{
place = "{290, 130}";
type = Stem;
}
);
layerId = "C623C401-2266-4A98-B253-3D45160C29C7";
paths = (
{
closed = 1;
nodes = (
"3 -112 OFFCURVE",
"95 -26 OFFCURVE",
"137 34 CURVE SMOOTH",
"184 101 OFFCURVE",
"270 366 OFFCURVE",
"306 441 CURVE SMOOTH",
"340 509 OFFCURVE",
"364 554 OFFCURVE",
"408 554 CURVE SMOOTH",
"428 554 OFFCURVE",
"436 534 OFFCURVE",
"436 506 CURVE SMOOTH",
"436 459 OFFCURVE",
"413 390 OFFCURVE",
"384 358 CURVE SMOOTH",
"349 319 OFFCURVE",
"324 308 OFFCURVE",
"298 303 CURVE SMOOTH",
"290 302 OFFCURVE",
"286 298 OFFCURVE",
"286 295 CURVE SMOOTH",
"286 291 OFFCURVE",
"289 288 OFFCURVE",
"295 285 CURVE SMOOTH",
"333 268 OFFCURVE",
"347 217 OFFCURVE",
"347 172 CURVE SMOOTH",
"347 91 OFFCURVE",
"293 24 OFFCURVE",
"228 24 CURVE SMOOTH",
"214 24 OFFCURVE",
"200 27 OFFCURVE",
"186 34 CURVE SMOOTH",
"178 38 OFFCURVE",
"171 40 OFFCURVE",
"166 40 CURVE SMOOTH",
"159 40 OFFCURVE",
"156 37 OFFCURVE",
"156 32 CURVE SMOOTH",
"156 28 OFFCURVE",
"158 24 OFFCURVE",
"161 19 CURVE SMOOTH",
"181 -13 OFFCURVE",
"243 -10 OFFCURVE",
"275 -10 CURVE SMOOTH",
"390 -10 OFFCURVE",
"454 63 OFFCURVE",
"461 127 CURVE SMOOTH",
"462 136 OFFCURVE",
"462 145 OFFCURVE",
"462 154 CURVE SMOOTH",
"462 207 OFFCURVE",
"444 268 OFFCURVE",
"362 303 CURVE",
"425 309 OFFCURVE",
"542 368 OFFCURVE",
"542 465 CURVE SMOOTH",
"542 578 OFFCURVE",
"446 605 OFFCURVE",
"368 605 CURVE SMOOTH",
"275 605 OFFCURVE",
"219 536 OFFCURVE",
"181 455 CURVE SMOOTH",
"152 394 OFFCURVE",
"100 197 OFFCURVE",
"76 145 CURVE SMOOTH",
"31 49 OFFCURVE",
"-35 -50 OFFCURVE",
"-84 -65 CURVE SMOOTH",
"-92 -68 OFFCURVE",
"-97 -76 OFFCURVE",
"-97 -86 CURVE SMOOTH",
"-97 -98 OFFCURVE",
"-88 -112 OFFCURVE",
"-67 -112 CURVE SMOOTH"
);
}
);
width = 461;
}
);
unicode = 1E9E;
},
{
color = 3;
glyphname = Schwa;
lastChange = "2021-08-21 18:45:25 +0000";
layers = (
{
hints = (
{
horizontal = 1;
place = "{612.751, -51.187}";
type = Stem;
},
{
horizontal = 1;
place = "{44.165, -47.036}";
type = Stem;
},
{
place = "{567.876, -168.777}";
type = Stem;
}
);
layerId = "C623C401-2266-4A98-B253-3D45160C29C7";
paths = (
{
closed = 1;
nodes = (
"370.8 -5.638 OFFCURVE",
"492.187 174.207 OFFCURVE",
"542.171 322.233 CURVE SMOOTH",
"558 367 OFFCURVE",
"566 409 OFFCURVE",
"566 447 CURVE SMOOTH",
"566 547 OFFCURVE",
"507 613 OFFCURVE",
"368 613 CURVE SMOOTH",
"286 613 OFFCURVE",
"222 580 OFFCURVE",
"161 509 CURVE SMOOTH",
"105 448 OFFCURVE",
"61 357 OFFCURVE",
"35 308 CURVE SMOOTH",
"33 304 OFFCURVE",
"31 299 OFFCURVE",
"31 295 CURVE SMOOTH",
"31 287 OFFCURVE",
"37 280 OFFCURVE",
"43 280 CURVE SMOOTH",
"47 280 OFFCURVE",
"52 283 OFFCURVE",
"55.191 290.414 CURVE SMOOTH",
"142 459 OFFCURVE",
"237 559 OFFCURVE",
"354 559 CURVE SMOOTH",
"425 559 OFFCURVE",
"453 526 OFFCURVE",
"453 473 CURVE SMOOTH",
"453 440 OFFCURVE",
"442 399 OFFCURVE",
"425 354 CURVE",
"286 354 OFFCURVE",
"136 267 OFFCURVE",
"90.893 175.59 CURVE SMOOTH",
"74 141 OFFCURVE",
"66 111 OFFCURVE",
"66 87 CURVE SMOOTH",
"66 23 OFFCURVE",
"120 -6 OFFCURVE",
"188 -6 CURVE SMOOTH"
);
},
{
closed = 1;
nodes = (
"180 43 OFFCURVE",
"163 58 OFFCURVE",
"163 85 CURVE SMOOTH",
"163 91 OFFCURVE",
"164 97 OFFCURVE",
"165 103 CURVE SMOOTH",
"188 202 OFFCURVE",
"329 298 OFFCURVE",
"414 329 CURVE",
"399 288 LINE SMOOTH",
"382 242 OFFCURVE",
"354 174 OFFCURVE",
"310 114 CURVE SMOOTH",
"274 65 OFFCURVE",
"233 43 OFFCURVE",
"204 43 CURVE SMOOTH"
);
}
);
width = 566;
}
);
unicode = 018F;
},
{
color = 3;
glyphname = T;
lastChange = "2021-08-21 18:45:25 +0000";
layers = (
{
anchors = (
{
name = bottom;
position = "{194, 0}";
},
{
name = center;
position = "{194, 317}";
},
{
name = top;
position = "{194, 633}";
}
);
hints = (
{
horizontal = 1;
place = "{525, 71}";
type = Stem;
},
{
horizontal = 1;
place = "{525, 89}";
type = Stem;
},
{
place = "{104, 93}";
type = Stem;
}
);
layerId = "C623C401-2266-4A98-B253-3D45160C29C7";
paths = (
{
closed = 1;
nodes = (
"202 -27 OFFCURVE",
"205 -25 OFFCURVE",
"205 -21 CURVE SMOOTH",
"205 -19 OFFCURVE",
"205 -17 OFFCURVE",
"203 -15 CURVE SMOOTH",
"199 -10 OFFCURVE",
"197 -1 OFFCURVE",
"197 11 CURVE SMOOTH",
"197 70 OFFCURVE",
"246 201 OFFCURVE",
"302 317 CURVE SMOOTH",
"344 403 OFFCURVE",
"389 479 OFFCURVE",
"421 529 CURVE",
"502 531 OFFCURVE",
"575 524 OFFCURVE",
"585 508 CURVE SMOOTH",
"588 503 OFFCURVE",
"593 504 OFFCURVE",
"593 510 CURVE SMOOTH",
"593 512 LINE SMOOTH",
"592 520 OFFCURVE",
"595 535 OFFCURVE",
"595 545 CURVE SMOOTH",
"595 600 OFFCURVE",
"479 615 OFFCURVE",
"370 615 CURVE SMOOTH",
"287 615 OFFCURVE",
"208 607 OFFCURVE",
"184 602 CURVE SMOOTH",
"87 583 OFFCURVE",
"53 527 OFFCURVE",
"53 476 CURVE SMOOTH",
"53 423 OFFCURVE",
"88 375 OFFCURVE",
"125 375 CURVE SMOOTH",
"128 375 OFFCURVE",
"131 375 OFFCURVE",
"134 376 CURVE SMOOTH",
"138 377 OFFCURVE",
"143 381 OFFCURVE",
"143 387 CURVE SMOOTH",
"143 391 OFFCURVE",
"141 395 OFFCURVE",
"135 400 CURVE SMOOTH",
"117 414 OFFCURVE",
"110 427 OFFCURVE",
"110 439 CURVE SMOOTH",
"110 481 OFFCURVE",
"207 505 OFFCURVE",
"274 516 CURVE",
"236 451 OFFCURVE",
"104 201 OFFCURVE",
"104 68 CURVE SMOOTH",
"104 28 OFFCURVE",
"117 -2 OFFCURVE",
"147 -12 CURVE SMOOTH",
"161 -16 OFFCURVE",
"183 -19 OFFCURVE",
"194 -24 CURVE SMOOTH"
);
}
);
width = 387;
}
);
note = T;
unicode = 0054;
},
{
color = 3;
glyphname = U;
lastChange = "2021-08-21 18:45:25 +0000";
layers = (
{
anchors = (
{
name = bottom;
position = "{294, 0}";
},
{
name = ogonek;
position = "{528, 10}";
},
{
name = top;
position = "{294, 633}";
},
{
name = topright;
position = "{567, 633}";
}
);
hints = (
{
horizontal = 1;
place = "{-14, 21}";
target = up;
type = BottomGhost;
},
{
horizontal = 1;
place = "{601, -20}";
target = down;
type = TopGhost;
},
{
place = "{63, 124}";
type = Stem;
},
{
place = "{317, 118}";
type = Stem;
},
{
horizontal = 1;
place = "{596, -20}";
target = down;
type = TopGhost;
}
);
layerId = "C623C401-2266-4A98-B253-3D45160C29C7";
paths = (
{
closed = 1;
nodes = (
"491 -23 OFFCURVE",
"508 -20 OFFCURVE",
"528 -13 CURVE",
"523 -7 OFFCURVE",
"521 4 OFFCURVE",
"521 20 CURVE SMOOTH",
"521 80 OFFCURVE",
"555 204 OFFCURVE",
"607 314 CURVE SMOOTH",
"646 396 OFFCURVE",
"697 505 OFFCURVE",
"750 578 CURVE SMOOTH",
"758 589 OFFCURVE",
"738 598 OFFCURVE",
"692 597 CURVE SMOOTH",
"627 594 OFFCURVE",
"612 586 OFFCURVE",
"575 523 CURVE SMOOTH",
"567 510 OFFCURVE",
"552 479 OFFCURVE",
"530 440 CURVE SMOOTH",
"482 355 OFFCURVE",
"391 202 OFFCURVE",
"362 161 CURVE SMOOTH",
"337 127 OFFCURVE",
"295 83 OFFCURVE",
"275 83 CURVE SMOOTH",
"269 83 OFFCURVE",
"265 88 OFFCURVE",
"265 100 CURVE SMOOTH",
"265 105 OFFCURVE",
"266 113 OFFCURVE",
"268 122 CURVE SMOOTH",
"298 254 OFFCURVE",
"389 384 OFFCURVE",
"472 491 CURVE SMOOTH",
"493 517 OFFCURVE",
"509 544 OFFCURVE",
"509 565 CURVE SMOOTH",
"509 569 OFFCURVE",
"508 573 OFFCURVE",
"507 576 CURVE SMOOTH",
"501 596 OFFCURVE",
"485 622 OFFCURVE",
"462 627 CURVE SMOOTH",
"390 641 OFFCURVE",
"193 499 OFFCURVE",
"128 499 CURVE SMOOTH",
"114 499 OFFCURVE",
"104 503 OFFCURVE",
"104 513 CURVE SMOOTH",
"104 516 OFFCURVE",
"105 519 OFFCURVE",
"107 523 CURVE SMOOTH",
"109 527 OFFCURVE",
"110 531 OFFCURVE",
"110 533 CURVE SMOOTH",
"110 537 OFFCURVE",
"108 539 OFFCURVE",
"104 539 CURVE SMOOTH",
"97 539 OFFCURVE",
"86 533 OFFCURVE",
"79 523 CURVE SMOOTH",
"53 483 OFFCURVE",
"33 438 OFFCURVE",
"33 408 CURVE SMOOTH",
"33 393 OFFCURVE",
"37 382 OFFCURVE",
"49 378 CURVE SMOOTH",
"59 374 OFFCURVE",
"69 373 OFFCURVE",
"79 373 CURVE SMOOTH",
"176 373 OFFCURVE",
"288 532 OFFCURVE",
"345 553 CURVE SMOOTH",
"351 555 OFFCURVE",
"354 552 OFFCURVE",
"354 547 CURVE SMOOTH",
"354 527 OFFCURVE",
"322 470 OFFCURVE",
"316 460 CURVE SMOOTH",
"232 327 OFFCURVE",
"160 199 OFFCURVE",
"143 125 CURVE SMOOTH",
"140 110 OFFCURVE",
"138 96 OFFCURVE",
"138 84 CURVE SMOOTH",
"138 35 OFFCURVE",
"163 5 OFFCURVE",
"204 -9 CURVE SMOOTH",
"213 -12 OFFCURVE",
"221 -14 OFFCURVE",
"230 -14 CURVE SMOOTH",
"271 -14 OFFCURVE",
"309 20 OFFCURVE",
"337 64 CURVE SMOOTH",
"354 91 OFFCURVE",
"397 161 OFFCURVE",
"439 232 CURVE",
"428 201 OFFCURVE",
"419 170 OFFCURVE",
"412 140 CURVE SMOOTH",
"406 115 OFFCURVE",
"403 91 OFFCURVE",
"403 71 CURVE SMOOTH",
"403 15 OFFCURVE",
"425 -23 OFFCURVE",
"476 -23 CURVE SMOOTH"
);
}
);
width = 587;
}
);
note = U;
unicode = 0055;
},
{
color = 3;
glyphname = V;
lastChange = "2021-08-21 18:45:25 +0000";
layers = (
{
hints = (
{
horizontal = 1;
place = "{-14, 45}";
type = Stem;
},
{
horizontal = 1;
place = "{570, 41}";
type = Stem;
},
{
place = "{16, 55}";
type = Stem;
},
{
place = "{259, 114}";
type = Stem;
},
{
place = "{464, 115}";
type = Stem;
},
{
place = "{97, 115}";
type = Stem;
},
{
horizontal = 1;
place = "{558, 11}";
type = Stem;
}
);
layerId = "C623C401-2266-4A98-B253-3D45160C29C7";
paths = (
{
closed = 1;
nodes = (
"345 -14 OFFCURVE",
"514 246 OFFCURVE",
"555 363 CURVE SMOOTH",
"566 393 OFFCURVE",
"579 428 OFFCURVE",
"579 460 CURVE SMOOTH",
"579 490 OFFCURVE",
"567 518 OFFCURVE",
"533 539 CURVE SMOOTH",
"500 559 OFFCURVE",
"459 569 OFFCURVE",
"441 569 CURVE SMOOTH",
"434 569 OFFCURVE",
"429 566 OFFCURVE",
"429 562 CURVE SMOOTH",
"429 560 OFFCURVE",
"432 558 OFFCURVE",
"438 558 CURVE SMOOTH",
"452 557 OFFCURVE",
"464 513 OFFCURVE",
"464 481 CURVE SMOOTH",
"464 398 OFFCURVE",
"313 31 OFFCURVE",
"231 31 CURVE SMOOTH",
"217 31 OFFCURVE",
"212 45 OFFCURVE",
"212 66 CURVE SMOOTH",
"212 180 OFFCURVE",
"328 381 OFFCURVE",
"368 498 CURVE SMOOTH",
"371 507 OFFCURVE",
"373 516 OFFCURVE",
"373 525 CURVE SMOOTH",
"373 573 OFFCURVE",
"325 611 OFFCURVE",
"244 611 CURVE SMOOTH",
"211 611 OFFCURVE",
"152 583 OFFCURVE",
"110 541 CURVE SMOOTH",
"56 486 OFFCURVE",
"16 401 OFFCURVE",
"16 336 CURVE SMOOTH",
"16 304 OFFCURVE",
"25 278 OFFCURVE",
"47 261 CURVE SMOOTH",
"56 254 OFFCURVE",
"64 251 OFFCURVE",
"69 251 CURVE SMOOTH",
"75 251 OFFCURVE",
"78 254 OFFCURVE",
"78 259 CURVE SMOOTH",
"78 262 OFFCURVE",
"78 265 OFFCURVE",
"76 268 CURVE SMOOTH",
"72 276 OFFCURVE",
"70 286 OFFCURVE",
"70 297 CURVE SMOOTH",
"70 346 OFFCURVE",
"103 423 OFFCURVE",
"163 507 CURVE SMOOTH",
"191 547 OFFCURVE",
"225 570 OFFCURVE",
"241 570 CURVE SMOOTH",
"253 570 OFFCURVE",
"259 562 OFFCURVE",
"259 548 CURVE SMOOTH",
"259 538 OFFCURVE",
"256 526 OFFCURVE",
"250 512 CURVE SMOOTH",
"208 412 OFFCURVE",
"97 247 OFFCURVE",
"97 90 CURVE SMOOTH",
"97 24 OFFCURVE",
"132 -14 OFFCURVE",
"199 -14 CURVE SMOOTH"
);
}
);
width = 499;
}
);
note = V;
unicode = 0056;
},
{
color = 3;
glyphname = W;
lastChange = "2021-08-21 18:45:25 +0000";
layers = (
{
anchors = (
{
name = bottom;
position = "{368, 0}";
},
{
name = top;
position = "{368, 633}";
}
);
hints = (
{
horizontal = 1;
place = "{-9, 87}";
type = Stem;
},
{
horizontal = 1;
place = "{590, 12}";
type = Stem;
},
{
place = "{85, 123}";
type = Stem;
},
{
place = "{352, 98}";
type = Stem;
},
{
place = "{709, 132}";
type = Stem;
},
{
horizontal = 1;
place = "{-14, 41}";
type = Stem;
}
);
layerId = "C623C401-2266-4A98-B253-3D45160C29C7";
paths = (
{
closed = 1;
nodes = (
"263 -14 OFFCURVE",
"317 41 OFFCURVE",
"362 115 CURVE",
"363 33 OFFCURVE",
"406 -13 OFFCURVE",
"482 -13 CURVE SMOOTH",
"618 -13 OFFCURVE",
"760 211 OFFCURVE",
"822 373 CURVE SMOOTH",
"838 414 OFFCURVE",
"852 466 OFFCURVE",
"852 510 CURVE SMOOTH",
"852 563 OFFCURVE",
"831 606 OFFCURVE",
"769 606 CURVE SMOOTH",
"758 606 OFFCURVE",
"747 605 OFFCURVE",
"734 602 CURVE SMOOTH",
"725 601 OFFCURVE",
"719 594 OFFCURVE",
"719 590 CURVE SMOOTH",
"719 586 OFFCURVE",
"722 584 OFFCURVE",
"727 584 CURVE SMOOTH",
"739 584 OFFCURVE",
"744 571 OFFCURVE",
"744 550 CURVE SMOOTH",
"744 473 OFFCURVE",
"676 286 OFFCURVE",
"652 236 CURVE SMOOTH",
"600 127 OFFCURVE",
"537 28 OFFCURVE",
"489 28 CURVE SMOOTH",
"475 28 OFFCURVE",
"469 44 OFFCURVE",
"469 70 CURVE SMOOTH",
"469 163 OFFCURVE",
"550 393 OFFCURVE",
"644 517 CURVE SMOOTH",
"651 525 OFFCURVE",
"626 532 OFFCURVE",
"590 530 CURVE SMOOTH",
"538 529 OFFCURVE",
"522 538 OFFCURVE",
"487 486 CURVE SMOOTH",
"469 459 OFFCURVE",
"436 383 OFFCURVE",
"401 286 CURVE",
"335 146 OFFCURVE",
"273 31 OFFCURVE",
"231 31 CURVE SMOOTH",
"217 31 OFFCURVE",
"212 45 OFFCURVE",
"212 66 CURVE SMOOTH",
"212 180 OFFCURVE",
"328 381 OFFCURVE",
"368 498 CURVE SMOOTH",
"371 507 OFFCURVE",
"373 517 OFFCURVE",
"373 525 CURVE SMOOTH",
"373 573 OFFCURVE",
"326 611 OFFCURVE",
"244 611 CURVE SMOOTH",
"211 611 OFFCURVE",
"152 583 OFFCURVE",
"110 541 CURVE SMOOTH",
"56 486 OFFCURVE",
"16 401 OFFCURVE",
"16 336 CURVE SMOOTH",
"16 304 OFFCURVE",
"25 278 OFFCURVE",
"47 261 CURVE SMOOTH",
"56 254 OFFCURVE",
"64 251 OFFCURVE",
"69 251 CURVE SMOOTH",
"75 251 OFFCURVE",
"78 254 OFFCURVE",
"78 259 CURVE SMOOTH",
"78 262 OFFCURVE",
"78 265 OFFCURVE",
"76 268 CURVE SMOOTH",
"72 276 OFFCURVE",
"70 286 OFFCURVE",
"70 297 CURVE SMOOTH",
"70 346 OFFCURVE",
"103 423 OFFCURVE",
"163 507 CURVE SMOOTH",
"191 547 OFFCURVE",
"226 570 OFFCURVE",
"242 570 CURVE SMOOTH",
"253 570 OFFCURVE",
"259 562 OFFCURVE",
"259 549 CURVE SMOOTH",
"259 539 OFFCURVE",
"256 526 OFFCURVE",
"250 512 CURVE SMOOTH",
"208 412 OFFCURVE",
"97 247 OFFCURVE",
"97 90 CURVE SMOOTH",
"97 24 OFFCURVE",
"132 -14 OFFCURVE",
"199 -14 CURVE SMOOTH"
);
}
);
width = 736;
}
);
note = W;
unicode = 0057;
},
{
color = 3;
glyphname = X;
lastChange = "2021-08-21 18:45:25 +0000";
layers = (
{
hints = (
{
horizontal = 1;
place = "{-11, 21}";
target = up;
type = BottomGhost;
},
{
horizontal = 1;
place = "{237, 39}";
type = Stem;
},
{
place = "{209, 126}";
type = Stem;
},
{
horizontal = 1;
place = "{-3, 95}";
type = Stem;
}
);
layerId = "C623C401-2266-4A98-B253-3D45160C29C7";
paths = (
{
closed = 1;
nodes = (
"22 -10 OFFCURVE",
"29 -10 OFFCURVE",
"35 -8 CURVE SMOOTH",
"62 0 OFFCURVE",
"156 113 OFFCURVE",
"213 192 CURVE",
"224 80 OFFCURVE",
"256 -3 OFFCURVE",
"325 -3 CURVE SMOOTH",
"373 -3 OFFCURVE",
"413 41 OFFCURVE",
"445 85 CURVE SMOOTH",
"463 110 OFFCURVE",
"469 126 OFFCURVE",
"469 134 CURVE SMOOTH",
"469 138 OFFCURVE",
"467 140 OFFCURVE",
"464 140 CURVE SMOOTH",
"459 140 OFFCURVE",
"452 135 OFFCURVE",
"446 127 CURVE SMOOTH",
"427 102 OFFCURVE",
"411 92 OFFCURVE",
"397 92 CURVE SMOOTH",
"379 92 OFFCURVE",
"366 109 OFFCURVE",
"356 132 CURVE SMOOTH",
"343 164 OFFCURVE",
"337 220 OFFCURVE",
"336 280 CURVE",
"443 393 OFFCURVE",
"537 501 OFFCURVE",
"559 560 CURVE SMOOTH",
"561 566 OFFCURVE",
"562 572 OFFCURVE",
"562 578 CURVE SMOOTH",
"562 604 OFFCURVE",
"541 623 OFFCURVE",
"527 623 CURVE SMOOTH",
"522 623 OFFCURVE",
"518 621 OFFCURVE",
"516 616 CURVE SMOOTH",
"480 526 OFFCURVE",
"401 411 OFFCURVE",
"336 333 CURVE",
"337 400 OFFCURVE",
"342 463 OFFCURVE",
"346 494 CURVE SMOOTH",
"347 505 OFFCURVE",
"351 522 OFFCURVE",
"351 538 CURVE SMOOTH",
"351 558 OFFCURVE",
"346 576 OFFCURVE",
"324 576 CURVE SMOOTH",
"304 576 OFFCURVE",
"272 558 OFFCURVE",
"223 514 CURVE",
"202 454 OFFCURVE",
"166 339 OFFCURVE",
"64 264 CURVE SMOOTH",
"59 261 OFFCURVE",
"57 257 OFFCURVE",
"57 253 CURVE SMOOTH",
"57 245 OFFCURVE",
"64 239 OFFCURVE",
"73 239 CURVE SMOOTH",
"77 239 OFFCURVE",
"81 240 OFFCURVE",
"85 243 CURVE SMOOTH",
"141 280 OFFCURVE",
"181 319 OFFCURVE",
"210 360 CURVE",
"209 332 OFFCURVE",
"209 305 OFFCURVE",
"209 279 CURVE SMOOTH",
"209 247 LINE",
"134 149 OFFCURVE",
"19 43 OFFCURVE",
"-18 20 CURVE SMOOTH",
"-26 15 OFFCURVE",
"-29 11 OFFCURVE",
"-29 7 CURVE SMOOTH",
"-29 -4 OFFCURVE",
"-6 -10 OFFCURVE",
"15 -10 CURVE SMOOTH"
);
}
);
width = 453;
}
);
note = X;
unicode = 0058;
},
{
color = 3;
glyphname = Y;
lastChange = "2021-08-21 18:45:25 +0000";
layers = (
{
anchors = (
{
name = bottom;
position = "{303, 0}";
},
{
name = top;
position = "{303, 633}";
},
{
name = topleft;
position = "{20, 633}";
}
);
hints = (
{
horizontal = 1;
place = "{601, -20}";
target = down;
type = TopGhost;
},
{
place = "{44, 124}";
type = Stem;
},
{
place = "{225, 89}";
type = Stem;
},
{
horizontal = 1;
place = "{596, -20}";
target = down;
type = TopGhost;
}
);
layerId = "C623C401-2266-4A98-B253-3D45160C29C7";
paths = (
{
closed = 1;
nodes = (
"407 -206 OFFCURVE",
"484 -50 OFFCURVE",
"536 68 CURVE SMOOTH",
"563 130 OFFCURVE",
"727 559 OFFCURVE",
"770 581 CURVE SMOOTH",
"776 584 OFFCURVE",
"779 588 OFFCURVE",
"779 591 CURVE SMOOTH",
"779 594 OFFCURVE",
"776 596 OFFCURVE",
"771 596 CURVE SMOOTH",
"662 596 LINE SMOOTH",
"623 596 OFFCURVE",
"614 560 OFFCURVE",
"593 506 CURVE SMOOTH",
"560 418 OFFCURVE",
"384 127 OFFCURVE",
"338 93 CURVE SMOOTH",
"327 85 OFFCURVE",
"315 78 OFFCURVE",
"306 78 CURVE SMOOTH",
"298 78 OFFCURVE",
"292 83 OFFCURVE",
"292 97 CURVE SMOOTH",
"292 107 OFFCURVE",
"295 121 OFFCURVE",
"302 141 CURVE SMOOTH",
"317 184 OFFCURVE",
"344 243 OFFCURVE",
"371 302 CURVE SMOOTH",
"390 346 OFFCURVE",
"450 450 OFFCURVE",
"483 504 CURVE SMOOTH",
"498 530 OFFCURVE",
"508 548 OFFCURVE",
"508 566 CURVE SMOOTH",
"508 576 OFFCURVE",
"505 587 OFFCURVE",
"497 599 CURVE SMOOTH",
"488 612 OFFCURVE",
"476 624 OFFCURVE",
"463 627 CURVE SMOOTH",
"390 641 OFFCURVE",
"197 499 OFFCURVE",
"126 499 CURVE SMOOTH",
"115 499 OFFCURVE",
"104 502 OFFCURVE",
"104 511 CURVE SMOOTH",
"104 514 OFFCURVE",
"106 518 OFFCURVE",
"108 523 CURVE SMOOTH",
"110 526 OFFCURVE",
"111 529 OFFCURVE",
"111 531 CURVE SMOOTH",
"111 536 OFFCURVE",
"108 538 OFFCURVE",
"103 538 CURVE SMOOTH",
"97 538 OFFCURVE",
"87 534 OFFCURVE",
"80 523 CURVE SMOOTH",
"53 484 OFFCURVE",
"33 438 OFFCURVE",
"33 408 CURVE SMOOTH",
"33 393 OFFCURVE",
"38 382 OFFCURVE",
"50 378 CURVE SMOOTH",
"60 374 OFFCURVE",
"70 373 OFFCURVE",
"80 373 CURVE SMOOTH",
"177 373 OFFCURVE",
"289 532 OFFCURVE",
"346 553 CURVE SMOOTH",
"351 555 OFFCURVE",
"353 552 OFFCURVE",
"353 547 CURVE SMOOTH",
"353 507 OFFCURVE",
"244 303 OFFCURVE",
"198 201 CURVE SMOOTH",
"178 155 OFFCURVE",
"167 115 OFFCURVE",
"167 82 CURVE SMOOTH",
"167 30 OFFCURVE",
"194 -2 OFFCURVE",
"246 -12 CURVE SMOOTH",
"250 -13 OFFCURVE",
"254 -13 OFFCURVE",
"259 -13 CURVE SMOOTH",
"311 -13 OFFCURVE",
"358 48 OFFCURVE",
"399 119 CURVE SMOOTH",
"412 143 OFFCURVE",
"453 203 OFFCURVE",
"493 262 CURVE",
"478 229 OFFCURVE",
"463 196 OFFCURVE",
"447 163 CURVE SMOOTH",
"409 79 OFFCURVE",
"338 -168 OFFCURVE",
"223 -168 CURVE SMOOTH",
"211 -168 OFFCURVE",
"199 -165 OFFCURVE",
"187 -160 CURVE SMOOTH",
"184 -159 OFFCURVE",
"181 -158 OFFCURVE",
"178 -158 CURVE SMOOTH",
"170 -158 OFFCURVE",
"166 -163 OFFCURVE",
"166 -169 CURVE SMOOTH",
"166 -173 OFFCURVE",
"168 -178 OFFCURVE",
"173 -182 CURVE SMOOTH",
"199 -203 OFFCURVE",
"227 -206 OFFCURVE",
"253 -206 CURVE SMOOTH"
);
}
);
width = 606;
}
);
note = Y;
unicode = 0059;
},
{
color = 3;
glyphname = Z;
lastChange = "2021-08-21 18:45:25 +0000";
layers = (
{
anchors = (
{
name = bottom;
position = "{199, 0}";
},
{
name = center;
position = "{199, 317}";
},
{
name = top;
position = "{199, 633}";
}
);
hints = (
{
horizontal = 1;
place = "{-19, 102}";
type = Stem;
},
{
horizontal = 1;
place = "{-12, 21}";
target = up;
type = BottomGhost;
},
{
horizontal = 1;
place = "{247, 92}";
type = Stem;
},
{
horizontal = 1;
place = "{485, 95}";
type = Stem;
},
{
horizontal = 1;
place = "{601, -20}";
target = down;
type = TopGhost;
},
{
place = "{494, 23}";
type = Stem;
}
);
layerId = "C623C401-2266-4A98-B253-3D45160C29C7";
paths = (
{
closed = 1;
nodes = (
"280 -153 OFFCURVE",
"409 31 OFFCURVE",
"409 156 CURVE SMOOTH",
"409 236 OFFCURVE",
"362 262 OFFCURVE",
"304 262 CURVE SMOOTH",
"285 262 OFFCURVE",
"264 259 OFFCURVE",
"243 254 CURVE",
"294 319 OFFCURVE",
"470 446 OFFCURVE",
"504 507 CURVE SMOOTH",
"516 528 OFFCURVE",
"524 555 OFFCURVE",
"524 590 CURVE SMOOTH",
"524 598 OFFCURVE",
"519 601 OFFCURVE",
"514 601 CURVE SMOOTH",
"508 601 OFFCURVE",
"503 598 OFFCURVE",
"501 591 CURVE SMOOTH",
"498 578 OFFCURVE",
"479 565 OFFCURVE",
"459 559 CURVE SMOOTH",
"448 555 OFFCURVE",
"433 553 OFFCURVE",
"412 553 CURVE SMOOTH",
"358 554 OFFCURVE",
"289 582 OFFCURVE",
"270 582 CURVE SMOOTH",
"236 582 OFFCURVE",
"202 547 OFFCURVE",
"181 517 CURVE SMOOTH",
"161 489 OFFCURVE",
"126 444 OFFCURVE",
"126 418 CURVE SMOOTH",
"126 411 OFFCURVE",
"130 408 OFFCURVE",
"134 408 CURVE SMOOTH",
"138 408 OFFCURVE",
"143 411 OFFCURVE",
"145 414 CURVE SMOOTH",
"172 463 OFFCURVE",
"233 472 OFFCURVE",
"263 469 CURVE SMOOTH",
"297 465 OFFCURVE",
"333 455 OFFCURVE",
"356 444 CURVE",
"312 384 OFFCURVE",
"171 236 OFFCURVE",
"170 221 CURVE SMOOTH",
"169 208 OFFCURVE",
"193 191 OFFCURVE",
"209 191 CURVE SMOOTH",
"212 191 OFFCURVE",
"215 192 OFFCURVE",
"217 193 CURVE SMOOTH",
"230 202 OFFCURVE",
"255 228 OFFCURVE",
"271 228 CURVE SMOOTH",
"282 228 OFFCURVE",
"288 217 OFFCURVE",
"286 184 CURVE SMOOTH",
"280 98 OFFCURVE",
"149 -105 OFFCURVE",
"46 -107 CURVE SMOOTH",
"25 -108 OFFCURVE",
"16 -99 OFFCURVE",
"16 -85 CURVE SMOOTH",
"16 -44 OFFCURVE",
"95 44 OFFCURVE",
"156 74 CURVE SMOOTH",
"170 80 OFFCURVE",
"179 90 OFFCURVE",
"179 97 CURVE SMOOTH",
"179 101 OFFCURVE",
"176 103 OFFCURVE",
"170 103 CURVE SMOOTH",
"167 103 OFFCURVE",
"163 102 OFFCURVE",
"158 101 CURVE SMOOTH",
"117 91 OFFCURVE",
"53 51 OFFCURVE",
"22 23 CURVE SMOOTH",
"-11 -6 OFFCURVE",
"-31 -38 OFFCURVE",
"-31 -67 CURVE SMOOTH",
"-31 -83 OFFCURVE",
"-25 -98 OFFCURVE",
"-13 -111 CURVE SMOOTH",
"9 -135 OFFCURVE",
"45 -153 OFFCURVE",
"90 -153 CURVE SMOOTH"
);
}
);
width = 398;
}
);
note = Z;
unicode = 005A;
},
{
glyphname = A.001;
lastChange = "2021-08-21 18:45:25 +0000";
layers = (
{
hints = (
{
horizontal = 1;
place = "{-18, 21}";
target = up;
type = BottomGhost;
},
{
horizontal = 1;
place = "{-4, 21}";
target = up;
type = BottomGhost;
},
{
horizontal = 1;
place = "{232, 36}";
type = Stem;
},
{
horizontal = 1;
place = "{547, 24}";
type = Stem;
},
{
place = "{358, 89}";
type = Stem;
}
);
layerId = "C623C401-2266-4A98-B253-3D45160C29C7";
paths = (
{
closed = 1;
nodes = (
"459 -60 OFFCURVE",
"576 92 OFFCURVE",
"692 248 CURVE",
"780 248 LINE",
"760 192 OFFCURVE",
"682 -25 OFFCURVE",
"815 -25 CURVE SMOOTH",
"830 -25 OFFCURVE",
"847 -23 OFFCURVE",
"867 -17 CURVE SMOOTH",
"888 -11 OFFCURVE",
"892 7 OFFCURVE",
"876 4 CURVE SMOOTH",
"857 0 OFFCURVE",
"856 42 OFFCURVE",
"866 87 CURVE SMOOTH",
"877 133 OFFCURVE",
"895 192 OFFCURVE",
"918 254 CURVE",
"933 257 LINE",
"940 257 OFFCURVE",
"974 277 OFFCURVE",
"937 276 CURVE",
"935 275 OFFCURVE",
"931 275 OFFCURVE",
"926 275 CURVE",
"982 425 OFFCURVE",
"1057 584 OFFCURVE",
"1092 616 CURVE",
"1096 621 OFFCURVE",
"1083 625 OFFCURVE",
"1081 626 CURVE",
"1061 630 OFFCURVE",
"979 629 OFFCURVE",
"942 610 CURVE SMOOTH",
"840 555 OFFCURVE",
"767 409 OFFCURVE",
"677 279 CURVE",
"618 279 LINE SMOOTH",
"597 279 OFFCURVE",
"586 248 OFFCURVE",
"607 248 CURVE SMOOTH",
"655 248 LINE",
"575 138 OFFCURVE",
"489 64 OFFCURVE",
"350 60 CURVE SMOOTH",
"217 55 OFFCURVE",
"175 139 OFFCURVE",
"190 254 CURVE SMOOTH",
"208 390 OFFCURVE",
"348 507 OFFCURVE",
"466 511 CURVE SMOOTH",
"669 518 OFFCURVE",
"510 247 OFFCURVE",
"358 242 CURVE SMOOTH",
"334 241 OFFCURVE",
"329 251 OFFCURVE",
"326 258 CURVE SMOOTH",
"325 260 OFFCURVE",
"320 260 OFFCURVE",
"318 255 CURVE",
"314 227 OFFCURVE",
"340 217 OFFCURVE",
"385 219 CURVE SMOOTH",
"631 227 OFFCURVE",
"729 550 OFFCURVE",
"440 540 CURVE SMOOTH",
"252 534 OFFCURVE",
"31 380 OFFCURVE",
"3 165 CURVE SMOOTH",
"-19 -1 OFFCURVE",
"104 -72 OFFCURVE",
"241 -67 CURVE SMOOTH"
);
},
{
closed = 1;
nodes = (
"760 355 OFFCURVE",
"838 473 OFFCURVE",
"885 519 CURVE",
"860 463 OFFCURVE",
"818 364 OFFCURVE",
"790 279 CURVE",
"713 279 LINE"
);
}
);
width = 955;
}
);
note = A;
},
{
glyphname = AE.001;
lastChange = "2021-08-21 18:45:25 +0000";
layers = (
{
hints = (
{
horizontal = 1;
place = "{-5, 21}";
target = up;
type = BottomGhost;
},
{
horizontal = 1;
place = "{612, -20}";
target = down;
type = TopGhost;
},
{
place = "{340, 95}";
type = Stem;
}
);
layerId = "C623C401-2266-4A98-B253-3D45160C29C7";
paths = (
{
closed = 1;
nodes = (
"1159 606 OFFCURVE",
"1099 590 OFFCURVE",
"1052 558 CURVE",
"1068 586 OFFCURVE",
"1082 607 OFFCURVE",
"1092 616 CURVE",
"1096 621 OFFCURVE",
"1083 625 OFFCURVE",
"1081 626 CURVE",
"1061 630 OFFCURVE",
"979 629 OFFCURVE",
"942 610 CURVE SMOOTH",
"840 555 OFFCURVE",
"767 409 OFFCURVE",
"677 279 CURVE",
"618 279 LINE SMOOTH",
"597 279 OFFCURVE",
"586 248 OFFCURVE",
"607 248 CURVE SMOOTH",
"655 248 LINE",
"575 138 OFFCURVE",
"489 64 OFFCURVE",
"350 60 CURVE SMOOTH",
"217 55 OFFCURVE",
"175 139 OFFCURVE",
"190 254 CURVE SMOOTH",
"208 390 OFFCURVE",
"348 507 OFFCURVE",
"466 511 CURVE SMOOTH",
"669 518 OFFCURVE",
"510 247 OFFCURVE",
"358 242 CURVE SMOOTH",
"334 241 OFFCURVE",
"329 251 OFFCURVE",
"326 258 CURVE SMOOTH",
"325 260 OFFCURVE",
"320 260 OFFCURVE",
"318 255 CURVE",
"314 227 OFFCURVE",
"340 217 OFFCURVE",
"385 219 CURVE SMOOTH",
"631 227 OFFCURVE",
"729 550 OFFCURVE",
"440 540 CURVE SMOOTH",
"252 534 OFFCURVE",
"31 380 OFFCURVE",
"3 165 CURVE SMOOTH",
"-19 -1 OFFCURVE",
"104 -72 OFFCURVE",
"241 -67 CURVE SMOOTH",
"459 -60 OFFCURVE",
"576 92 OFFCURVE",
"692 248 CURVE",
"780 248 LINE",
"770 220 OFFCURVE",
"748 159 OFFCURVE",
"748 99 CURVE SMOOTH",
"748 97 LINE SMOOTH",
"748 -13 OFFCURVE",
"839 -58 OFFCURVE",
"920 -58 CURVE SMOOTH",
"1194 -58 OFFCURVE",
"1376 296 OFFCURVE",
"1198 296 CURVE SMOOTH",
"1136 296 OFFCURVE",
"1050 233 OFFCURVE",
"1020 140 CURVE SMOOTH",
"1014 119 OFFCURVE",
"1037 121 OFFCURVE",
"1044 135 CURVE SMOOTH",
"1083 222 OFFCURVE",
"1141 267 OFFCURVE",
"1180 267 CURVE SMOOTH",
"1259 267 OFFCURVE",
"1196 42 OFFCURVE",
"1023 42 CURVE SMOOTH",
"964 42 OFFCURVE",
"914 73 OFFCURVE",
"914 149 CURVE SMOOTH",
"914 236 OFFCURVE",
"990 323 OFFCURVE",
"1072 341 CURVE",
"1080 337 OFFCURVE",
"1099 324 OFFCURVE",
"1119 324 CURVE SMOOTH",
"1145 324 OFFCURVE",
"1161 336 OFFCURVE",
"1161 348 CURVE SMOOTH",
"1161 355 OFFCURVE",
"1154 361 OFFCURVE",
"1136 361 CURVE SMOOTH",
"1123 361 OFFCURVE",
"1103 356 OFFCURVE",
"1087 351 CURVE",
"1082 356 OFFCURVE",
"1081 376 OFFCURVE",
"1084 387 CURVE",
"1371 372 OFFCURVE",
"1429 606 OFFCURVE",
"1214 606 CURVE SMOOTH"
);
},
{
closed = 1;
nodes = (
"1362 543 OFFCURVE",
"1294 399 OFFCURVE",
"1092 409 CURVE",
"1123 483 OFFCURVE",
"1197 543 OFFCURVE",
"1270 543 CURVE SMOOTH"
);
},
{
closed = 1;
nodes = (
"760 355 OFFCURVE",
"838 473 OFFCURVE",
"885 519 CURVE",
"860 463 OFFCURVE",
"818 364 OFFCURVE",
"790 279 CURVE",
"713 279 LINE"
);
},
{
closed = 1;
nodes = (
"960 368 OFFCURVE",
"986 416 OFFCURVE",
"1014 478 CURVE",
"1007 425 OFFCURVE",
"1012 357 OFFCURVE",
"1040 350 CURVE",
"1010 350 OFFCURVE",
"963 309 OFFCURVE",
"933 301 CURVE"
);
}
);
width = 1254;
}
);
note = AE;
},
{
glyphname = B.001;
lastChange = "2021-08-21 18:45:25 +0000";
layers = (
{
hints = (
{
horizontal = 1;
place = "{-6, 36}";
type = Stem;
},
{
horizontal = 1;
place = "{572, 29}";
type = Stem;
},
{
place = "{-69, 34}";
type = Stem;
},
{
place = "{-6, 88}";
type = Stem;
},
{
place = "{186, 200}";
type = Stem;
},
{
place = "{362, 110}";
type = Stem;
}
);
layerId = "C623C401-2266-4A98-B253-3D45160C29C7";
paths = (
{
closed = 1;
nodes = (
"306 -182 OFFCURVE",
"778 -93 OFFCURVE",
"778 173 CURVE SMOOTH",
"778 233 OFFCURVE",
"737 299 OFFCURVE",
"660 307 CURVE",
"746 307 OFFCURVE",
"839 383 OFFCURVE",
"839 473 CURVE SMOOTH",
"839 517 OFFCURVE",
"818 562 OFFCURVE",
"767 593 CURVE SMOOTH",
"699 635 OFFCURVE",
"596 644 OFFCURVE",
"514 644 CURVE SMOOTH",
"336 644 OFFCURVE",
"0 563 OFFCURVE",
"0 343 CURVE SMOOTH",
"0 271 OFFCURVE",
"52 238 OFFCURVE",
"113 238 CURVE SMOOTH",
"240 238 OFFCURVE",
"347 353 OFFCURVE",
"382 462 CURVE SMOOTH",
"389 483 OFFCURVE",
"374 507 OFFCURVE",
"363 481 CURVE SMOOTH",
"340 421 OFFCURVE",
"286 344 OFFCURVE",
"223 344 CURVE SMOOTH",
"92 344 OFFCURVE",
"137 619 OFFCURVE",
"506 619 CURVE SMOOTH",
"597 619 OFFCURVE",
"708 586 OFFCURVE",
"708 478 CURVE SMOOTH",
"708 422 OFFCURVE",
"685 365 OFFCURVE",
"644 333 CURVE",
"635 338 OFFCURVE",
"621 341 OFFCURVE",
"605 340 CURVE SMOOTH",
"571 338 OFFCURVE",
"540 321 OFFCURVE",
"534 303 CURVE SMOOTH",
"529 284 OFFCURVE",
"552 271 OFFCURVE",
"586 274 CURVE SMOOTH",
"609 275 OFFCURVE",
"633 284 OFFCURVE",
"646 296 CURVE",
"659 278 OFFCURVE",
"662 248 OFFCURVE",
"650 206 CURVE SMOOTH",
"621 100 OFFCURVE",
"524 2 OFFCURVE",
"435 3 CURVE SMOOTH",
"364 4 OFFCURVE",
"393 69 OFFCURVE",
"422 97 CURVE SMOOTH",
"460 134 OFFCURVE",
"525 156 OFFCURVE",
"599 159 CURVE SMOOTH",
"625 161 OFFCURVE",
"620 176 OFFCURVE",
"592 176 CURVE SMOOTH",
"547 177 OFFCURVE",
"476 163 OFFCURVE",
"408 124 CURVE SMOOTH",
"395 116 LINE",
"428 205 OFFCURVE",
"523 371 OFFCURVE",
"549 416 CURVE SMOOTH",
"575 460 OFFCURVE",
"597 493 OFFCURVE",
"608 508 CURVE SMOOTH",
"615 518 OFFCURVE",
"597 525 OFFCURVE",
"555 524 CURVE SMOOTH",
"497 522 OFFCURVE",
"463 497 OFFCURVE",
"439 459 CURVE SMOOTH",
"415 418 OFFCURVE",
"309 243 OFFCURVE",
"281 129 CURVE SMOOTH",
"269 80 OFFCURVE",
"302 70 OFFCURVE",
"337 64 CURVE",
"317 38 OFFCURVE",
"306 10 OFFCURVE",
"306 -16 CURVE SMOOTH"
);
}
);
width = 767;
}
);
note = B;
},
{
glyphname = C.001;
lastChange = "2021-08-21 18:45:25 +0000";
layers = (
{
hints = (
{
horizontal = 1;
place = "{-7, 46}";
type = Stem;
},
{
horizontal = 1;
place = "{556, 44}";
type = Stem;
},
{
place = "{17, 133}";
type = Stem;
},
{
place = "{398, 35}";
type = Stem;
},
{
place = "{419, 57}";
type = Stem;
}
);
layerId = "C623C401-2266-4A98-B253-3D45160C29C7";
paths = (
{
closed = 1;
nodes = (
"499 -53 OFFCURVE",
"641 301 OFFCURVE",
"481 300 CURVE SMOOTH",
"424 300 OFFCURVE",
"347 237 OFFCURVE",
"325 143 CURVE SMOOTH",
"320 122 OFFCURVE",
"334 122 OFFCURVE",
"340 137 CURVE SMOOTH",
"374 226 OFFCURVE",
"430 273 OFFCURVE",
"467 274 CURVE SMOOTH",
"515 274 OFFCURVE",
"502 184 OFFCURVE",
"456 118 CURVE SMOOTH",
"392 28 OFFCURVE",
"257 18 OFFCURVE",
"249 154 CURVE SMOOTH",
"246 202 OFFCURVE",
"263 259 OFFCURVE",
"292 316 CURVE",
"344 317 OFFCURVE",
"394 324 OFFCURVE",
"440 335 CURVE SMOOTH",
"600 377 OFFCURVE",
"684 482 OFFCURVE",
"679 556 CURVE SMOOTH",
"675 616 OFFCURVE",
"616 625 OFFCURVE",
"572 625 CURVE SMOOTH",
"433 624 OFFCURVE",
"287 513 OFFCURVE",
"191 376 CURVE",
"148 399 OFFCURVE",
"116 435 OFFCURVE",
"116 486 CURVE SMOOTH",
"116 528 OFFCURVE",
"144 562 OFFCURVE",
"184 562 CURVE SMOOTH",
"197 562 OFFCURVE",
"227 553 OFFCURVE",
"227 521 CURVE SMOOTH",
"227 515 OFFCURVE",
"237 521 OFFCURVE",
"237 533 CURVE SMOOTH",
"237 571 OFFCURVE",
"186 600 OFFCURVE",
"129 600 CURVE SMOOTH",
"49 600 OFFCURVE",
"0 555 OFFCURVE",
"0 500 CURVE SMOOTH",
"0 445 OFFCURVE",
"51 382 OFFCURVE",
"170 345 CURVE",
"115 256 OFFCURVE",
"83 161 OFFCURVE",
"88 79 CURVE SMOOTH",
"93 0 OFFCURVE",
"141 -55 OFFCURVE",
"244 -55 CURVE SMOOTH"
);
},
{
closed = 1;
nodes = (
"358 433 OFFCURVE",
"446 526 OFFCURVE",
"519 563 CURVE SMOOTH",
"582 596 OFFCURVE",
"616 580 OFFCURVE",
"618 546 CURVE SMOOTH",
"625 427 OFFCURVE",
"412 346 OFFCURVE",
"303 335 CURVE"
);
}
);
width = 535;
}
);
note = C;
},
{
glyphname = D.001;
lastChange = "2021-08-21 18:45:25 +0000";
layers = (
{
hints = (
{
horizontal = 1;
place = "{-8, 31}";
type = Stem;
},
{
horizontal = 1;
place = "{567, 34}";
type = Stem;
},
{
place = "{-69, 34}";
type = Stem;
},
{
place = "{5, 84}";
type = Stem;
},
{
place = "{369, 117}";
type = Stem;
}
);
layerId = "C623C401-2266-4A98-B253-3D45160C29C7";
paths = (
{
closed = 1;
nodes = (
"846 -116 OFFCURVE",
"1087 644 OFFCURVE",
"514 644 CURVE SMOOTH",
"336 644 OFFCURVE",
"0 563 OFFCURVE",
"0 343 CURVE SMOOTH",
"0 271 OFFCURVE",
"52 238 OFFCURVE",
"113 238 CURVE SMOOTH",
"240 238 OFFCURVE",
"347 353 OFFCURVE",
"382 462 CURVE SMOOTH",
"389 483 OFFCURVE",
"374 507 OFFCURVE",
"363 481 CURVE SMOOTH",
"340 421 OFFCURVE",
"286 344 OFFCURVE",
"223 344 CURVE SMOOTH",
"92 344 OFFCURVE",
"133 619 OFFCURVE",
"506 619 CURVE SMOOTH",
"920 619 OFFCURVE",
"639 3 OFFCURVE",
"435 3 CURVE SMOOTH",
"364 3 OFFCURVE",
"393 69 OFFCURVE",
"422 97 CURVE SMOOTH",
"460 134 OFFCURVE",
"525 156 OFFCURVE",
"599 159 CURVE SMOOTH",
"625 161 OFFCURVE",
"620 176 OFFCURVE",
"592 176 CURVE SMOOTH",
"547 177 OFFCURVE",
"476 163 OFFCURVE",
"408 124 CURVE SMOOTH",
"395 116 LINE",
"428 205 OFFCURVE",
"523 371 OFFCURVE",
"549 416 CURVE SMOOTH",
"575 460 OFFCURVE",
"597 493 OFFCURVE",
"608 508 CURVE SMOOTH",
"615 518 OFFCURVE",
"597 525 OFFCURVE",
"555 524 CURVE SMOOTH",
"497 522 OFFCURVE",
"463 497 OFFCURVE",
"439 459 CURVE SMOOTH",
"415 418 OFFCURVE",
"309 243 OFFCURVE",
"281 129 CURVE SMOOTH",
"270 80 OFFCURVE",
"299 74 OFFCURVE",
"336 64 CURVE",
"284 -2 OFFCURVE",
"305 -73 OFFCURVE",
"416 -82 CURVE SMOOTH"
);
}
);
width = 814;
}
);
note = D;
},
{
glyphname = Eth.001;
lastChange = "2021-08-21 18:45:25 +0000";
layers = (
{
hints = (
{
horizontal = 1;
place = "{-8, 31}";
type = Stem;
},
{
horizontal = 1;
place = "{243, 45}";
type = Stem;
},
{
horizontal = 1;
place = "{567, 34}";
type = Stem;
},
{
place = "{-69, 34}";
type = Stem;
},
{
place = "{5, 84}";
type = Stem;
},
{
place = "{273, 270}";
type = Stem;
},
{
place = "{369, 117}";
type = Stem;
}
);
layerId = "C623C401-2266-4A98-B253-3D45160C29C7";
paths = (
{
closed = 1;
nodes = (
"846 -116 OFFCURVE",
"1087 644 OFFCURVE",
"514 644 CURVE SMOOTH",
"336 644 OFFCURVE",
"0 563 OFFCURVE",
"0 343 CURVE SMOOTH",
"0 271 OFFCURVE",
"52 238 OFFCURVE",
"113 238 CURVE SMOOTH",
"240 238 OFFCURVE",
"347 353 OFFCURVE",
"382 462 CURVE SMOOTH",
"389 483 OFFCURVE",
"374 507 OFFCURVE",
"363 481 CURVE SMOOTH",
"340 421 OFFCURVE",
"286 344 OFFCURVE",
"223 344 CURVE SMOOTH",
"92 344 OFFCURVE",
"133 619 OFFCURVE",
"506 619 CURVE SMOOTH",
"920 619 OFFCURVE",
"639 3 OFFCURVE",
"435 3 CURVE SMOOTH",
"364 3 OFFCURVE",
"393 69 OFFCURVE",
"422 97 CURVE SMOOTH",
"460 134 OFFCURVE",
"525 156 OFFCURVE",
"599 159 CURVE SMOOTH",
"625 161 OFFCURVE",
"620 176 OFFCURVE",
"592 176 CURVE SMOOTH",
"547 177 OFFCURVE",
"476 163 OFFCURVE",
"408 124 CURVE SMOOTH",
"395 116 LINE",
"407 150 OFFCURVE",
"429 195 OFFCURVE",
"452 240 CURVE",
"503 240 LINE SMOOTH",
"511 240 OFFCURVE",
"551 300 OFFCURVE",
"525 300 CURVE SMOOTH",
"484 300 LINE",
"511 351 OFFCURVE",
"537 396 OFFCURVE",
"549 416 CURVE SMOOTH",
"575 460 OFFCURVE",
"597 493 OFFCURVE",
"608 508 CURVE SMOOTH",
"615 518 OFFCURVE",
"597 525 OFFCURVE",
"555 524 CURVE SMOOTH",
"497 522 OFFCURVE",
"463 497 OFFCURVE",
"439 459 CURVE SMOOTH",
"425 436 OFFCURVE",
"387 372 OFFCURVE",
"350 300 CURVE",
"313 300 LINE SMOOTH",
"300 300 OFFCURVE",
"262 240 OFFCURVE",
"279 240 CURVE SMOOTH",
"321 240 LINE",
"304 201 OFFCURVE",
"289 162 OFFCURVE",
"281 129 CURVE SMOOTH",
"270 80 OFFCURVE",
"299 74 OFFCURVE",
"336 64 CURVE",
"284 -2 OFFCURVE",
"305 -73 OFFCURVE",
"416 -82 CURVE SMOOTH"
);
}
);
width = 814;
}
);
note = Eth;
},
{
glyphname = E.001;
lastChange = "2021-08-21 18:45:25 +0000";
layers = (
{
hints = (
{
horizontal = 1;
place = "{-2, 41}";
type = Stem;
},
{
horizontal = 1;
place = "{537, 68}";
type = Stem;
},
{
horizontal = 1;
place = "{537, 92}";
type = Stem;
},
{
place = "{-50, 110}";
type = Stem;
},
{
place = "{64, 112}";
type = Stem;
},
{
place = "{321, 27}";
type = Stem;
},
{
place = "{346, 38}";
type = Stem;
}
);
layerId = "C623C401-2266-4A98-B253-3D45160C29C7";
paths = (
{
closed = 1;
nodes = (
"446 -58 OFFCURVE",
"628 296 OFFCURVE",
"450 296 CURVE SMOOTH",
"388 296 OFFCURVE",
"302 233 OFFCURVE",
"272 140 CURVE SMOOTH",
"266 119 OFFCURVE",
"289 121 OFFCURVE",
"296 135 CURVE SMOOTH",
"335 222 OFFCURVE",
"393 267 OFFCURVE",
"432 267 CURVE SMOOTH",
"511 267 OFFCURVE",
"448 42 OFFCURVE",
"275 42 CURVE SMOOTH",
"216 42 OFFCURVE",
"166 73 OFFCURVE",
"166 149 CURVE SMOOTH",
"166 236 OFFCURVE",
"242 323 OFFCURVE",
"324 341 CURVE",
"332 337 OFFCURVE",
"351 324 OFFCURVE",
"371 324 CURVE SMOOTH",
"397 324 OFFCURVE",
"413 336 OFFCURVE",
"413 348 CURVE SMOOTH",
"413 355 OFFCURVE",
"406 361 OFFCURVE",
"388 361 CURVE SMOOTH",
"375 361 OFFCURVE",
"355 356 OFFCURVE",
"339 351 CURVE",
"334 356 OFFCURVE",
"333 376 OFFCURVE",
"336 387 CURVE",
"623 372 OFFCURVE",
"681 606 OFFCURVE",
"466 606 CURVE SMOOTH",
"364 606 OFFCURVE",
"244 551 OFFCURVE",
"226 439 CURVE",
"226 436 OFFCURVE",
"225 434 OFFCURVE",
"225 431 CURVE",
"166 453 OFFCURVE",
"111 492 OFFCURVE",
"111 559 CURVE SMOOTH",
"111 601 OFFCURVE",
"138 635 OFFCURVE",
"176 635 CURVE SMOOTH",
"189 635 OFFCURVE",
"217 626 OFFCURVE",
"217 595 CURVE SMOOTH",
"217 588 OFFCURVE",
"226 595 OFFCURVE",
"226 606 CURVE SMOOTH",
"226 644 OFFCURVE",
"178 673 OFFCURVE",
"124 673 CURVE SMOOTH",
"42 673 OFFCURVE",
"3 627 OFFCURVE",
"3 573 CURVE SMOOTH",
"3 465 OFFCURVE",
"130 421 OFFCURVE",
"230 402 CURVE",
"238 380 OFFCURVE",
"262 358 OFFCURVE",
"292 350 CURVE",
"148 350 OFFCURVE",
"0 257 OFFCURVE",
"0 97 CURVE SMOOTH",
"0 -13 OFFCURVE",
"91 -58 OFFCURVE",
"172 -58 CURVE SMOOTH"
);
},
{
closed = 1;
nodes = (
"375 483 OFFCURVE",
"449 543 OFFCURVE",
"522 543 CURVE SMOOTH",
"614 543 OFFCURVE",
"546 399 OFFCURVE",
"344 409 CURVE"
);
}
);
width = 506;
}
);
leftKerningGroup = E;
note = E;
},
{
glyphname = F.001;
lastChange = "2021-08-21 18:45:25 +0000";
layers = (
{
hints = (
{
horizontal = 1;
place = "{-7, 21}";
target = up;
type = BottomGhost;
},
{
horizontal = 1;
place = "{232, 94}";
type = Stem;
},
{
horizontal = 1;
place = "{372, 127}";
type = Stem;
},
{
place = "{29, 70}";
type = Stem;
},
{
place = "{158, 91}";
type = Stem;
},
{
place = "{354, 156}";
type = Stem;
}
);
layerId = "C623C401-2266-4A98-B253-3D45160C29C7";
paths = (
{
closed = 1;
nodes = (
"433 -87 OFFCURVE",
"504 77 OFFCURVE",
"568 251 CURVE",
"619 251 LINE SMOOTH",
"641 251 OFFCURVE",
"648 278 OFFCURVE",
"630 278 CURVE SMOOTH",
"578 278 LINE",
"610 365 OFFCURVE",
"639 450 OFFCURVE",
"687 511 CURVE",
"701 510 OFFCURVE",
"720 509 OFFCURVE",
"740 509 CURVE SMOOTH",
"843 509 OFFCURVE",
"844 586 OFFCURVE",
"772 586 CURVE SMOOTH",
"732 586 OFFCURVE",
"697 558 OFFCURVE",
"678 544 CURVE",
"567 577 OFFCURVE",
"363 627 OFFCURVE",
"247 589 CURVE SMOOTH",
"162 561 OFFCURVE",
"93 496 OFFCURVE",
"93 404 CURVE SMOOTH",
"93 319 OFFCURVE",
"157 284 OFFCURVE",
"222 284 CURVE SMOOTH",
"300 284 OFFCURVE",
"380 338 OFFCURVE",
"412 441 CURVE",
"416 458 OFFCURVE",
"402 477 OFFCURVE",
"395 456 CURVE SMOOTH",
"375 404 OFFCURVE",
"335 358 OFFCURVE",
"272 358 CURVE SMOOTH",
"196 358 OFFCURVE",
"220 479 OFFCURVE",
"339 511 CURVE SMOOTH",
"423 533 OFFCURVE",
"572 528 OFFCURVE",
"659 518 CURVE",
"590 472 OFFCURVE",
"539 375 OFFCURVE",
"484 278 CURVE",
"361 278 LINE SMOOTH",
"344 278 OFFCURVE",
"332 251 OFFCURVE",
"358 251 CURVE SMOOTH",
"469 251 LINE",
"397 126 OFFCURVE",
"322 17 OFFCURVE",
"205 17 CURVE SMOOTH",
"38 17 OFFCURVE",
"60 249 OFFCURVE",
"173 242 CURVE SMOOTH",
"201 241 OFFCURVE",
"226 221 OFFCURVE",
"226 176 CURVE SMOOTH",
"226 132 OFFCURVE",
"202 83 OFFCURVE",
"164 85 CURVE SMOOTH",
"154 85 OFFCURVE",
"155 72 OFFCURVE",
"170 72 CURVE SMOOTH",
"233 68 OFFCURVE",
"267 122 OFFCURVE",
"267 176 CURVE SMOOTH",
"267 233 OFFCURVE",
"228 261 OFFCURVE",
"180 264 CURVE SMOOTH",
"-39 276 OFFCURVE",
"-66 -87 OFFCURVE",
"225 -87 CURVE SMOOTH"
);
}
);
width = 632;
}
);
note = F;
},
{
glyphname = G.001;
lastChange = "2021-08-21 18:45:25 +0000";
layers = (
{
hints = (
{
horizontal = 1;
place = "{-129, 35}";
type = Stem;
},
{
horizontal = 1;
place = "{0, 41}";
type = Stem;
},
{
horizontal = 1;
place = "{563, 42}";
type = Stem;
},
{
place = "{75, 112}";
type = Stem;
},
{
place = "{413, 19}";
type = Stem;
},
{
place = "{486, 62}";
type = Stem;
}
);
layerId = "C623C401-2266-4A98-B253-3D45160C29C7";
paths = (
{
closed = 1;
nodes = (
"558 -329 OFFCURVE",
"504 201 OFFCURVE",
"617 299 CURVE",
"620 306 OFFCURVE",
"608 314 OFFCURVE",
"592 307 CURVE SMOOTH",
"570 297 OFFCURVE",
"547 263 OFFCURVE",
"522 218 CURVE",
"488 171 OFFCURVE",
"446 134 OFFCURVE",
"386 134 CURVE SMOOTH",
"313 134 OFFCURVE",
"312 219 OFFCURVE",
"352 316 CURVE",
"398 318 OFFCURVE",
"441 325 OFFCURVE",
"482 335 CURVE SMOOTH",
"642 377 OFFCURVE",
"726 482 OFFCURVE",
"721 556 CURVE SMOOTH",
"717 616 OFFCURVE",
"658 625 OFFCURVE",
"614 625 CURVE SMOOTH",
"458 624 OFFCURVE",
"311 496 OFFCURVE",
"232 360 CURVE",
"182 383 OFFCURVE",
"140 420 OFFCURVE",
"140 477 CURVE SMOOTH",
"140 519 OFFCURVE",
"168 553 OFFCURVE",
"208 553 CURVE SMOOTH",
"221 553 OFFCURVE",
"251 545 OFFCURVE",
"251 513 CURVE SMOOTH",
"251 506 OFFCURVE",
"261 513 OFFCURVE",
"261 524 CURVE SMOOTH",
"261 562 OFFCURVE",
"210 591 OFFCURVE",
"154 591 CURVE SMOOTH",
"68 591 OFFCURVE",
"26 545 OFFCURVE",
"26 491 CURVE SMOOTH",
"26 398 OFFCURVE",
"123 353 OFFCURVE",
"216 329 CURVE",
"189 275 OFFCURVE",
"174 221 OFFCURVE",
"174 175 CURVE SMOOTH",
"174 13 OFFCURVE",
"336 5 OFFCURVE",
"434 91 CURVE SMOOTH",
"450 105 OFFCURVE",
"466 121 OFFCURVE",
"480 138 CURVE",
"403 -15 OFFCURVE",
"307 -216 OFFCURVE",
"181 -216 CURVE SMOOTH",
"30 -214 OFFCURVE",
"61 26 OFFCURVE",
"163 18 CURVE SMOOTH",
"189 17 OFFCURVE",
"210 -4 OFFCURVE",
"208 -51 CURVE SMOOTH",
"206 -97 OFFCURVE",
"182 -147 OFFCURVE",
"147 -144 CURVE SMOOTH",
"138 -144 OFFCURVE",
"139 -153 OFFCURVE",
"152 -154 CURVE SMOOTH",
"207 -157 OFFCURVE",
"240 -105 OFFCURVE",
"242 -53 CURVE SMOOTH",
"245 3 OFFCURVE",
"212 31 OFFCURVE",
"170 34 CURVE SMOOTH",
"-22 48 OFFCURVE",
"-90 -323 OFFCURVE",
"177 -326 CURVE SMOOTH"
);
},
{
closed = 1;
nodes = (
"403 427 OFFCURVE",
"477 520 OFFCURVE",
"561 563 CURVE SMOOTH",
"624 596 OFFCURVE",
"658 580 OFFCURVE",
"660 546 CURVE SMOOTH",
"667 433 OFFCURVE",
"474 354 OFFCURVE",
"361 337 CURVE"
);
}
);
width = 577;
}
);
note = G;
},
{
glyphname = H.001;
lastChange = "2021-08-21 18:45:25 +0000";
layers = (
{
hints = (
{
horizontal = 1;
place = "{262, 76}";
type = Stem;
},
{
horizontal = 1;
place = "{597, -20}";
target = down;
type = TopGhost;
},
{
place = "{39, 94}";
type = Stem;
},
{
place = "{290, 93}";
type = Stem;
}
);
layerId = "C623C401-2266-4A98-B253-3D45160C29C7";
paths = (
{
closed = 1;
nodes = (
"344 -125 OFFCURVE",
"452 54 OFFCURVE",
"512 233 CURVE",
"630 233 LINE",
"607 179 OFFCURVE",
"532 -28 OFFCURVE",
"659 -28 CURVE SMOOTH",
"673 -28 OFFCURVE",
"689 -26 OFFCURVE",
"708 -20 CURVE SMOOTH",
"728 -14 OFFCURVE",
"732 3 OFFCURVE",
"717 0 CURVE SMOOTH",
"699 -4 OFFCURVE",
"699 37 OFFCURVE",
"709 80 CURVE SMOOTH",
"719 124 OFFCURVE",
"738 180 OFFCURVE",
"760 239 CURVE",
"765 240 OFFCURVE",
"769 241 OFFCURVE",
"774 241 CURVE SMOOTH",
"781 241 OFFCURVE",
"813 261 OFFCURVE",
"778 259 CURVE SMOOTH",
"767 259 LINE",
"822 402 OFFCURVE",
"895 554 OFFCURVE",
"929 585 CURVE SMOOTH",
"933 589 OFFCURVE",
"920 593 OFFCURVE",
"918 594 CURVE",
"905 596 OFFCURVE",
"893 597 OFFCURVE",
"881 597 CURVE SMOOTH",
"830 597 OFFCURVE",
"793 581 OFFCURVE",
"781 558 CURVE SMOOTH",
"736 476 OFFCURVE",
"669 345 OFFCURVE",
"640 263 CURVE",
"522 263 LINE",
"543 330 OFFCURVE",
"558 396 OFFCURVE",
"569 451 CURVE SMOOTH",
"582 513 OFFCURVE",
"598 559 OFFCURVE",
"613 580 CURVE",
"623 578 OFFCURVE",
"632 576 OFFCURVE",
"642 577 CURVE SMOOTH",
"671 578 OFFCURVE",
"685 630 OFFCURVE",
"605 614 CURVE SMOOTH",
"591 611 OFFCURVE",
"503 607 OFFCURVE",
"476 603 CURVE SMOOTH",
"291 576 OFFCURVE",
"76 487 OFFCURVE",
"84 319 CURVE SMOOTH",
"87 256 OFFCURVE",
"134 229 OFFCURVE",
"187 233 CURVE SMOOTH",
"297 239 OFFCURVE",
"384 345 OFFCURVE",
"411 443 CURVE SMOOTH",
"416 462 OFFCURVE",
"402 482 OFFCURVE",
"394 458 CURVE SMOOTH",
"376 404 OFFCURVE",
"323 330 OFFCURVE",
"268 326 CURVE SMOOTH",
"155 320 OFFCURVE",
"186 563 OFFCURVE",
"575 584 CURVE",
"497 527 OFFCURVE",
"439 375 OFFCURVE",
"391 263 CURVE",
"361 263 LINE",
"319 259 OFFCURVE",
"321 234 OFFCURVE",
"339 233 CURVE SMOOTH",
"379 233 LINE",
"371 215 OFFCURVE",
"362 197 OFFCURVE",
"355 183 CURVE SMOOTH",
"292 60 OFFCURVE",
"210 -52 OFFCURVE",
"113 -57 CURVE SMOOTH",
"49 -60 OFFCURVE",
"30 -9 OFFCURVE",
"53 44 CURVE SMOOTH",
"68 77 OFFCURVE",
"110 116 OFFCURVE",
"147 128 CURVE SMOOTH",
"170 136 OFFCURVE",
"182 159 OFFCURVE",
"145 152 CURVE SMOOTH",
"80 140 OFFCURVE",
"44 107 OFFCURVE",
"22 73 CURVE SMOOTH",
"-31 -9 OFFCURVE",
"15 -125 OFFCURVE",
"138 -125 CURVE SMOOTH"
);
}
);
width = 802;
}
);
note = H;
},
{
glyphname = I.001;
lastChange = "2021-08-21 18:45:25 +0000";
layers = (
{
hints = (
{
horizontal = 1;
place = "{-18, 43}";
type = Stem;
},
{
place = "{81, 37}";
type = Stem;
}
);
layerId = "C623C401-2266-4A98-B253-3D45160C29C7";
paths = (
{
closed = 1;
nodes = (
"441 -101 OFFCURVE",
"564 256 OFFCURVE",
"585 483 CURVE SMOOTH",
"591 552 OFFCURVE",
"593 579 OFFCURVE",
"607 604 CURVE",
"629 600 OFFCURVE",
"656 592 OFFCURVE",
"681 594 CURVE SMOOTH",
"726 596 OFFCURVE",
"749 678 OFFCURVE",
"623 653 CURVE SMOOTH",
"600 648 OFFCURVE",
"510 628 OFFCURVE",
"483 624 CURVE SMOOTH",
"298 598 OFFCURVE",
"83 509 OFFCURVE",
"91 340 CURVE SMOOTH",
"94 277 OFFCURVE",
"141 251 OFFCURVE",
"194 254 CURVE SMOOTH",
"304 261 OFFCURVE",
"392 367 OFFCURVE",
"418 464 CURVE SMOOTH",
"423 483 OFFCURVE",
"409 504 OFFCURVE",
"401 480 CURVE SMOOTH",
"383 426 OFFCURVE",
"330 351 OFFCURVE",
"275 348 CURVE SMOOTH",
"164 341 OFFCURVE",
"192 574 OFFCURVE",
"560 603 CURVE",
"521 573 OFFCURVE",
"484 513 OFFCURVE",
"456 450 CURVE SMOOTH",
"404 327 OFFCURVE",
"287 -27 OFFCURVE",
"120 -35 CURVE SMOOTH",
"56 -38 OFFCURVE",
"37 13 OFFCURVE",
"61 65 CURVE SMOOTH",
"75 98 OFFCURVE",
"117 137 OFFCURVE",
"154 150 CURVE SMOOTH",
"177 157 OFFCURVE",
"177 178 OFFCURVE",
"152 173 CURVE SMOOTH",
"78 159 OFFCURVE",
"0 98 OFFCURVE",
"0 17 CURVE SMOOTH",
"0 -73 OFFCURVE",
"79 -101 OFFCURVE",
"159 -101 CURVE SMOOTH"
);
}
);
width = 546;
}
);
note = I;
},
{
glyphname = J.001;
lastChange = "2021-08-21 18:45:25 +0000";
layers = (
{
hints = (
{
horizontal = 1;
place = "{-88, 50}";
type = Stem;
},
{
horizontal = 1;
place = "{540, 81}";
type = Stem;
},
{
place = "{403, 8}";
type = Stem;
}
);
layerId = "C623C401-2266-4A98-B253-3D45160C29C7";
paths = (
{
closed = 1;
nodes = (
"449 -237 OFFCURVE",
"609 -23 OFFCURVE",
"678 194 CURVE SMOOTH",
"725 343 OFFCURVE",
"767 509 OFFCURVE",
"845 588 CURVE SMOOTH",
"864 606 OFFCURVE",
"886 615 OFFCURVE",
"912 602 CURVE SMOOTH",
"926 594 OFFCURVE",
"935 620 OFFCURVE",
"913 629 CURVE SMOOTH",
"884 640 OFFCURVE",
"826 646 OFFCURVE",
"769 646 CURVE SMOOTH",
"194 646 OFFCURVE",
"141 265 OFFCURVE",
"356 265 CURVE SMOOTH",
"452 265 OFFCURVE",
"558 335 OFFCURVE",
"602 470 CURVE SMOOTH",
"608 489 OFFCURVE",
"594 512 OFFCURVE",
"584 487 CURVE SMOOTH",
"563 432 OFFCURVE",
"513 361 OFFCURVE",
"455 361 CURVE SMOOTH",
"348 361 OFFCURVE",
"351 619 OFFCURVE",
"823 613 CURVE",
"732 573 OFFCURVE",
"647 420 OFFCURVE",
"606 331 CURVE SMOOTH",
"533 172 OFFCURVE",
"437 -117 OFFCURVE",
"223 -117 CURVE SMOOTH",
"6 -117 OFFCURVE",
"50 162 OFFCURVE",
"198 162 CURVE SMOOTH",
"238 162 OFFCURVE",
"270 139 OFFCURVE",
"270 84 CURVE SMOOTH",
"270 29 OFFCURVE",
"238 -33 OFFCURVE",
"186 -33 CURVE SMOOTH",
"181 -33 OFFCURVE",
"176 -31 OFFCURVE",
"173 -29 CURVE SMOOTH",
"171 -28 OFFCURVE",
"169 -30 OFFCURVE",
"169 -33 CURVE",
"174 -40 OFFCURVE",
"183 -43 OFFCURVE",
"194 -43 CURVE SMOOTH",
"276 -43 OFFCURVE",
"321 22 OFFCURVE",
"321 84 CURVE SMOOTH",
"321 151 OFFCURVE",
"275 182 OFFCURVE",
"217 182 CURVE SMOOTH",
"84 182 OFFCURVE",
"0 69 OFFCURVE",
"0 -37 CURVE SMOOTH",
"0 -179 OFFCURVE",
"99 -237 OFFCURVE",
"223 -237 CURVE SMOOTH"
);
}
);
width = 690;
}
);
note = J;
},
{
glyphname = K.001;
lastChange = "2021-08-21 18:45:25 +0000";
layers = (
{
hints = (
{
horizontal = 1;
place = "{-15, 21}";
target = up;
type = BottomGhost;
},
{
horizontal = 1;
place = "{274, 28}";
type = Stem;
},
{
horizontal = 1;
place = "{597, -20}";
target = down;
type = TopGhost;
},
{
place = "{-2, 94}";
type = Stem;
}
);
layerId = "C623C401-2266-4A98-B253-3D45160C29C7";
paths = (
{
closed = 1;
nodes = (
"385 -125 OFFCURVE",
"493 92 OFFCURVE",
"550 287 CURVE",
"559 287 OFFCURVE",
"569 289 OFFCURVE",
"578 291 CURVE",
"574 275 OFFCURVE",
"570 246 OFFCURVE",
"566 197 CURVE SMOOTH",
"543 -114 OFFCURVE",
"716 -69 OFFCURVE",
"794 42 CURVE SMOOTH",
"830 93 OFFCURVE",
"803 89 OFFCURVE",
"783 73 CURVE SMOOTH",
"694 0 OFFCURVE",
"664 238 OFFCURVE",
"661 329 CURVE",
"728 372 OFFCURVE",
"791 440 OFFCURVE",
"829 482 CURVE SMOOTH",
"863 520 OFFCURVE",
"902 548 OFFCURVE",
"934 558 CURVE SMOOTH",
"968 569 OFFCURVE",
"980 553 OFFCURVE",
"970 526 CURVE SMOOTH",
"957 494 OFFCURVE",
"1004 503 OFFCURVE",
"1006 550 CURVE SMOOTH",
"1009 607 OFFCURVE",
"941 635 OFFCURVE",
"888 629 CURVE SMOOTH",
"675 605 OFFCURVE",
"681 326 OFFCURVE",
"555 304 CURVE",
"570 357 OFFCURVE",
"581 407 OFFCURVE",
"590 451 CURVE SMOOTH",
"603 513 OFFCURVE",
"619 559 OFFCURVE",
"634 580 CURVE",
"644 578 OFFCURVE",
"653 576 OFFCURVE",
"663 577 CURVE SMOOTH",
"692 578 OFFCURVE",
"706 630 OFFCURVE",
"626 614 CURVE SMOOTH",
"612 611 OFFCURVE",
"524 607 OFFCURVE",
"497 603 CURVE SMOOTH",
"312 576 OFFCURVE",
"97 487 OFFCURVE",
"105 319 CURVE SMOOTH",
"108 256 OFFCURVE",
"155 229 OFFCURVE",
"208 233 CURVE SMOOTH",
"318 239 OFFCURVE",
"405 345 OFFCURVE",
"432 443 CURVE SMOOTH",
"437 462 OFFCURVE",
"423 482 OFFCURVE",
"415 458 CURVE SMOOTH",
"397 404 OFFCURVE",
"344 330 OFFCURVE",
"289 326 CURVE SMOOTH",
"176 320 OFFCURVE",
"207 563 OFFCURVE",
"596 584 CURVE",
"497 512 OFFCURVE",
"430 286 OFFCURVE",
"376 183 CURVE SMOOTH",
"346 123 OFFCURVE",
"311 66 OFFCURVE",
"271 23 CURVE SMOOTH",
"230 -23 OFFCURVE",
"170 -60 OFFCURVE",
"120 -60 CURVE SMOOTH",
"56 -60 OFFCURVE",
"37 -13 OFFCURVE",
"61 41 CURVE SMOOTH",
"75 74 OFFCURVE",
"117 113 OFFCURVE",
"154 125 CURVE SMOOTH",
"177 133 OFFCURVE",
"177 153 OFFCURVE",
"152 149 CURVE SMOOTH",
"79 135 OFFCURVE",
"0 74 OFFCURVE",
"0 -7 CURVE SMOOTH",
"0 -97 OFFCURVE",
"80 -125 OFFCURVE",
"159 -125 CURVE SMOOTH"
);
}
);
width = 800;
}
);
note = K;
},
{
glyphname = L.001;
lastChange = "2021-08-21 18:45:25 +0000";
layers = (
{
hints = (
{
horizontal = 1;
place = "{-4, 103}";
type = Stem;
},
{
horizontal = 1;
place = "{17, 82}";
type = Stem;
},
{
horizontal = 1;
place = "{200, 23}";
type = Stem;
},
{
horizontal = 1;
place = "{546, 50}";
type = Stem;
},
{
place = "{374, 55}";
type = Stem;
}
);
layerId = "C623C401-2266-4A98-B253-3D45160C29C7";
paths = (
{
closed = 1;
nodes = (
"321 -57 OFFCURVE",
"408 -1 OFFCURVE",
"479 80 CURVE",
"528 12 OFFCURVE",
"590 -44 OFFCURVE",
"675 -44 CURVE SMOOTH",
"733 -44 OFFCURVE",
"781 0 OFFCURVE",
"783 54 CURVE SMOOTH",
"786 99 OFFCURVE",
"757 111 OFFCURVE",
"729 112 CURVE",
"720 64 OFFCURVE",
"676 50 OFFCURVE",
"646 50 CURVE SMOOTH",
"596 50 OFFCURVE",
"545 76 OFFCURVE",
"503 109 CURVE",
"555 177 OFFCURVE",
"597 259 OFFCURVE",
"633 332 CURVE",
"698 340 OFFCURVE",
"798 370 OFFCURVE",
"858 428 CURVE SMOOTH",
"924 491 OFFCURVE",
"956 625 OFFCURVE",
"825 625 CURVE SMOOTH",
"675 625 OFFCURVE",
"604 489 OFFCURVE",
"536 353 CURVE",
"462 369 OFFCURVE",
"369 413 OFFCURVE",
"369 496 CURVE SMOOTH",
"369 538 OFFCURVE",
"396 572 OFFCURVE",
"437 572 CURVE SMOOTH",
"450 572 OFFCURVE",
"480 563 OFFCURVE",
"480 531 CURVE SMOOTH",
"480 525 OFFCURVE",
"489 531 OFFCURVE",
"489 542 CURVE SMOOTH",
"489 581 OFFCURVE",
"439 609 OFFCURVE",
"382 609 CURVE SMOOTH",
"296 609 OFFCURVE",
"255 564 OFFCURVE",
"255 510 CURVE SMOOTH",
"255 401 OFFCURVE",
"388 355 OFFCURVE",
"493 338 CURVE SMOOTH",
"506 336 OFFCURVE",
"517 334 OFFCURVE",
"527 334 CURVE",
"502 285 OFFCURVE",
"472 228 OFFCURVE",
"434 179 CURVE",
"366 239 OFFCURVE",
"282 297 OFFCURVE",
"206 297 CURVE SMOOTH",
"-37 297 OFFCURVE",
"-103 -57 OFFCURVE",
"218 -57 CURVE SMOOTH"
);
},
{
closed = 1;
nodes = (
"97 67 OFFCURVE",
"91 244 OFFCURVE",
"224 244 CURVE SMOOTH",
"294 244 OFFCURVE",
"363 196 OFFCURVE",
"412 154 CURVE",
"372 109 OFFCURVE",
"323 77 OFFCURVE",
"263 74 CURVE SMOOTH"
);
},
{
closed = 1;
nodes = (
"682 437 OFFCURVE",
"738 586 OFFCURVE",
"825 586 CURVE SMOOTH",
"873 586 OFFCURVE",
"894 528 OFFCURVE",
"811 443 CURVE SMOOTH",
"774 404 OFFCURVE",
"705 375 OFFCURVE",
"647 361 CURVE"
);
}
);
width = 780;
}
);
leftKerningGroup = L;
note = L;
},
{
glyphname = M.001;
lastChange = "2021-08-21 18:45:25 +0000";
layers = (
{
hints = (
{
horizontal = 1;
place = "{-7, 21}";
target = up;
type = BottomGhost;
},
{
horizontal = 1;
place = "{372, 128}";
type = Stem;
},
{
horizontal = 1;
place = "{506, 77}";
type = Stem;
},
{
horizontal = 1;
place = "{583, -20}";
target = down;
type = TopGhost;
},
{
place = "{11, 71}";
type = Stem;
},
{
place = "{138, 93}";
type = Stem;
},
{
place = "{386, 102}";
type = Stem;
},
{
place = "{604, 100}";
type = Stem;
}
);
layerId = "C623C401-2266-4A98-B253-3D45160C29C7";
paths = (
{
closed = 1;
nodes = (
"830 -252 OFFCURVE",
"854 -247 OFFCURVE",
"867 -227 CURVE SMOOTH",
"873 -217 OFFCURVE",
"870 -216 OFFCURVE",
"852 -216 CURVE SMOOTH",
"771 -216 OFFCURVE",
"847 39 OFFCURVE",
"861 81 CURVE SMOOTH",
"917 247 OFFCURVE",
"1015 408 OFFCURVE",
"1034 442 CURVE SMOOTH",
"1064 495 OFFCURVE",
"1108 586 OFFCURVE",
"1035 623 CURVE SMOOTH",
"992 645 OFFCURVE",
"949 622 OFFCURVE",
"910 586 CURVE SMOOTH",
"858 538 OFFCURVE",
"804 465 OFFCURVE",
"774 424 CURVE SMOOTH",
"753 396 OFFCURVE",
"734 367 OFFCURVE",
"717 338 CURVE",
"743 416 OFFCURVE",
"784 552 OFFCURVE",
"669 551 CURVE SMOOTH",
"601 550 OFFCURVE",
"518 431 OFFCURVE",
"455 324 CURVE",
"489 404 OFFCURVE",
"514 465 OFFCURVE",
"522 492 CURVE SMOOTH",
"560 628 OFFCURVE",
"407 612 OFFCURVE",
"316 586 CURVE SMOOTH",
"61 514 OFFCURVE",
"-87 225 OFFCURVE",
"57 218 CURVE SMOOTH",
"181 212 OFFCURVE",
"264 348 OFFCURVE",
"300 434 CURVE SMOOTH",
"309 453 OFFCURVE",
"301 473 OFFCURVE",
"290 449 CURVE SMOOTH",
"264 395 OFFCURVE",
"206 312 OFFCURVE",
"161 314 CURVE SMOOTH",
"108 317 OFFCURVE",
"147 481 OFFCURVE",
"312 554 CURVE SMOOTH",
"345 568 OFFCURVE",
"435 577 OFFCURVE",
"384 426 CURVE SMOOTH",
"377 406 OFFCURVE",
"328 298 OFFCURVE",
"282 193 CURVE SMOOTH",
"246 111 OFFCURVE",
"226 44 OFFCURVE",
"257 15 CURVE SMOOTH",
"276 -3 OFFCURVE",
"300 -6 OFFCURVE",
"325 -7 CURVE SMOOTH",
"330 -7 OFFCURVE",
"343 -9 OFFCURVE",
"340 -1 CURVE SMOOTH",
"338 4 OFFCURVE",
"334 7 OFFCURVE",
"334 17 CURVE SMOOTH",
"336 53 OFFCURVE",
"352 90 OFFCURVE",
"370 131 CURVE",
"375 138 OFFCURVE",
"381 147 OFFCURVE",
"388 160 CURVE SMOOTH",
"398 179 OFFCURVE",
"461 306 OFFCURVE",
"532 397 CURVE SMOOTH",
"572 447 OFFCURVE",
"595 472 OFFCURVE",
"618 485 CURVE SMOOTH",
"689 526 OFFCURVE",
"582 272 OFFCURVE",
"567 236 CURVE SMOOTH",
"513 101 OFFCURVE",
"485 36 OFFCURVE",
"476 20 CURVE SMOOTH",
"469 5 OFFCURVE",
"582 11 OFFCURVE",
"606 54 CURVE SMOOTH",
"694 214 OFFCURVE",
"744 365 OFFCURVE",
"880 497 CURVE SMOOTH",
"925 541 OFFCURVE",
"930 510 OFFCURVE",
"913 477 CURVE SMOOTH",
"859 369 OFFCURVE",
"799 239 OFFCURVE",
"760 105 CURVE SMOOTH",
"740 35 OFFCURVE",
"680 -241 OFFCURVE",
"808 -251 CURVE SMOOTH"
);
}
);
width = 943;
}
);
note = M;
},
{
glyphname = N.001;
lastChange = "2021-08-21 18:45:25 +0000";
layers = (
{
hints = (
{
horizontal = 1;
place = "{-7, 21}";
target = up;
type = BottomGhost;
},
{
horizontal = 1;
place = "{372, 128}";
type = Stem;
},
{
place = "{11, 71}";
type = Stem;
},
{
place = "{138, 93}";
type = Stem;
},
{
place = "{397, 104}";
type = Stem;
},
{
horizontal = 1;
place = "{-1, 21}";
target = up;
type = BottomGhost;
}
);
layerId = "C623C401-2266-4A98-B253-3D45160C29C7";
paths = (
{
closed = 1;
nodes = (
"581 -145 OFFCURVE",
"603 -140 OFFCURVE",
"614 -124 CURVE SMOOTH",
"620 -116 OFFCURVE",
"617 -115 OFFCURVE",
"601 -115 CURVE SMOOTH",
"502 -115 OFFCURVE",
"630 177 OFFCURVE",
"779 442 CURVE SMOOTH",
"808 495 OFFCURVE",
"853 586 OFFCURVE",
"780 623 CURVE SMOOTH",
"736 645 OFFCURVE",
"693 622 OFFCURVE",
"654 586 CURVE SMOOTH",
"603 538 OFFCURVE",
"549 465 OFFCURVE",
"518 424 CURVE SMOOTH",
"508 410 OFFCURVE",
"482 369 OFFCURVE",
"456 324 CURVE",
"490 404 OFFCURVE",
"514 465 OFFCURVE",
"522 492 CURVE SMOOTH",
"560 628 OFFCURVE",
"407 612 OFFCURVE",
"316 586 CURVE SMOOTH",
"61 514 OFFCURVE",
"-87 225 OFFCURVE",
"57 218 CURVE SMOOTH",
"181 212 OFFCURVE",
"264 348 OFFCURVE",
"300 434 CURVE SMOOTH",
"309 453 OFFCURVE",
"301 473 OFFCURVE",
"290 449 CURVE SMOOTH",
"264 395 OFFCURVE",
"206 312 OFFCURVE",
"161 314 CURVE SMOOTH",
"108 317 OFFCURVE",
"147 481 OFFCURVE",
"312 554 CURVE SMOOTH",
"345 568 OFFCURVE",
"435 577 OFFCURVE",
"384 426 CURVE SMOOTH",
"377 406 OFFCURVE",
"328 298 OFFCURVE",
"282 193 CURVE SMOOTH",
"246 111 OFFCURVE",
"226 44 OFFCURVE",
"257 15 CURVE SMOOTH",
"276 -3 OFFCURVE",
"300 -6 OFFCURVE",
"325 -7 CURVE SMOOTH",
"330 -7 OFFCURVE",
"343 -9 OFFCURVE",
"340 -1 CURVE SMOOTH",
"338 4 OFFCURVE",
"334 7 OFFCURVE",
"334 17 CURVE SMOOTH",
"336 58 OFFCURVE",
"357 101 OFFCURVE",
"379 149 CURVE",
"394 170 OFFCURVE",
"423 223 OFFCURVE",
"444 261 CURVE SMOOTH",
"485 337 OFFCURVE",
"554 429 OFFCURVE",
"624 497 CURVE SMOOTH",
"670 541 OFFCURVE",
"674 510 OFFCURVE",
"658 477 CURVE SMOOTH",
"641 442 OFFCURVE",
"579 312 OFFCURVE",
"527 195 CURVE SMOOTH",
"445 9 OFFCURVE",
"439 -135 OFFCURVE",
"561 -143 CURVE SMOOTH"
);
}
);
width = 688;
}
);
note = N;
},
{
glyphname = Eng.001;
lastChange = "2021-08-21 18:45:25 +0000";
layers = (
{
hints = (
{
horizontal = 1;
place = "{-7, 21}";
target = up;
type = BottomGhost;
},
{
horizontal = 1;
place = "{372, 128}";
type = Stem;
},
{
place = "{33, 71}";
type = Stem;
},
{
place = "{160, 93}";
type = Stem;
},
{
place = "{419, 104}";
type = Stem;
},
{
horizontal = 1;
place = "{-1, 21}";
target = up;
type = BottomGhost;
},
{
horizontal = 1;
place = "{-66, 50}";
type = Stem;
},
{
horizontal = 1;
place = "{562, 81}";
type = Stem;
},
{
place = "{1309, 8}";
type = Stem;
}
);
layerId = "C623C401-2266-4A98-B253-3D45160C29C7";
paths = (
{
closed = 1;
nodes = (
"342 -349 OFFCURVE",
"431 -177 OFFCURVE",
"547 99 CURVE SMOOTH",
"623 280 OFFCURVE",
"654 378 OFFCURVE",
"688 480 CURVE SMOOTH",
"703 525 OFFCURVE",
"718 581 OFFCURVE",
"667 609 CURVE SMOOTH",
"637 625 OFFCURVE",
"623 635 OFFCURVE",
"597 615 CURVE SMOOTH",
"560 587 OFFCURVE",
"423 426 OFFCURVE",
"352 323 CURVE SMOOTH",
"347 316 OFFCURVE",
"346 330 OFFCURVE",
"354 343 CURVE SMOOTH",
"374 373 OFFCURVE",
"416 429 OFFCURVE",
"442 462 CURVE SMOOTH",
"458 484 OFFCURVE",
"517 551 OFFCURVE",
"511 568 CURVE SMOOTH",
"505 588 OFFCURVE",
"486 622 OFFCURVE",
"463 627 CURVE SMOOTH",
"394 640 OFFCURVE",
"219 514 OFFCURVE",
"140 500 CURVE SMOOTH",
"121 497 OFFCURVE",
"95 498 OFFCURVE",
"108 523 CURVE SMOOTH",
"119 542 OFFCURVE",
"95 545 OFFCURVE",
"80 523 CURVE SMOOTH",
"40 464 OFFCURVE",
"15 391 OFFCURVE",
"50 378 CURVE SMOOTH",
"153 338 OFFCURVE",
"283 530 OFFCURVE",
"346 553 CURVE SMOOTH",
"385 567 OFFCURVE",
"315 472 OFFCURVE",
"307 459 CURVE SMOOTH",
"226 326 OFFCURVE",
"169 155 OFFCURVE",
"161 89 CURVE SMOOTH",
"152 21 OFFCURVE",
"183 -7 OFFCURVE",
"257 -7 CURVE SMOOTH",
"267 -7 OFFCURVE",
"269 -5 OFFCURVE",
"265 0 CURVE SMOOTH",
"258 8 OFFCURVE",
"254 20 OFFCURVE",
"254 35 CURVE SMOOTH",
"253 205 OFFCURVE",
"450 418 OFFCURVE",
"558 515 CURVE",
"553 499 OFFCURVE",
"547 432 OFFCURVE",
"535 391 CURVE SMOOTH",
"486 219 OFFCURVE",
"370 -56 OFFCURVE",
"278 -226 CURVE SMOOTH",
"202 -366 OFFCURVE",
"157 -307 OFFCURVE",
"184 -216 CURVE",
"186 -177 OFFCURVE",
"223 -130 OFFCURVE",
"246 -122 CURVE SMOOTH",
"269 -112 OFFCURVE",
"260 -85 OFFCURVE",
"222 -94 CURVE SMOOTH",
"146 -111 OFFCURVE",
"96 -178 OFFCURVE",
"87 -238 CURVE SMOOTH",
"77 -302 OFFCURVE",
"111 -349 OFFCURVE",
"181 -349 CURVE SMOOTH"
);
}
);
width = 633;
}
);
},
{
glyphname = O.001;
lastChange = "2021-08-21 18:45:25 +0000";
layers = (
{
hints = (
{
horizontal = 1;
place = "{5, 32}";
type = Stem;
},
{
horizontal = 1;
place = "{588, 29}";
type = Stem;
},
{
place = "{-5, 120}";
type = Stem;
},
{
place = "{376, 89}";
type = Stem;
}
);
layerId = "C623C401-2266-4A98-B253-3D45160C29C7";
paths = (
{
closed = 1;
nodes = (
"406 -10 OFFCURVE",
"568 157 OFFCURVE",
"581 371 CURVE",
"734 459 OFFCURVE",
"713 627 OFFCURVE",
"522 627 CURVE SMOOTH",
"361 627 OFFCURVE",
"237 517 OFFCURVE",
"169 388 CURVE",
"138 410 OFFCURVE",
"116 442 OFFCURVE",
"116 486 CURVE SMOOTH",
"116 528 OFFCURVE",
"144 562 OFFCURVE",
"184 562 CURVE SMOOTH",
"197 562 OFFCURVE",
"227 553 OFFCURVE",
"227 521 CURVE SMOOTH",
"227 515 OFFCURVE",
"237 521 OFFCURVE",
"237 533 CURVE SMOOTH",
"237 571 OFFCURVE",
"186 600 OFFCURVE",
"129 600 CURVE SMOOTH",
"49 600 OFFCURVE",
"0 555 OFFCURVE",
"0 500 CURVE SMOOTH",
"0 427 OFFCURVE",
"70 380 OFFCURVE",
"151 352 CURVE",
"124 290 OFFCURVE",
"110 226 OFFCURVE",
"110 169 CURVE SMOOTH",
"110 45 OFFCURVE",
"170 -10 OFFCURVE",
"247 -10 CURVE SMOOTH"
);
},
{
closed = 1;
nodes = (
"246 32 OFFCURVE",
"233 64 OFFCURVE",
"241 113 CURVE SMOOTH",
"248 161 OFFCURVE",
"271 240 OFFCURVE",
"306 320 CURVE",
"322 318 OFFCURVE",
"337 318 OFFCURVE",
"350 318 CURVE SMOOTH",
"404 318 OFFCURVE",
"451 324 OFFCURVE",
"492 335 CURVE",
"460 197 OFFCURVE",
"352 32 OFFCURVE",
"279 32 CURVE SMOOTH"
);
},
{
closed = 1;
nodes = (
"374 467 OFFCURVE",
"457 581 OFFCURVE",
"555 581 CURVE SMOOTH",
"624 581 OFFCURVE",
"638 500 OFFCURVE",
"577 433 CURVE",
"565 475 OFFCURVE",
"534 509 OFFCURVE",
"493 509 CURVE SMOOTH",
"472 509 OFFCURVE",
"462 505 OFFCURVE",
"475 492 CURVE SMOOTH",
"498 467 OFFCURVE",
"505 426 OFFCURVE",
"500 379 CURVE",
"456 359 OFFCURVE",
"399 346 OFFCURVE",
"327 346 CURVE SMOOTH",
"317 346 LINE"
);
}
);
width = 532;
}
);
note = O;
},
{
glyphname = Oslash.001;
lastChange = "2021-08-21 18:45:25 +0000";
layers = (
{
hints = (
{
horizontal = 1;
place = "{-10, 38}";
type = Stem;
},
{
horizontal = 1;
place = "{574, 38}";
type = Stem;
},
{
place = "{473, 66}";
type = Stem;
},
{
horizontal = 1;
place = "{0, 21}";
target = up;
type = BottomGhost;
},
{
place = "{512, 41}";
type = Stem;
}
);
layerId = "C623C401-2266-4A98-B253-3D45160C29C7";
paths = (
{
closed = 1;
nodes = (
"99 -55 OFFCURVE",
"119 -30 OFFCURVE",
"143 0 CURVE",
"199 -20 OFFCURVE",
"271 -10 OFFCURVE",
"324 26 CURVE SMOOTH",
"392 73 OFFCURVE",
"452 163 OFFCURVE",
"490 246 CURVE SMOOTH",
"519 313 OFFCURVE",
"566 468 OFFCURVE",
"520 552 CURVE",
"554 611 OFFCURVE",
"573 663 OFFCURVE",
"521 663 CURVE SMOOTH",
"501 663 OFFCURVE",
"515 656 OFFCURVE",
"512 655 CURVE",
"507 642 OFFCURVE",
"496 621 OFFCURVE",
"480 594 CURVE",
"459 608 OFFCURVE",
"433 612 OFFCURVE",
"405 612 CURVE SMOOTH",
"180 612 OFFCURVE",
"43 321 OFFCURVE",
"54 126 CURVE SMOOTH",
"57 80 OFFCURVE",
"75 47 OFFCURVE",
"101 24 CURVE",
"50 -48 LINE SMOOTH",
"16 -95 OFFCURVE",
"78 -79 OFFCURVE",
"86 -70 CURVE SMOOTH"
);
},
{
closed = 1;
nodes = (
"194 28 OFFCURVE",
"185 36 OFFCURVE",
"180 50 CURVE",
"265 164 OFFCURVE",
"380 329 OFFCURVE",
"462 460 CURVE SMOOTH",
"473 477 LINE",
"465 415 OFFCURVE",
"440 336 OFFCURVE",
"411 274 CURVE SMOOTH",
"336 113 OFFCURVE",
"263 28 OFFCURVE",
"210 28 CURVE SMOOTH"
);
},
{
closed = 1;
nodes = (
"199 205 OFFCURVE",
"226 276 OFFCURVE",
"247 322 CURVE SMOOTH",
"270 375 OFFCURVE",
"369 574 OFFCURVE",
"440 574 CURVE SMOOTH",
"449 574 OFFCURVE",
"457 570 OFFCURVE",
"462 563 CURVE",
"398 457 OFFCURVE",
"284 289 OFFCURVE",
"185 144 CURVE"
);
}
);
width = 463;
}
);
note = Oslash;
},
{
glyphname = OE.001;
lastChange = "2021-08-21 18:45:25 +0000";
layers = (
{
layerId = "C623C401-2266-4A98-B253-3D45160C29C7";
paths = (
{
closed = 1;
nodes = (
"726 -58 OFFCURVE",
"856 66 OFFCURVE",
"898 167 CURVE SMOOTH",
"927 237 OFFCURVE",
"915 296 OFFCURVE",
"842 296 CURVE SMOOTH",
"780 296 OFFCURVE",
"694 233 OFFCURVE",
"664 140 CURVE SMOOTH",
"658 119 OFFCURVE",
"681 121 OFFCURVE",
"688 135 CURVE SMOOTH",
"727 222 OFFCURVE",
"785 267 OFFCURVE",
"824 267 CURVE SMOOTH",
"903 267 OFFCURVE",
"840 42 OFFCURVE",
"667 42 CURVE SMOOTH",
"608 42 OFFCURVE",
"558 73 OFFCURVE",
"558 149 CURVE SMOOTH",
"558 236 OFFCURVE",
"634 323 OFFCURVE",
"716 341 CURVE",
"724 337 OFFCURVE",
"743 324 OFFCURVE",
"763 324 CURVE SMOOTH",
"789 324 OFFCURVE",
"805 336 OFFCURVE",
"805 348 CURVE SMOOTH",
"805 355 OFFCURVE",
"798 361 OFFCURVE",
"780 361 CURVE SMOOTH",
"767 361 OFFCURVE",
"747 356 OFFCURVE",
"731 351 CURVE",
"726 356 OFFCURVE",
"725 376 OFFCURVE",
"728 387 CURVE",
"1015 372 OFFCURVE",
"1073 606 OFFCURVE",
"858 606 CURVE SMOOTH",
"795 606 OFFCURVE",
"726 585 OFFCURVE",
"677 543 CURVE",
"662 590 OFFCURVE",
"611 627 OFFCURVE",
"522 627 CURVE SMOOTH",
"361 627 OFFCURVE",
"237 517 OFFCURVE",
"169 388 CURVE",
"138 410 OFFCURVE",
"116 442 OFFCURVE",
"116 486 CURVE SMOOTH",
"116 528 OFFCURVE",
"144 562 OFFCURVE",
"184 562 CURVE SMOOTH",
"197 562 OFFCURVE",
"227 553 OFFCURVE",
"227 521 CURVE SMOOTH",
"227 515 OFFCURVE",
"237 521 OFFCURVE",
"237 533 CURVE SMOOTH",
"237 571 OFFCURVE",
"186 600 OFFCURVE",
"129 600 CURVE SMOOTH",
"49 600 OFFCURVE",
"0 555 OFFCURVE",
"0 500 CURVE SMOOTH",
"0 427 OFFCURVE",
"70 380 OFFCURVE",
"151 352 CURVE",
"124 290 OFFCURVE",
"110 226 OFFCURVE",
"110 169 CURVE SMOOTH",
"110 45 OFFCURVE",
"170 -10 OFFCURVE",
"247 -10 CURVE SMOOTH",
"298 -10 OFFCURVE",
"349 7 OFFCURVE",
"395 37 CURVE SMOOTH",
"397 38 OFFCURVE",
"399 39 OFFCURVE",
"401 41 CURVE",
"426 -28 OFFCURVE",
"498 -58 OFFCURVE",
"564 -58 CURVE SMOOTH"
);
},
{
closed = 1;
nodes = (
"246 32 OFFCURVE",
"233 64 OFFCURVE",
"241 113 CURVE SMOOTH",
"248 161 OFFCURVE",
"271 240 OFFCURVE",
"306 320 CURVE",
"322 318 OFFCURVE",
"337 318 OFFCURVE",
"350 318 CURVE SMOOTH",
"404 318 OFFCURVE",
"451 324 OFFCURVE",
"492 335 CURVE",
"487 315 OFFCURVE",
"481 295 OFFCURVE",
"474 275 CURVE",
"430 237 OFFCURVE",
"399 185 OFFCURVE",
"393 120 CURVE",
"355 68 OFFCURVE",
"313 32 OFFCURVE",
"279 32 CURVE SMOOTH"
);
},
{
closed = 1;
nodes = (
"374 467 OFFCURVE",
"457 581 OFFCURVE",
"555 581 CURVE SMOOTH",
"624 581 OFFCURVE",
"625 489 OFFCURVE",
"555 431 CURVE SMOOTH",
"446 341 OFFCURVE",
"399 346 OFFCURVE",
"327 346 CURVE SMOOTH",
"317 346 LINE"
);
},
{
closed = 1;
nodes = (
"579 345 OFFCURVE",
"580 358 OFFCURVE",
"581 371 CURVE",
"598 381 OFFCURVE",
"612 392 OFFCURVE",
"625 403 CURVE",
"636 378 OFFCURVE",
"658 357 OFFCURVE",
"684 350 CURVE",
"648 350 OFFCURVE",
"611 344 OFFCURVE",
"577 333 CURVE"
);
},
{
closed = 1;
nodes = (
"767 483 OFFCURVE",
"841 543 OFFCURVE",
"914 543 CURVE SMOOTH",
"1006 543 OFFCURVE",
"938 399 OFFCURVE",
"736 409 CURVE"
);
}
);
width = 898;
}
);
note = OE;
},
{
glyphname = P.001;
lastChange = "2021-08-21 18:45:25 +0000";
layers = (
{
hints = (
{
horizontal = 1;
place = "{195, 42}";
type = Stem;
},
{
horizontal = 1;
place = "{534, 75}";
type = Stem;
},
{
horizontal = 1;
place = "{596, -20}";
target = down;
type = TopGhost;
},
{
horizontal = 1;
place = "{609, -20}";
target = down;
type = TopGhost;
},
{
place = "{-35, 94}";
type = Stem;
},
{
place = "{120, 46}";
type = Stem;
},
{
place = "{356, 110}";
type = Stem;
}
);
layerId = "C623C401-2266-4A98-B253-3D45160C29C7";
paths = (
{
closed = 1;
nodes = (
"650 203 OFFCURVE",
"835 301 OFFCURVE",
"835 471 CURVE SMOOTH",
"835 626 OFFCURVE",
"629 644 OFFCURVE",
"514 644 CURVE SMOOTH",
"336 644 OFFCURVE",
"0 563 OFFCURVE",
"0 343 CURVE SMOOTH",
"0 271 OFFCURVE",
"52 238 OFFCURVE",
"113 238 CURVE SMOOTH",
"240 238 OFFCURVE",
"347 353 OFFCURVE",
"382 462 CURVE SMOOTH",
"389 483 OFFCURVE",
"374 507 OFFCURVE",
"363 481 CURVE SMOOTH",
"340 421 OFFCURVE",
"286 344 OFFCURVE",
"223 344 CURVE SMOOTH",
"92 344 OFFCURVE",
"137 619 OFFCURVE",
"506 619 CURVE SMOOTH",
"597 619 OFFCURVE",
"703 594 OFFCURVE",
"703 476 CURVE SMOOTH",
"703 343 OFFCURVE",
"619 241 OFFCURVE",
"480 234 CURVE SMOOTH",
"446 232 OFFCURVE",
"443 203 OFFCURVE",
"475 203 CURVE SMOOTH"
);
},
{
closed = 1;
nodes = (
"410 -46 OFFCURVE",
"407 -44 OFFCURVE",
"389 -37 CURVE SMOOTH",
"278 9 OFFCURVE",
"560 445 OFFCURVE",
"608 508 CURVE SMOOTH",
"615 518 OFFCURVE",
"597 525 OFFCURVE",
"555 524 CURVE SMOOTH",
"497 522 OFFCURVE",
"463 497 OFFCURVE",
"439 459 CURVE SMOOTH",
"366 337 OFFCURVE",
"280 204 OFFCURVE",
"280 56 CURVE SMOOTH",
"280 9 OFFCURVE",
"297 -32 OFFCURVE",
"339 -53 CURVE SMOOTH",
"360 -64 OFFCURVE",
"386 -69 OFFCURVE",
"402 -54 CURVE SMOOTH"
);
}
);
width = 724;
}
);
note = P;
},
{
glyphname = Thorn.001;
lastChange = "2021-08-21 18:45:25 +0000";
layers = (
{
hints = (
{
horizontal = 1;
place = "{151, 21}";
target = up;
type = BottomGhost;
},
{
horizontal = 1;
place = "{584, -20}";
target = down;
type = TopGhost;
},
{
horizontal = 1;
place = "{588, -20}";
target = down;
type = TopGhost;
},
{
place = "{-14, 97}";
type = Stem;
},
{
place = "{194, 100}";
type = Stem;
},
{
place = "{342, 128}";
type = Stem;
}
);
layerId = "C623C401-2266-4A98-B253-3D45160C29C7";
paths = (
{
closed = 1;
nodes = (
"119 -28 OFFCURVE",
"122 -22 OFFCURVE",
"117 -16 CURVE SMOOTH",
"102 0 OFFCURVE",
"125 96 OFFCURVE",
"179 191 CURVE SMOOTH",
"181 194 LINE",
"196 143 OFFCURVE",
"215 116 OFFCURVE",
"256 116 CURVE SMOOTH",
"304 116 OFFCURVE",
"339 147 OFFCURVE",
"366 186 CURVE SMOOTH",
"405 244 OFFCURVE",
"541 510 OFFCURVE",
"461 539 CURVE SMOOTH",
"430 550 OFFCURVE",
"406 557 OFFCURVE",
"388 543 CURVE SMOOTH",
"368 527 OFFCURVE",
"300 407 OFFCURVE",
"263 358 CURVE",
"282 395 OFFCURVE",
"362 567 OFFCURVE",
"368 585 CURVE SMOOTH",
"382 624 OFFCURVE",
"374 683 OFFCURVE",
"278 694 CURVE SMOOTH",
"268 695 OFFCURVE",
"266 692 OFFCURVE",
"270 687 CURVE SMOOTH",
"281 672 OFFCURVE",
"264 624 OFFCURVE",
"254 599 CURVE SMOOTH",
"231 540 OFFCURVE",
"15 112 OFFCURVE",
"16 52 CURVE SMOOTH",
"17 21 OFFCURVE",
"30 -5 OFFCURVE",
"70 -12 CURVE SMOOTH",
"84 -14 OFFCURVE",
"98 -18 OFFCURVE",
"109 -23 CURVE SMOOTH"
);
},
{
closed = 1;
nodes = (
"210 162 OFFCURVE",
"199 189 OFFCURVE",
"191 212 CURVE",
"233 284 OFFCURVE",
"317 415 OFFCURVE",
"357 467 CURVE",
"354 438 OFFCURVE",
"332 367 OFFCURVE",
"310 321 CURVE SMOOTH",
"286 272 OFFCURVE",
"239 148 OFFCURVE",
"222 156 CURVE SMOOTH"
);
}
);
width = 372;
}
);
note = Thorn;
},
{
glyphname = Q.001;
lastChange = "2021-08-21 18:45:25 +0000";
layers = (
{
hints = (
{
horizontal = 1;
place = "{-183, 21}";
target = up;
type = BottomGhost;
},
{
horizontal = 1;
place = "{5, 32}";
type = Stem;
},
{
horizontal = 1;
place = "{588, 29}";
type = Stem;
},
{
place = "{35, 120}";
type = Stem;
},
{
place = "{416, 89}";
type = Stem;
},
{
horizontal = 1;
place = "{5, 108}";
type = Stem;
}
);
layerId = "C623C401-2266-4A98-B253-3D45160C29C7";
paths = (
{
closed = 1;
nodes = (
"406 -10 OFFCURVE",
"568 157 OFFCURVE",
"581 371 CURVE",
"734 459 OFFCURVE",
"713 627 OFFCURVE",
"522 627 CURVE SMOOTH",
"361 627 OFFCURVE",
"237 517 OFFCURVE",
"169 388 CURVE",
"138 410 OFFCURVE",
"116 442 OFFCURVE",
"116 486 CURVE SMOOTH",
"116 528 OFFCURVE",
"144 562 OFFCURVE",
"184 562 CURVE SMOOTH",
"197 562 OFFCURVE",
"227 553 OFFCURVE",
"227 521 CURVE SMOOTH",
"227 515 OFFCURVE",
"237 521 OFFCURVE",
"237 533 CURVE SMOOTH",
"237 571 OFFCURVE",
"186 600 OFFCURVE",
"129 600 CURVE SMOOTH",
"49 600 OFFCURVE",
"0 555 OFFCURVE",
"0 500 CURVE SMOOTH",
"0 427 OFFCURVE",
"70 380 OFFCURVE",
"151 352 CURVE",
"124 290 OFFCURVE",
"110 226 OFFCURVE",
"110 169 CURVE SMOOTH",
"110 45 OFFCURVE",
"170 -10 OFFCURVE",
"247 -10 CURVE SMOOTH"
);
},
{
closed = 1;
nodes = (
"516 -331 OFFCURVE",
"549 -211 OFFCURVE",
"511 -146 CURVE",
"487 -184 OFFCURVE",
"435 -192 OFFCURVE",
"404 -175 CURVE SMOOTH",
"316 -125 OFFCURVE",
"239 -41 OFFCURVE",
"141 -22 CURVE SMOOTH",
"67 -7 OFFCURVE",
"13 -36 OFFCURVE",
"6 -92 CURVE SMOOTH",
"6 -96 OFFCURVE",
"8 -102 OFFCURVE",
"15 -96 CURVE SMOOTH",
"49 -65 OFFCURVE",
"114 -104 OFFCURVE",
"133 -119 CURVE SMOOTH",
"204 -178 OFFCURVE",
"290 -331 OFFCURVE",
"395 -331 CURVE SMOOTH"
);
},
{
closed = 1;
nodes = (
"246 32 OFFCURVE",
"233 64 OFFCURVE",
"241 113 CURVE SMOOTH",
"248 161 OFFCURVE",
"271 240 OFFCURVE",
"306 320 CURVE",
"322 318 OFFCURVE",
"337 318 OFFCURVE",
"350 318 CURVE SMOOTH",
"404 318 OFFCURVE",
"451 324 OFFCURVE",
"492 335 CURVE",
"460 197 OFFCURVE",
"352 32 OFFCURVE",
"279 32 CURVE SMOOTH"
);
},
{
closed = 1;
nodes = (
"374 467 OFFCURVE",
"457 581 OFFCURVE",
"555 581 CURVE SMOOTH",
"624 581 OFFCURVE",
"638 500 OFFCURVE",
"577 433 CURVE",
"565 475 OFFCURVE",
"534 509 OFFCURVE",
"493 509 CURVE SMOOTH",
"472 509 OFFCURVE",
"462 505 OFFCURVE",
"475 492 CURVE SMOOTH",
"498 467 OFFCURVE",
"505 426 OFFCURVE",
"500 379 CURVE",
"456 359 OFFCURVE",
"399 346 OFFCURVE",
"327 346 CURVE SMOOTH",
"317 346 LINE"
);
}
);
width = 532;
}
);
note = Q;
},
{
glyphname = R.001;
lastChange = "2021-08-21 18:45:25 +0000";
layers = (
{
hints = (
{
horizontal = 1;
place = "{-15, 21}";
target = up;
type = BottomGhost;
},
{
horizontal = 1;
place = "{294, 10}";
type = Stem;
},
{
horizontal = 1;
place = "{425, -20}";
target = down;
type = TopGhost;
},
{
horizontal = 1;
place = "{608, -20}";
target = down;
type = TopGhost;
},
{
place = "{49, 94}";
type = Stem;
},
{
place = "{244, 11}";
type = Stem;
},
{
place = "{324, 10}";
type = Stem;
},
{
place = "{414, 132}";
type = Stem;
}
);
layerId = "C623C401-2266-4A98-B253-3D45160C29C7";
paths = (
{
closed = 1;
nodes = (
"830 93 OFFCURVE",
"803 89 OFFCURVE",
"783 73 CURVE SMOOTH",
"705 9 OFFCURVE",
"673 185 OFFCURVE",
"664 290 CURVE",
"937 307 OFFCURVE",
"1032 644 OFFCURVE",
"601 644 CURVE SMOOTH",
"423 644 OFFCURVE",
"87 563 OFFCURVE",
"87 343 CURVE SMOOTH",
"87 271 OFFCURVE",
"139 238 OFFCURVE",
"200 238 CURVE SMOOTH",
"327 238 OFFCURVE",
"434 353 OFFCURVE",
"469 462 CURVE SMOOTH",
"476 483 OFFCURVE",
"461 507 OFFCURVE",
"450 481 CURVE SMOOTH",
"427 421 OFFCURVE",
"373 344 OFFCURVE",
"310 344 CURVE SMOOTH",
"179 344 OFFCURVE",
"224 619 OFFCURVE",
"593 619 CURVE SMOOTH",
"645 619 OFFCURVE",
"694 610 OFFCURVE",
"725 581 CURVE SMOOTH",
"749 559 OFFCURVE",
"763 526 OFFCURVE",
"763 476 CURVE SMOOTH",
"763 450 OFFCURVE",
"759 426 OFFCURVE",
"751 406 CURVE SMOOTH",
"725 338 OFFCURVE",
"659 302 OFFCURVE",
"579 292 CURVE",
"575 276 OFFCURVE",
"570 248 OFFCURVE",
"566 197 CURVE SMOOTH",
"543 -114 OFFCURVE",
"716 -69 OFFCURVE",
"794 42 CURVE SMOOTH"
);
},
{
closed = 1;
nodes = (
"454 -125 OFFCURVE",
"548 244 OFFCURVE",
"590 451 CURVE SMOOTH",
"606 525 OFFCURVE",
"626 577 OFFCURVE",
"643 589 CURVE SMOOTH",
"650 594 OFFCURVE",
"644 601 OFFCURVE",
"635 601 CURVE SMOOTH",
"627 601 OFFCURVE",
"618 598 OFFCURVE",
"609 592 CURVE SMOOTH",
"503 531 OFFCURVE",
"432 291 OFFCURVE",
"376 183 CURVE SMOOTH",
"346 123 OFFCURVE",
"311 66 OFFCURVE",
"271 23 CURVE SMOOTH",
"230 -23 OFFCURVE",
"170 -60 OFFCURVE",
"120 -60 CURVE SMOOTH",
"56 -60 OFFCURVE",
"37 -13 OFFCURVE",
"61 41 CURVE SMOOTH",
"75 74 OFFCURVE",
"117 113 OFFCURVE",
"154 125 CURVE SMOOTH",
"177 133 OFFCURVE",
"177 153 OFFCURVE",
"152 149 CURVE SMOOTH",
"79 135 OFFCURVE",
"0 74 OFFCURVE",
"0 -7 CURVE SMOOTH",
"0 -97 OFFCURVE",
"80 -125 OFFCURVE",
"159 -125 CURVE SMOOTH"
);
}
);
width = 812;
}
);
note = R;
},
{
glyphname = S.001;
lastChange = "2021-08-21 18:45:25 +0000";
layers = (
{
hints = (
{
horizontal = 1;
place = "{-24, 31}";
type = Stem;
},
{
horizontal = 1;
place = "{545, 41}";
type = Stem;
},
{
horizontal = 1;
place = "{545, 75}";
type = Stem;
},
{
place = "{9, 89}";
type = Stem;
},
{
place = "{139, 151}";
type = Stem;
},
{
place = "{260, 122}";
type = Stem;
},
{
place = "{386, 29}";
type = Stem;
}
);
layerId = "C623C401-2266-4A98-B253-3D45160C29C7";
paths = (
{
closed = 1;
nodes = (
"55 -48 OFFCURVE",
"38 232 OFFCURVE",
"216 266 CURVE SMOOTH",
"227 268 OFFCURVE",
"239 269 OFFCURVE",
"252 269 CURVE SMOOTH",
"342 269 OFFCURVE",
"345 196 OFFCURVE",
"302 139 CURVE SMOOTH",
"275 103 OFFCURVE",
"229 73 OFFCURVE",
"188 73 CURVE SMOOTH",
"166 73 OFFCURVE",
"177 55 OFFCURVE",
"207 56 CURVE SMOOTH",
"376 62 OFFCURVE",
"457 316 OFFCURVE",
"227 308 CURVE SMOOTH",
"79 302 OFFCURVE",
"0 207 OFFCURVE",
"0 110 CURVE SMOOTH",
"0 -154 OFFCURVE",
"512 -168 OFFCURVE",
"648 61 CURVE SMOOTH",
"670 97 OFFCURVE",
"682 133 OFFCURVE",
"682 167 CURVE SMOOTH",
"682 329 OFFCURVE",
"405 362 OFFCURVE",
"405 499 CURVE SMOOTH",
"405 567 OFFCURVE",
"473 601 OFFCURVE",
"533 600 CURVE SMOOTH",
"657 600 OFFCURVE",
"661 467 OFFCURVE",
"586 432 CURVE SMOOTH",
"557 418 OFFCURVE",
"575 406 OFFCURVE",
"582 408 CURVE SMOOTH",
"673 430 OFFCURVE",
"736 492 OFFCURVE",
"736 553 CURVE SMOOTH",
"736 601 OFFCURVE",
"675 645 OFFCURVE",
"570 645 CURVE SMOOTH",
"449 645 OFFCURVE",
"283 593 OFFCURVE",
"278 442 CURVE SMOOTH",
"276 351 OFFCURVE",
"341 309 OFFCURVE",
"402 264 CURVE SMOOTH",
"495 196 OFFCURVE",
"525 144 OFFCURVE",
"525 91 CURVE SMOOTH",
"525 13 OFFCURVE",
"438 -48 OFFCURVE",
"314 -48 CURVE SMOOTH"
);
}
);
width = 685;
}
);
note = S;
},
{
glyphname = Germandbls.001;
lastChange = "2021-08-21 18:45:25 +0000";
layers = (
{
hints = (
{
horizontal = 1;
place = "{-164, 45}";
type = Stem;
},
{
horizontal = 1;
place = "{9, 33}";
type = Stem;
},
{
horizontal = 1;
place = "{501, 51}";
type = Stem;
},
{
place = "{410, 64}";
type = Stem;
},
{
place = "{290, 130}";
type = Stem;
}
);
layerId = "C623C401-2266-4A98-B253-3D45160C29C7";
paths = (
{
closed = 1;
nodes = (
"27 -74 OFFCURVE",
"80 -39 OFFCURVE",
"122 21 CURVE SMOOTH",
"170 90 OFFCURVE",
"188 146 OFFCURVE",
"232 257 CURVE SMOOTH",
"251 304 OFFCURVE",
"322 501 OFFCURVE",
"379 501 CURVE SMOOTH",
"442 501 OFFCURVE",
"397 359 OFFCURVE",
"360 335 CURVE SMOOTH",
"336 319 OFFCURVE",
"314 331 OFFCURVE",
"298 311 CURVE SMOOTH",
"287 298 OFFCURVE",
"279 277 OFFCURVE",
"282 246 CURVE SMOOTH",
"285 211 OFFCURVE",
"313 42 OFFCURVE",
"243 42 CURVE SMOOTH",
"228 42 OFFCURVE",
"220 56 OFFCURVE",
"215 69 CURVE SMOOTH",
"205 97 OFFCURVE",
"179 82 OFFCURVE",
"190 64 CURVE SMOOTH",
"210 32 OFFCURVE",
"243 12 OFFCURVE",
"275 9 CURVE SMOOTH",
"368 0 OFFCURVE",
"413 48 OFFCURVE",
"420 112 CURVE SMOOTH",
"426 170 OFFCURVE",
"399 258 OFFCURVE",
"383 317 CURVE",
"427 334 OFFCURVE",
"495 392 OFFCURVE",
"495 471 CURVE SMOOTH",
"495 535 OFFCURVE",
"427 552 OFFCURVE",
"349 552 CURVE SMOOTH",
"192 552 OFFCURVE",
"142 356 OFFCURVE",
"99 236 CURVE SMOOTH",
"74 163 OFFCURVE",
"80 181 OFFCURVE",
"64 141 CURVE SMOOTH",
"21 35 OFFCURVE",
"-47 -71 OFFCURVE",
"-118 -13 CURVE SMOOTH",
"-133 -1 OFFCURVE",
"-145 -13 OFFCURVE",
"-135 -32 CURVE SMOOTH",
"-118 -66 OFFCURVE",
"-79 -74 OFFCURVE",
"-43 -74 CURVE SMOOTH"
);
}
);
width = 461;
}
);
},
{
glyphname = T.001;
lastChange = "2021-08-21 18:45:25 +0000";
layers = (
{
hints = (
{
horizontal = 1;
place = "{525, 71}";
type = Stem;
},
{
horizontal = 1;
place = "{525, 89}";
type = Stem;
},
{
place = "{60, 93}";
type = Stem;
}
);
layerId = "C623C401-2266-4A98-B253-3D45160C29C7";
paths = (
{
closed = 1;
nodes = (
"545 -96 OFFCURVE",
"540 322 OFFCURVE",
"687 511 CURVE",
"701 510 OFFCURVE",
"720 509 OFFCURVE",
"740 509 CURVE SMOOTH",
"843 509 OFFCURVE",
"844 586 OFFCURVE",
"772 586 CURVE SMOOTH",
"732 586 OFFCURVE",
"697 558 OFFCURVE",
"678 544 CURVE",
"567 577 OFFCURVE",
"363 627 OFFCURVE",
"247 589 CURVE SMOOTH",
"162 561 OFFCURVE",
"93 496 OFFCURVE",
"93 404 CURVE SMOOTH",
"93 319 OFFCURVE",
"157 284 OFFCURVE",
"222 284 CURVE SMOOTH",
"300 284 OFFCURVE",
"380 338 OFFCURVE",
"412 441 CURVE",
"416 458 OFFCURVE",
"402 477 OFFCURVE",
"395 456 CURVE SMOOTH",
"375 404 OFFCURVE",
"335 358 OFFCURVE",
"272 358 CURVE SMOOTH",
"196 358 OFFCURVE",
"220 479 OFFCURVE",
"339 511 CURVE SMOOTH",
"423 533 OFFCURVE",
"572 528 OFFCURVE",
"659 518 CURVE",
"496 410 OFFCURVE",
"418 8 OFFCURVE",
"202 8 CURVE SMOOTH",
"35 8 OFFCURVE",
"57 240 OFFCURVE",
"170 233 CURVE SMOOTH",
"198 232 OFFCURVE",
"223 212 OFFCURVE",
"223 167 CURVE SMOOTH",
"223 123 OFFCURVE",
"199 74 OFFCURVE",
"161 76 CURVE SMOOTH",
"151 76 OFFCURVE",
"152 63 OFFCURVE",
"167 63 CURVE SMOOTH",
"230 59 OFFCURVE",
"264 113 OFFCURVE",
"264 167 CURVE SMOOTH",
"264 224 OFFCURVE",
"225 252 OFFCURVE",
"177 255 CURVE SMOOTH",
"-42 267 OFFCURVE",
"-69 -96 OFFCURVE",
"222 -96 CURVE SMOOTH"
);
}
);
width = 589;
}
);
note = T;
},
{
glyphname = U.001;
lastChange = "2021-08-21 18:45:25 +0000";
layers = (
{
hints = (
{
horizontal = 1;
place = "{-24, 10}";
type = Stem;
},
{
horizontal = 1;
place = "{-14, 21}";
target = up;
type = BottomGhost;
},
{
horizontal = 1;
place = "{596, -20}";
target = down;
type = TopGhost;
},
{
horizontal = 1;
place = "{601, -20}";
target = down;
type = TopGhost;
},
{
place = "{31, 124}";
type = Stem;
},
{
place = "{203, 131}";
type = Stem;
},
{
place = "{285, 118}";
type = Stem;
}
);
layerId = "C623C401-2266-4A98-B253-3D45160C29C7";
paths = (
{
closed = 1;
nodes = (
"594 -28 OFFCURVE",
"611 -26 OFFCURVE",
"629 -20 CURVE SMOOTH",
"650 -14 OFFCURVE",
"653 3 OFFCURVE",
"638 0 CURVE SMOOTH",
"620 -4 OFFCURVE",
"620 37 OFFCURVE",
"630 80 CURVE SMOOTH",
"664 225 OFFCURVE",
"770 459 OFFCURVE",
"857 578 CURVE SMOOTH",
"865 589 OFFCURVE",
"845 598 OFFCURVE",
"799 597 CURVE SMOOTH",
"733 594 OFFCURVE",
"719 586 OFFCURVE",
"681 523 CURVE SMOOTH",
"674 510 OFFCURVE",
"659 479 OFFCURVE",
"637 440 CURVE SMOOTH",
"608 389 OFFCURVE",
"449 85 OFFCURVE",
"377 85 CURVE SMOOTH",
"359 85 OFFCURVE",
"354 107 OFFCURVE",
"384 172 CURVE SMOOTH",
"451 322 OFFCURVE",
"528 454 OFFCURVE",
"542 496 CURVE SMOOTH",
"588 632 OFFCURVE",
"407 612 OFFCURVE",
"316 586 CURVE SMOOTH",
"61 514 OFFCURVE",
"-88 225 OFFCURVE",
"57 218 CURVE SMOOTH",
"181 212 OFFCURVE",
"264 348 OFFCURVE",
"300 434 CURVE SMOOTH",
"309 453 OFFCURVE",
"301 473 OFFCURVE",
"290 449 CURVE SMOOTH",
"264 395 OFFCURVE",
"206 312 OFFCURVE",
"161 314 CURVE SMOOTH",
"77 318 OFFCURVE",
"224 562 OFFCURVE",
"357 562 CURVE SMOOTH",
"387 562 OFFCURVE",
"419 549 OFFCURVE",
"419 500 CURVE SMOOTH",
"419 394 OFFCURVE",
"245 218 OFFCURVE",
"245 76 CURVE SMOOTH",
"245 36 OFFCURVE",
"257 6 OFFCURVE",
"296 -8 CURVE SMOOTH",
"396 -44 OFFCURVE",
"511 182 OFFCURVE",
"556 247 CURVE",
"549 230 OFFCURVE",
"540 205 OFFCURVE",
"536 194 CURVE SMOOTH",
"508 115 OFFCURVE",
"475 -28 OFFCURVE",
"580 -28 CURVE SMOOTH"
);
}
);
width = 692;
}
);
note = U;
rightKerningGroup = U;
},
{
glyphname = V.001;
lastChange = "2021-08-21 18:45:25 +0000";
layers = (
{
hints = (
{
horizontal = 1;
place = "{-14, 43}";
type = Stem;
},
{
horizontal = 1;
place = "{544, 11}";
type = Stem;
},
{
horizontal = 1;
place = "{591, -20}";
target = down;
type = TopGhost;
},
{
place = "{13, 102}";
type = Stem;
},
{
place = "{403, 112}";
type = Stem;
}
);
layerId = "C623C401-2266-4A98-B253-3D45160C29C7";
paths = (
{
closed = 1;
nodes = (
"590 -52 OFFCURVE",
"845 377 OFFCURVE",
"841 523 CURVE SMOOTH",
"837 654 OFFCURVE",
"750 676 OFFCURVE",
"706 624 CURVE",
"800 440 OFFCURVE",
"606 53 OFFCURVE",
"487 38 CURVE SMOOTH",
"403 27 OFFCURVE",
"469 155 OFFCURVE",
"486 183 CURVE SMOOTH",
"542 277 OFFCURVE",
"630 389 OFFCURVE",
"635 511 CURVE SMOOTH",
"640 609 OFFCURVE",
"594 650 OFFCURVE",
"462 649 CURVE SMOOTH",
"167 647 OFFCURVE",
"0 444 OFFCURVE",
"0 295 CURVE SMOOTH",
"0 217 OFFCURVE",
"47 158 OFFCURVE",
"149 161 CURVE SMOOTH",
"187 163 OFFCURVE",
"228 181 OFFCURVE",
"270 219 CURVE SMOOTH",
"289 237 OFFCURVE",
"280 257 OFFCURVE",
"267 245 CURVE SMOOTH",
"245 225 OFFCURVE",
"223 215 OFFCURVE",
"204 215 CURVE SMOOTH",
"151 215 OFFCURVE",
"130 251 OFFCURVE",
"130 302 CURVE SMOOTH",
"130 552 OFFCURVE",
"510 711 OFFCURVE",
"523 584 CURVE SMOOTH",
"531 498 OFFCURVE",
"277 217 OFFCURVE",
"290 39 CURVE SMOOTH",
"294 -15 OFFCURVE",
"314 -62 OFFCURVE",
"387 -59 CURVE SMOOTH"
);
}
);
width = 731;
}
);
note = V;
},
{
glyphname = W.001;
lastChange = "2021-08-21 18:45:25 +0000";
layers = (
{
hints = (
{
horizontal = 1;
place = "{-9, 87}";
type = Stem;
},
{
horizontal = 1;
place = "{590, 12}";
type = Stem;
},
{
place = "{-12, 123}";
type = Stem;
},
{
place = "{255, 98}";
type = Stem;
},
{
place = "{612, 132}";
type = Stem;
},
{
horizontal = 1;
place = "{-14, 41}";
type = Stem;
}
);
layerId = "C623C401-2266-4A98-B253-3D45160C29C7";
paths = (
{
closed = 1;
nodes = (
"500 -47 OFFCURVE",
"575 44 OFFCURVE",
"636 150 CURVE",
"621 47 OFFCURVE",
"642 -38 OFFCURVE",
"750 -38 CURVE SMOOTH",
"890 -38 OFFCURVE",
"1055 211 OFFCURVE",
"1117 373 CURVE SMOOTH",
"1155 473 OFFCURVE",
"1182 632 OFFCURVE",
"1029 602 CURVE SMOOTH",
"1014 600 OFFCURVE",
"1008 584 OFFCURVE",
"1022 584 CURVE SMOOTH",
"1080 584 OFFCURVE",
"976 291 OFFCURVE",
"946 224 CURVE SMOOTH",
"893 109 OFFCURVE",
"832 13 OFFCURVE",
"784 13 CURVE SMOOTH",
"720 13 OFFCURVE",
"819 359 OFFCURVE",
"939 517 CURVE SMOOTH",
"946 525 OFFCURVE",
"795 557 OFFCURVE",
"763 497 CURVE SMOOTH",
"703 388 OFFCURVE",
"580 27 OFFCURVE",
"467 27 CURVE SMOOTH",
"455 27 OFFCURVE",
"446 36 OFFCURVE",
"446 58 CURVE SMOOTH",
"444 141 OFFCURVE",
"551 275 OFFCURVE",
"606 395 CURVE SMOOTH",
"681 561 OFFCURVE",
"648 650 OFFCURVE",
"462 649 CURVE SMOOTH",
"167 647 OFFCURVE",
"0 444 OFFCURVE",
"0 295 CURVE SMOOTH",
"0 217 OFFCURVE",
"47 158 OFFCURVE",
"149 161 CURVE SMOOTH",
"187 163 OFFCURVE",
"228 181 OFFCURVE",
"270 219 CURVE SMOOTH",
"289 237 OFFCURVE",
"280 257 OFFCURVE",
"267 245 CURVE SMOOTH",
"245 225 OFFCURVE",
"223 215 OFFCURVE",
"204 215 CURVE SMOOTH",
"151 215 OFFCURVE",
"130 251 OFFCURVE",
"130 302 CURVE SMOOTH",
"130 492 OFFCURVE",
"352 629 OFFCURVE",
"460 629 CURVE SMOOTH",
"557 629 OFFCURVE",
"513 535 OFFCURVE",
"487 485 CURVE SMOOTH",
"425 367 OFFCURVE",
"299 192 OFFCURVE",
"299 64 CURVE SMOOTH",
"299 0 OFFCURVE",
"328 -47 OFFCURVE",
"394 -47 CURVE SMOOTH"
);
}
);
width = 1072;
}
);
note = W;
},
{
glyphname = X.001;
lastChange = "2021-08-21 18:45:25 +0000";
layers = (
{
hints = (
{
horizontal = 1;
place = "{-11, 21}";
target = up;
type = BottomGhost;
},
{
horizontal = 1;
place = "{237, 39}";
type = Stem;
},
{
place = "{149, 126}";
type = Stem;
},
{
horizontal = 1;
place = "{-3, 95}";
type = Stem;
}
);
layerId = "C623C401-2266-4A98-B253-3D45160C29C7";
paths = (
{
closed = 1;
nodes = (
"244 0 OFFCURVE",
"338 113 OFFCURVE",
"395 192 CURVE",
"395 76 OFFCURVE",
"419 -3 OFFCURVE",
"507 -3 CURVE SMOOTH",
"562 -3 OFFCURVE",
"595 41 OFFCURVE",
"626 85 CURVE SMOOTH",
"670 147 OFFCURVE",
"645 150 OFFCURVE",
"627 127 CURVE SMOOTH",
"586 71 OFFCURVE",
"555 90 OFFCURVE",
"537 132 CURVE SMOOTH",
"524 164 OFFCURVE",
"519 220 OFFCURVE",
"518 280 CURVE",
"586 344 OFFCURVE",
"724 536 OFFCURVE",
"746 641 CURVE SMOOTH",
"756 688 OFFCURVE",
"673 673 OFFCURVE",
"666 650 CURVE SMOOTH",
"633 532 OFFCURVE",
"543 354 OFFCURVE",
"514 325 CURVE",
"510 504 OFFCURVE",
"488 626 OFFCURVE",
"311 639 CURVE SMOOTH",
"-39 664 OFFCURVE",
"-79 194 OFFCURVE",
"121 179 CURVE SMOOTH",
"168 176 OFFCURVE",
"207 193 OFFCURVE",
"238 228 CURVE SMOOTH",
"253 244 OFFCURVE",
"245 264 OFFCURVE",
"235 253 CURVE SMOOTH",
"218 235 OFFCURVE",
"200 226 OFFCURVE",
"184 227 CURVE SMOOTH",
"42 237 OFFCURVE",
"120 621 OFFCURVE",
"290 610 CURVE SMOOTH",
"403 603 OFFCURVE",
"396 317 OFFCURVE",
"391 247 CURVE",
"316 149 OFFCURVE",
"201 43 OFFCURVE",
"164 20 CURVE SMOOTH",
"127 -3 OFFCURVE",
"188 -16 OFFCURVE",
"217 -8 CURVE SMOOTH"
);
}
);
width = 625;
}
);
note = X;
},
{
glyphname = Y.001;
lastChange = "2021-08-21 18:45:25 +0000";
layers = (
{
hints = (
{
horizontal = 1;
place = "{596, -20}";
target = down;
type = TopGhost;
},
{
horizontal = 1;
place = "{601, -20}";
target = down;
type = TopGhost;
},
{
place = "{12, 124}";
type = Stem;
},
{
place = "{193, 89}";
type = Stem;
},
{
place = "{204, 113}";
type = Stem;
}
);
layerId = "C623C401-2266-4A98-B253-3D45160C29C7";
paths = (
{
closed = 1;
nodes = (
"516 -325 OFFCURVE",
"614 55 OFFCURVE",
"664 265 CURVE SMOOTH",
"696 400 OFFCURVE",
"712 499 OFFCURVE",
"763 551 CURVE SMOOTH",
"803 590 OFFCURVE",
"843 573 OFFCURVE",
"859 606 CURVE SMOOTH",
"867 625 OFFCURVE",
"841 650 OFFCURVE",
"795 629 CURVE SMOOTH",
"707 589 OFFCURVE",
"544 239 OFFCURVE",
"460 139 CURVE SMOOTH",
"409 79 OFFCURVE",
"321 33 OFFCURVE",
"384 172 CURVE SMOOTH",
"408 226 OFFCURVE",
"458 314 OFFCURVE",
"488 362 CURVE SMOOTH",
"628 585 OFFCURVE",
"519 643 OFFCURVE",
"316 586 CURVE SMOOTH",
"61 514 OFFCURVE",
"-88 225 OFFCURVE",
"57 218 CURVE SMOOTH",
"181 212 OFFCURVE",
"264 348 OFFCURVE",
"300 434 CURVE SMOOTH",
"309 453 OFFCURVE",
"301 473 OFFCURVE",
"290 449 CURVE SMOOTH",
"264 395 OFFCURVE",
"206 312 OFFCURVE",
"161 314 CURVE SMOOTH",
"77 318 OFFCURVE",
"224 562 OFFCURVE",
"357 562 CURVE SMOOTH",
"432 562 OFFCURVE",
"426 486 OFFCURVE",
"405 440 CURVE SMOOTH",
"363 344 OFFCURVE",
"256 228 OFFCURVE",
"246 109 CURVE SMOOTH",
"243 61 OFFCURVE",
"267 10 OFFCURVE",
"338 10 CURVE SMOOTH",
"455 10 OFFCURVE",
"534 195 OFFCURVE",
"578 261 CURVE",
"507 60 OFFCURVE",
"368 -228 OFFCURVE",
"243 -228 CURVE SMOOTH",
"98 -228 OFFCURVE",
"128 -7 OFFCURVE",
"225 -14 CURVE SMOOTH",
"251 -15 OFFCURVE",
"271 -35 OFFCURVE",
"269 -77 CURVE SMOOTH",
"267 -119 OFFCURVE",
"244 -165 OFFCURVE",
"210 -163 CURVE SMOOTH",
"202 -162 OFFCURVE",
"202 -170 OFFCURVE",
"215 -171 CURVE SMOOTH",
"268 -175 OFFCURVE",
"299 -126 OFFCURVE",
"301 -79 CURVE SMOOTH",
"304 -27 OFFCURVE",
"272 -2 OFFCURVE",
"232 1 CURVE SMOOTH",
"137 7 OFFCURVE",
"75 -80 OFFCURVE",
"75 -163 CURVE SMOOTH",
"75 -266 OFFCURVE",
"144 -325 OFFCURVE",
"252 -325 CURVE SMOOTH"
);
}
);
width = 641;
}
);
note = Y;
},
{
glyphname = Z.001;
lastChange = "2021-08-21 18:45:25 +0000";
layers = (
{
hints = (
{
horizontal = 1;
place = "{-19, 102}";
type = Stem;
},
{
horizontal = 1;
place = "{-12, 21}";
target = up;
type = BottomGhost;
},
{
horizontal = 1;
place = "{247, 92}";
type = Stem;
},
{
horizontal = 1;
place = "{485, 95}";
type = Stem;
},
{
horizontal = 1;
place = "{601, -20}";
target = down;
type = TopGhost;
},
{
place = "{542, 23}";
type = Stem;
}
);
layerId = "C623C401-2266-4A98-B253-3D45160C29C7";
paths = (
{
closed = 1;
nodes = (
"143 -371 OFFCURVE",
"364 -320 OFFCURVE",
"474 -242 CURVE SMOOTH",
"692 -89 OFFCURVE",
"730 223 OFFCURVE",
"543 223 CURVE SMOOTH",
"512 223 OFFCURVE",
"476 217 OFFCURVE",
"438 200 CURVE",
"483 231 OFFCURVE",
"710 368 OFFCURVE",
"710 511 CURVE SMOOTH",
"710 586 OFFCURVE",
"618 605 OFFCURVE",
"544 605 CURVE SMOOTH",
"290 605 OFFCURVE",
"136 442 OFFCURVE",
"136 349 CURVE SMOOTH",
"136 304 OFFCURVE",
"165 287 OFFCURVE",
"201 287 CURVE SMOOTH",
"272 287 OFFCURVE",
"327 318 OFFCURVE",
"377 366 CURVE SMOOTH",
"404 392 OFFCURVE",
"381 399 OFFCURVE",
"376 396 CURVE SMOOTH",
"350 376 OFFCURVE",
"314 361 OFFCURVE",
"293 366 CURVE SMOOTH",
"215 385 OFFCURVE",
"383 574 OFFCURVE",
"506 574 CURVE SMOOTH",
"702 574 OFFCURVE",
"424 241 OFFCURVE",
"357 189 CURVE SMOOTH",
"342 177 OFFCURVE",
"358 117 OFFCURVE",
"373 131 CURVE SMOOTH",
"388 144 OFFCURVE",
"404 155 OFFCURVE",
"420 163 CURVE SMOOTH",
"489 199 OFFCURVE",
"523 139 OFFCURVE",
"510 59 CURVE SMOOTH",
"488 -70 OFFCURVE",
"357 -260 OFFCURVE",
"145 -260 CURVE SMOOTH",
"22 -260 OFFCURVE",
"84 -135 OFFCURVE",
"139 -87 CURVE SMOOTH",
"223 -15 OFFCURVE",
"367 29 OFFCURVE",
"453 43 CURVE SMOOTH",
"494 49 OFFCURVE",
"476 66 OFFCURVE",
"458 66 CURVE SMOOTH",
"368 67 OFFCURVE",
"193 27 OFFCURVE",
"87 -52 CURVE SMOOTH",
"-12 -126 OFFCURVE",
"-22 -216 OFFCURVE",
"38 -272 CURVE SMOOTH"
);
}
);
width = 684;
}
);
note = Z;
},
{
glyphname = A.ss01;
lastChange = "2021-08-21 18:45:25 +0000";
layers = (
{
anchors = (
{
name = bottom;
position = "{542, 0}";
},
{
name = ogonek;
position = "{830, 22}";
},
{
name = top;
position = "{1196, 642}";
}
);
layerId = "C623C401-2266-4A98-B253-3D45160C29C7";
paths = (
{
closed = 1;
nodes = (
"313.667 -76 OFFCURVE",
"388.833 -52.333 OFFCURVE",
"457.5 -7 CURVE SMOOTH",
"526.167 38.333 OFFCURVE",
"590 106 OFFCURVE",
"654 195 CURVE SMOOTH",
"695.5 253 LINE SMOOTH",
"712 276 OFFCURVE",
"729.667 300.667 OFFCURVE",
"749 326 CURVE",
"841 320 LINE",
"822.333 268 OFFCURVE",
"810 219.667 OFFCURVE",
"802 181 CURVE SMOOTH",
"791.333 141 OFFCURVE",
"777.667 106.333 OFFCURVE",
"759 81 CURVE SMOOTH",
"732.333 49 OFFCURVE",
"694.667 37.333 OFFCURVE",
"660 40 CURVE SMOOTH",
"648 40 OFFCURVE",
"642 30 OFFCURVE",
"642 19 CURVE SMOOTH",
"642 9 OFFCURVE",
"648 -1 OFFCURVE",
"660 -1 CURVE",
"678 10 OFFCURVE",
"702 14 OFFCURVE",
"726 14 CURVE SMOOTH",
"754 14 OFFCURVE",
"783 8 OFFCURVE",
"805 1 CURVE SMOOTH",
"836 -9 OFFCURVE",
"862 -14 OFFCURVE",
"885 -14 CURVE SMOOTH",
"943 -14 OFFCURVE",
"981 16 OFFCURVE",
"1015 68 CURVE SMOOTH",
"1043 110.667 OFFCURVE",
"1065.667 151.333 OFFCURVE",
"1087 194 CURVE SMOOTH",
"1089 198 OFFCURVE",
"1090 202 OFFCURVE",
"1090 205 CURVE SMOOTH",
"1090 212 OFFCURVE",
"1085 216 OFFCURVE",
"1079 216 CURVE SMOOTH",
"1073 216 OFFCURVE",
"1065 211 OFFCURVE",
"1060 200 CURVE SMOOTH",
"1053.333 184 OFFCURVE",
"1041.667 164.667 OFFCURVE",
"1023 134 CURVE SMOOTH",
"992.822 78.673 OFFCURVE",
"948.204 65.9 OFFCURVE",
"896 63 CURVE SMOOTH",
"890.667 62.333 OFFCURVE",
"881.333 62 OFFCURVE",
"868 62 CURVE SMOOTH",
"854.667 62 OFFCURVE",
"841 62 OFFCURVE",
"827 61 CURVE SMOOTH",
"773 59 LINE",
"850.746 77.766 OFFCURVE",
"890.161 144.321 OFFCURVE",
"926 216 CURVE SMOOTH",
"934 233.333 OFFCURVE",
"941 250 OFFCURVE",
"948.5 267 CURVE SMOOTH",
"970 318 LINE",
"1007.333 319.333 OFFCURVE",
"1049 322 OFFCURVE",
"1077 330 CURVE SMOOTH",
"1084 332 OFFCURVE",
"1088 338 OFFCURVE",
"1088 343 CURVE SMOOTH",
"1088 347 OFFCURVE",
"1085 351 OFFCURVE",
"1079 351 CURVE SMOOTH",
"1076 351 LINE",
"1044.667 344.333 OFFCURVE",
"1012.333 341 OFFCURVE",
"979 341 CURVE",
"1009.667 418.333 OFFCURVE",
"1040 492.667 OFFCURVE",
"1084 562 CURVE",
"1095 584 OFFCURVE",
"1138 625 OFFCURVE",
"1176 625 CURVE SMOOTH",
"1180 625 OFFCURVE",
"1183 625 OFFCURVE",
"1187 624 CURVE SMOOTH",
"1191 622 OFFCURVE",
"1195 621 OFFCURVE",
"1198 621 CURVE SMOOTH",
"1207 621 OFFCURVE",
"1213 629 OFFCURVE",
"1213 637 CURVE SMOOTH",
"1213 644 OFFCURVE",
"1207 652 OFFCURVE",
"1193 653 CURVE SMOOTH",
"1081 659.667 OFFCURVE",
"994.333 624.167 OFFCURVE",
"921 567.5 CURVE SMOOTH",
"847.667 510.833 OFFCURVE",
"787 432 OFFCURVE",
"727 352 CURVE",
"685 354 OFFCURVE",
"643 356 OFFCURVE",
"602 356 CURVE SMOOTH",
"576 356 OFFCURVE",
"551 356 OFFCURVE",
"527 354 CURVE",
"521.018 434.757 OFFCURVE",
"450.516 500 OFFCURVE",
"340 500 CURVE SMOOTH",
"250.667 500 OFFCURVE",
"157.5 465.167 OFFCURVE",
"87.5 404.5 CURVE SMOOTH",
"17.5 343.833 OFFCURVE",
"-31 257.667 OFFCURVE",
"-31 155 CURVE SMOOTH",
"-31 1.192 OFFCURVE",
"89.179 -76 OFFCURVE",
"227 -76 CURVE SMOOTH"
);
},
{
closed = 1;
nodes = (
"176.186 39 OFFCURVE",
"113 110.091 OFFCURVE",
"113 209 CURVE SMOOTH",
"113 337.694 OFFCURVE",
"226.086 465 OFFCURVE",
"356 465 CURVE SMOOTH",
"445.248 465 OFFCURVE",
"483.022 415.238 OFFCURVE",
"477 349 CURVE",
"446.333 343.667 OFFCURVE",
"416 338.333 OFFCURVE",
"388 329 CURVE SMOOTH",
"328.844 308.424 OFFCURVE",
"272 269.385 OFFCURVE",
"272 215 CURVE SMOOTH",
"272 175.175 OFFCURVE",
"297.17 149 OFFCURVE",
"354 149 CURVE SMOOTH",
"440.584 149 OFFCURVE",
"511.928 229.878 OFFCURVE",
"525 324 CURVE",
"562 328 OFFCURVE",
"600 330 OFFCURVE",
"637 330 CURVE SMOOTH",
"661 330 OFFCURVE",
"685 329 OFFCURVE",
"709 328 CURVE",
"653 254.667 OFFCURVE",
"598 182.5 OFFCURVE",
"534 128.5 CURVE SMOOTH",
"470 74.5 OFFCURVE",
"398 39 OFFCURVE",
"306 39 CURVE SMOOTH"
);
},
{
closed = 1;
nodes = (
"356.333 217 OFFCURVE",
"347 223.667 OFFCURVE",
"347 237 CURVE SMOOTH",
"347 259.667 OFFCURVE",
"379 289 OFFCURVE",
"415 301 CURVE SMOOTH",
"431 306.333 OFFCURVE",
"449.333 311.333 OFFCURVE",
"470 316 CURVE",
"454.929 265.763 OFFCURVE",
"416.229 217 OFFCURVE",
"375 217 CURVE SMOOTH"
);
},
{
closed = 1;
nodes = (
"808.5 347 LINE SMOOTH",
"794.833 347.667 OFFCURVE",
"781 348.667 OFFCURVE",
"767 350 CURVE",
"830.326 433.681 OFFCURVE",
"923.855 551.285 OFFCURVE",
"974 568 CURVE",
"918 508 OFFCURVE",
"878.333 425 OFFCURVE",
"849 345 CURVE"
);
}
);
userData = {
assembly = "SVTCA[0]	/* SetFreedomAndProjectionVectorToAxis */\012PUSHW[ ]	/* 1 value pushed */\0120 \012RCVT[ ]	/* ReadCVT */\012IF[ ]	/* If */\012PUSHW[ ]	/* 1 value pushed */\01286 \012MDAP[1]	/* MoveDirectAbsPt */\012ELSE[ ]	/* Else */\012PUSHW[ ]	/* 2 values pushed */\01286 8 \012MIAP[0]	/* MoveIndirectAbsPt */\012EIF[ ]	/* EndIf */\012PUSHW[ ]	/* 1 value pushed */\0120 \012RCVT[ ]	/* ReadCVT */\012IF[ ]	/* If */\012PUSHW[ ]	/* 1 value pushed */\01291 \012MDAP[1]	/* MoveDirectAbsPt */\012ELSE[ ]	/* Else */\012PUSHW[ ]	/* 2 values pushed */\01291 8 \012MIAP[0]	/* MoveIndirectAbsPt */\012EIF[ ]	/* EndIf */\012PUSHW[ ]	/* 3 values pushed */\012111 163 3 \012CALL[ ]	/* CallFunction */\012PUSHW[ ]	/* 1 value pushed */\012111 \012SRP0[ ]	/* SetRefPoint0 */\012PUSHW[ ]	/* 1 value pushed */\0120 \012MDRP[10000]	/* MoveDirectRelPt */\012PUSHW[ ]	/* 1 value pushed */\0120 \012MDAP[1]	/* MoveDirectAbsPt */\012PUSHW[ ]	/* 1 value pushed */\01286 \012SRP0[ ]	/* SetRefPoint0 */\012PUSHW[ ]	/* 1 value pushed */\01252 \012MDRP[11100]	/* MoveDirectRelPt */\012NPUSHW[ ]	/* 27 values pushed */\0127 52 23 52 39 52 55 52 71 52 87 52 103 52 119 52 135 52 151 52 167 52 183 52 199 52 13 \012DELTAP1[ ]	/* DeltaExceptionP1 */\012NPUSHW[ ]	/* 5 values pushed */\012214 52 230 52 2 \012DELTAP1[ ]	/* DeltaExceptionP1 */\012PUSHW[ ]	/* 3 values pushed */\01260 86 52 \012SRP1[ ]	/* SetRefPoint1 */\012SRP2[ ]	/* SetRefPoint2 */\012IP[ ]	/* InterpolatePts */\012PUSHW[ ]	/* 1 value pushed */\012105 \012MDRP[10000]	/* MoveDirectRelPt */\012PUSHW[ ]	/* 1 value pushed */\012105 \012MDAP[1]	/* MoveDirectAbsPt */\012PUSHW[ ]	/* 1 value pushed */\01291 \012SRP0[ ]	/* SetRefPoint0 */\012PUSHW[ ]	/* 1 value pushed */\012114 \012MDRP[11100]	/* MoveDirectRelPt */\012NPUSHW[ ]	/* 27 values pushed */\0127 114 23 114 39 114 55 114 71 114 87 114 103 114 119 114 135 114 151 114 167 114 183 114 199 114 13 \012DELTAP1[ ]	/* DeltaExceptionP1 */\012NPUSHW[ ]	/* 5 values pushed */\012214 114 230 114 2 \012DELTAP1[ ]	/* DeltaExceptionP1 */\012IUP[0]	/* InterpolateUntPts */\012IUP[1]	/* InterpolateUntPts */";
};
width = 1004;
}
);
note = A;
rightKerningGroup = A;
},
{
glyphname = AE.ss01;
lastChange = "2021-08-21 18:45:25 +0000";
layers = (
{
anchors = (
{
name = bottom;
position = "{643, 0}";
},
{
name = top;
position = "{1201, 619}";
}
);
background = {
paths = (
{
closed = 1;
nodes = (
"932 -8 OFFCURVE",
"894 43 OFFCURVE",
"890 122 OFFCURVE",
"917 215 OFFCURVE",
"965 299 OFFCURVE",
"1029 362 OFFCURVE",
"1065 370 QCURVE",
"1083 357 OFFCURVE",
"1133 333 OFFCURVE",
"1158 333 QCURVE SMOOTH",
"1186 333 OFFCURVE",
"1213 350 OFFCURVE",
"1216 372 OFFCURVE",
"1195 392 OFFCURVE",
"1175 395 QCURVE SMOOTH",
"1166 396 OFFCURVE",
"1139 396 OFFCURVE",
"1111 395 OFFCURVE",
"1085 390 OFFCURVE",
"1077 387 QCURVE",
"1074 406 OFFCURVE",
"1075 421 QCURVE",
"1165 422 OFFCURVE",
"1289 452 OFFCURVE",
"1324 472 QCURVE SMOOTH",
"1359 492 OFFCURVE",
"1383 536 OFFCURVE",
"1383 551 QCURVE SMOOTH",
"1383 585 OFFCURVE",
"1337 620 OFFCURVE",
"1273 634 OFFCURVE",
"1206 635 OFFCURVE",
"1184 635 QCURVE SMOOTH",
"1092 635 OFFCURVE",
"960 591 OFFCURVE",
"857 515 OFFCURVE",
"772 412 OFFCURVE",
"727 352 QCURVE",
"676 355 OFFCURVE",
"575 357 OFFCURVE",
"527 354 QCURVE",
"525 381 OFFCURVE",
"500 433 OFFCURVE",
"453 475 OFFCURVE",
"385 500 OFFCURVE",
"340 500 QCURVE SMOOTH",
"273 500 OFFCURVE",
"140 450 OFFCURVE",
"35 359 OFFCURVE",
"-31 232 OFFCURVE",
"-31 155 QCURVE SMOOTH",
"-31 95 OFFCURVE",
"13 8 OFFCURVE",
"85 -49 OFFCURVE",
"178 -76 OFFCURVE",
"227 -76 QCURVE SMOOTH",
"292 -76 OFFCURVE",
"406 -41 OFFCURVE",
"509 27 OFFCURVE",
"606 128 OFFCURVE",
"654 195 QCURVE SMOOTH",
"671 218 OFFCURVE",
"720 288 OFFCURVE",
"749 326 QCURVE",
"841 320 LINE",
"790 264 OFFCURVE",
"741 138 OFFCURVE",
"765 32 OFFCURVE",
"873 -37 OFFCURVE",
"978 -37 QCURVE SMOOTH",
"1027 -37 OFFCURVE",
"1131 -1 OFFCURVE",
"1219 62 OFFCURVE",
"1278 147 OFFCURVE",
"1282 196 QCURVE SMOOTH",
"1284 223 OFFCURVE",
"1269 261 OFFCURVE",
"1240 286 OFFCURVE",
"1201 298 OFFCURVE",
"1179 298 QCURVE SMOOTH",
"1139 298 OFFCURVE",
"1103 284 QCURVE SMOOTH",
"1068 270 OFFCURVE",
"1012 222 OFFCURVE",
"973 162 OFFCURVE",
"952 93 OFFCURVE",
"952 57 QCURVE SMOOTH",
"952 50 OFFCURVE",
"959 44 OFFCURVE",
"966 46 OFFCURVE",
"972 53 OFFCURVE",
"972 58 QCURVE SMOOTH",
"970 82 OFFCURVE",
"992 150 OFFCURVE",
"1036 212 OFFCURVE",
"1098 257 OFFCURVE",
"1137 258 QCURVE SMOOTH",
"1170 259 OFFCURVE",
"1195 220 OFFCURVE",
"1186 161 OFFCURVE",
"1150 91 OFFCURVE",
"1091 32 OFFCURVE",
"1016 -8 OFFCURVE",
"974 -8 QCURVE",
"974 -8 LINE"
);
},
{
closed = 1;
nodes = (
"254 39 OFFCURVE",
"181 67 OFFCURVE",
"134 113 OFFCURVE",
"113 175 OFFCURVE",
"113 209 QCURVE SMOOTH",
"113 257 OFFCURVE",
"152 349 OFFCURVE",
"219 421 OFFCURVE",
"307 465 OFFCURVE",
"356 465 QCURVE SMOOTH",
"392 465 OFFCURVE",
"441 445 OFFCURVE",
"469 413 OFFCURVE",
"479 371 OFFCURVE",
"477 349 QCURVE",
"454 345 OFFCURVE",
"409 336 OFFCURVE",
"388 329 QCURVE SMOOTH",
"365 321 OFFCURVE",
"324 299 OFFCURVE",
"291 270 OFFCURVE",
"272 235 OFFCURVE",
"272 215 QCURVE SMOOTH",
"272 202 OFFCURVE",
"280 178 OFFCURVE",
"299 160 OFFCURVE",
"331 149 OFFCURVE",
"354 149 QCURVE SMOOTH",
"386 149 OFFCURVE",
"444 177 OFFCURVE",
"489 224 OFFCURVE",
"520 288 OFFCURVE",
"525 324 QCURVE",
"570 329 OFFCURVE",
"663 330 OFFCURVE",
"708 328 QCURVE",
"667 272 OFFCURVE",
"582 168 OFFCURVE",
"486 88 OFFCURVE",
"375 39 OFFCURVE",
"306 39 QCURVE",
"306 39 LINE"
);
},
{
closed = 1;
nodes = (
"347 217 OFFCURVE",
"347 237 QCURVE SMOOTH",
"347 254 OFFCURVE",
"388 292 OFFCURVE",
"415 301 QCURVE SMOOTH",
"439 309 OFFCURVE",
"470 316 QCURVE",
"464 296 OFFCURVE",
"444 260 OFFCURVE",
"419 233 OFFCURVE",
"390 217 OFFCURVE",
"375 217 QCURVE",
"375 217 LINE"
);
},
{
closed = 1;
nodes = (
"789 378 OFFCURVE",
"848 453 OFFCURVE",
"919 526 OFFCURVE",
"1000 584 OFFCURVE",
"1044 595 QCURVE",
"1027 579 OFFCURVE",
"976 516 OFFCURVE",
"922 443 OFFCURVE",
"872 370 OFFCURVE",
"856 345 QCURVE",
"836 346 OFFCURVE",
"788 348 OFFCURVE",
"767 350 QCURVE",
"767 350 LINE"
);
},
{
closed = 1;
nodes = (
"1307 601 OFFCURVE",
"1326 586 OFFCURVE",
"1331 564 OFFCURVE",
"1323 538 OFFCURVE",
"1314 528 QCURVE SMOOTH",
"1309 521 OFFCURVE",
"1299 511 OFFCURVE",
"1294 506 QCURVE SMOOTH",
"1252 470 OFFCURVE",
"1137 441 OFFCURVE",
"1078 438 QCURVE",
"1085 472 OFFCURVE",
"1131 532 OFFCURVE",
"1192 576 OFFCURVE",
"1259 601 OFFCURVE",
"1288 601 QCURVE",
"1288 601 LINE"
);
}
);
};
layerId = "C623C401-2266-4A98-B253-3D45160C29C7";
paths = (
{
closed = 1;
nodes = (
"401 -76 OFFCURVE",
"526 17 OFFCURVE",
"654 195 CURVE SMOOTH",
"677 226 OFFCURVE",
"711 275 OFFCURVE",
"749 326 CURVE",
"841 320 LINE",
"784 257 OFFCURVE",
"749 184 OFFCURVE",
"749 120 CURVE SMOOTH",
"749 33 OFFCURVE",
"815 -37 OFFCURVE",
"978 -37 CURVE SMOOTH",
"1109 -37 OFFCURVE",
"1271 66 OFFCURVE",
"1282 196 CURVE SMOOTH",
"1288 267 OFFCURVE",
"1237 298 OFFCURVE",
"1179 298 CURVE SMOOTH",
"1153 298 OFFCURVE",
"1126 293 OFFCURVE",
"1103 284 CURVE SMOOTH",
"1009 246 OFFCURVE",
"952 152 OFFCURVE",
"952 57 CURVE SMOOTH",
"952 48 OFFCURVE",
"956 45 OFFCURVE",
"961 45 CURVE SMOOTH",
"966 45 OFFCURVE",
"972 50 OFFCURVE",
"972 57 CURVE SMOOTH",
"972 58 LINE SMOOTH",
"968 123 OFFCURVE",
"1034 258 OFFCURVE",
"1139 258 CURVE SMOOTH",
"1176 258 OFFCURVE",
"1192 236 OFFCURVE",
"1192 205 CURVE SMOOTH",
"1192 127 OFFCURVE",
"1094 -8 OFFCURVE",
"974 -8 CURVE SMOOTH",
"915 -8 OFFCURVE",
"892 35 OFFCURVE",
"892 91 CURVE SMOOTH",
"892 196 OFFCURVE",
"973 349 OFFCURVE",
"1065 370 CURVE",
"1089 353 OFFCURVE",
"1125 333 OFFCURVE",
"1158 333 CURVE SMOOTH",
"1197 333 OFFCURVE",
"1215 348 OFFCURVE",
"1215 363 CURVE SMOOTH",
"1215 377 OFFCURVE",
"1201 391 OFFCURVE",
"1175 395 CURVE SMOOTH",
"1168 396 OFFCURVE",
"1159 396 OFFCURVE",
"1149 396 CURVE SMOOTH",
"1123 396 OFFCURVE",
"1093 393 OFFCURVE",
"1077 387 CURVE",
"1076 395 OFFCURVE",
"1075 404 OFFCURVE",
"1075 412 CURVE SMOOTH",
"1075 421 LINE",
"1194 422 OFFCURVE",
"1278 446 OFFCURVE",
"1324 472 CURVE SMOOTH",
"1371 498 OFFCURVE",
"1383 531 OFFCURVE",
"1383 551 CURVE SMOOTH",
"1383 642 OFFCURVE",
"1242 635 OFFCURVE",
"1184 635 CURVE SMOOTH",
"940 635 OFFCURVE",
"846 511 OFFCURVE",
"727 352 CURVE",
"685 354 OFFCURVE",
"643 356 OFFCURVE",
"602 356 CURVE SMOOTH",
"576 356 OFFCURVE",
"551 356 OFFCURVE",
"527 354 CURVE",
"522 426 OFFCURVE",
"459 500 OFFCURVE",
"340 500 CURVE SMOOTH",
"161 500 OFFCURVE",
"-31 360 OFFCURVE",
"-31 155 CURVE SMOOTH",
"-31 -4 OFFCURVE",
"96 -76 OFFCURVE",
"227 -76 CURVE SMOOTH"
);
},
{
closed = 1;
nodes = (
"167 39 OFFCURVE",
"113 118 OFFCURVE",
"113 209 CURVE SMOOTH",
"113 337 OFFCURVE",
"225 465 OFFCURVE",
"356 465 CURVE SMOOTH",
"445 465 OFFCURVE",
"478 417 OFFCURVE",
"478 363 CURVE SMOOTH",
"478 358 OFFCURVE",
"477 354 OFFCURVE",
"477 349 CURVE",
"446 344 OFFCURVE",
"416 338 OFFCURVE",
"388 329 CURVE SMOOTH",
"328 309 OFFCURVE",
"272 269 OFFCURVE",
"272 215 CURVE SMOOTH",
"272 181 OFFCURVE",
"292 149 OFFCURVE",
"354 149 CURVE SMOOTH",
"440 150 OFFCURVE",
"511 227 OFFCURVE",
"525 324 CURVE",
"560 328 OFFCURVE",
"597 329 OFFCURVE",
"633 329 CURVE SMOOTH",
"658 329 OFFCURVE",
"683 329 OFFCURVE",
"708 328 CURVE",
"598 180 OFFCURVE",
"489 39 OFFCURVE",
"306 39 CURVE SMOOTH"
);
},
{
closed = 1;
nodes = (
"355 217 OFFCURVE",
"347 225 OFFCURVE",
"347 237 CURVE SMOOTH",
"347 260 OFFCURVE",
"379 289 OFFCURVE",
"415 301 CURVE SMOOTH",
"432 307 OFFCURVE",
"451 312 OFFCURVE",
"470 316 CURVE",
"454 263 OFFCURVE",
"415 217 OFFCURVE",
"375 217 CURVE SMOOTH"
);
},
{
closed = 1;
nodes = (
"829 346 OFFCURVE",
"795 348 OFFCURVE",
"767 350 CURVE",
"825 424 OFFCURVE",
"928 566 OFFCURVE",
"1044 595 CURVE",
"998 552 OFFCURVE",
"900 413 OFFCURVE",
"856 345 CURVE"
);
},
{
closed = 1;
nodes = (
"1098 530 OFFCURVE",
"1211 601 OFFCURVE",
"1288 601 CURVE SMOOTH",
"1317 601 OFFCURVE",
"1329 585 OFFCURVE",
"1329 567 CURVE SMOOTH",
"1329 554 OFFCURVE",
"1323 540 OFFCURVE",
"1314 528 CURVE SMOOTH",
"1308 519 OFFCURVE",
"1300 512 OFFCURVE",
"1294 506 CURVE SMOOTH",
"1239 458 OFFCURVE",
"1156 442 OFFCURVE",
"1078 438 CURVE"
);
}
);
userData = {
assembly = "SVTCA[0]	/* SetFreedomAndProjectionVectorToAxis */\012PUSHW[ ]	/* 1 value pushed */\0120 \012RCVT[ ]	/* ReadCVT */\012IF[ ]	/* If */\012PUSHW[ ]	/* 1 value pushed */\0120 \012MDAP[1]	/* MoveDirectAbsPt */\012ELSE[ ]	/* Else */\012PUSHW[ ]	/* 2 values pushed */\0120 8 \012MIAP[0]	/* MoveIndirectAbsPt */\012EIF[ ]	/* EndIf */\012PUSHW[ ]	/* 3 values pushed */\012109 179 3 \012CALL[ ]	/* CallFunction */\012PUSHW[ ]	/* 1 value pushed */\0120 \012SRP0[ ]	/* SetRefPoint0 */\012PUSHW[ ]	/* 1 value pushed */\01239 \012MDRP[11100]	/* MoveDirectRelPt */\012PUSHW[ ]	/* 1 value pushed */\012109 \012SRP0[ ]	/* SetRefPoint0 */\012PUSHW[ ]	/* 1 value pushed */\01240 \012MDRP[10000]	/* MoveDirectRelPt */\012PUSHW[ ]	/* 1 value pushed */\01240 \012MDAP[1]	/* MoveDirectAbsPt */\012PUSHW[ ]	/* 1 value pushed */\012109 \012SRP0[ ]	/* SetRefPoint0 */\012PUSHW[ ]	/* 1 value pushed */\01294 \012MDRP[10000]	/* MoveDirectRelPt */\012PUSHW[ ]	/* 1 value pushed */\01294 \012MDAP[1]	/* MoveDirectAbsPt */\012PUSHW[ ]	/* 1 value pushed */\01239 \012SRP0[ ]	/* SetRefPoint0 */\012PUSHW[ ]	/* 1 value pushed */\012112 \012MDRP[10000]	/* MoveDirectRelPt */\012PUSHW[ ]	/* 1 value pushed */\012112 \012MDAP[1]	/* MoveDirectAbsPt */\012IUP[0]	/* InterpolateUntPts */\012IUP[1]	/* InterpolateUntPts */";
};
width = 1286;
}
);
note = AE;
},
{
color = 11;
glyphname = AEacute.ss01;
lastChange = "2021-08-21 18:45:25 +0000";
layers = (
{
background = {
anchors = (
{
name = bottom;
position = "{560, -10}";
},
{
name = ogonek;
position = "{932, 10}";
},
{
name = top;
position = "{1208, 630}";
}
);
paths = (
{
closed = 1;
nodes = (
"749 326 LINE",
"841 320 LINE",
"970 318 LINE",
"979 341 LINE SMOOTH",
"1010 418 OFFCURVE",
"1040 493 OFFCURVE",
"1084 562 CURVE",
"1096 587 OFFCURVE",
"1146 634 OFFCURVE",
"1187 624 CURVE",
"1214 610 OFFCURVE",
"1226 651 OFFCURVE",
"1193 653 CURVE SMOOTH",
"1081 660 OFFCURVE",
"994 624 OFFCURVE",
"921 568 CURVE SMOOTH",
"848 511 OFFCURVE",
"787 432 OFFCURVE",
"727 352 CURVE",
"659 356 OFFCURVE",
"591 358 OFFCURVE",
"527 354 CURVE",
"521 435 OFFCURVE",
"451 500 OFFCURVE",
"340 500 CURVE SMOOTH",
"251 500 OFFCURVE",
"158 465 OFFCURVE",
"88 405 CURVE SMOOTH",
"18 344 OFFCURVE",
"-31 258 OFFCURVE",
"-31 155 CURVE SMOOTH",
"-31 1 OFFCURVE",
"89 -76 OFFCURVE",
"227 -76 CURVE SMOOTH",
"314 -76 OFFCURVE",
"389 -52 OFFCURVE",
"458 -7 CURVE SMOOTH",
"526 38 OFFCURVE",
"590 106 OFFCURVE",
"654 195 CURVE SMOOTH",
"665 210 OFFCURVE",
"679 230 OFFCURVE",
"696 253 CURVE SMOOTH",
"712 276 OFFCURVE",
"730 301 OFFCURVE",
"749 326 CURVE"
);
},
{
closed = 1;
nodes = (
"306 39 LINE",
"176 39 OFFCURVE",
"113 110 OFFCURVE",
"113 209 CURVE SMOOTH",
"113 338 OFFCURVE",
"226 465 OFFCURVE",
"356 465 CURVE SMOOTH",
"445 465 OFFCURVE",
"483 415 OFFCURVE",
"477 349 CURVE",
"446 344 OFFCURVE",
"416 338 OFFCURVE",
"388 329 CURVE SMOOTH",
"329 308 OFFCURVE",
"272 269 OFFCURVE",
"272 215 CURVE SMOOTH",
"272 175 OFFCURVE",
"297 149 OFFCURVE",
"354 149 CURVE SMOOTH",
"441 149 OFFCURVE",
"512 230 OFFCURVE",
"525 324 CURVE",
"585 331 OFFCURVE",
"648 331 OFFCURVE",
"709 328 CURVE",
"653 255 OFFCURVE",
"598 183 OFFCURVE",
"534 129 CURVE SMOOTH",
"470 75 OFFCURVE",
"398 39 OFFCURVE",
"306 39 CURVE"
);
},
{
closed = 1;
nodes = (
"375 217 LINE",
"356 217 OFFCURVE",
"347 224 OFFCURVE",
"347 237 CURVE SMOOTH",
"347 260 OFFCURVE",
"379 289 OFFCURVE",
"415 301 CURVE SMOOTH",
"431 306 OFFCURVE",
"449 311 OFFCURVE",
"470 316 CURVE",
"455 266 OFFCURVE",
"416 217 OFFCURVE",
"375 217 CURVE"
);
},
{
closed = 1;
nodes = (
"767 350 LINE",
"830 434 OFFCURVE",
"924 551 OFFCURVE",
"974 568 CURVE",
"918 508 OFFCURVE",
"878 425 OFFCURVE",
"849 345 CURVE",
"836 346 OFFCURVE",
"822 346 OFFCURVE",
"809 347 CURVE SMOOTH",
"795 348 OFFCURVE",
"781 349 OFFCURVE",
"767 350 CURVE"
);
}
);
};
hints = (
{
horizontal = 1;
place = "{595, 72}";
type = Stem;
},
{
place = "{1607, 199}";
type = Stem;
}
);
layerId = "C623C401-2266-4A98-B253-3D45160C29C7";
paths = (
{
closed = 1;
nodes = (
"314 -76 OFFCURVE",
"389 -52 OFFCURVE",
"458 -7 CURVE SMOOTH",
"526 38 OFFCURVE",
"590 106 OFFCURVE",
"654 195 CURVE SMOOTH",
"696 253 LINE SMOOTH",
"712 276 OFFCURVE",
"730 301 OFFCURVE",
"749 326 CURVE",
"841 320 LINE",
"829 269 OFFCURVE",
"819 217 OFFCURVE",
"819 171 CURVE SMOOTH",
"819 70 OFFCURVE",
"865 -6 OFFCURVE",
"1029 -6 CURVE SMOOTH",
"1161 -6 OFFCURVE",
"1322 98 OFFCURVE",
"1333 227 CURVE SMOOTH",
"1338 295 OFFCURVE",
"1292 329 OFFCURVE",
"1230 329 CURVE SMOOTH",
"1203 329 OFFCURVE",
"1178 324 OFFCURVE",
"1154 315 CURVE SMOOTH",
"1062 278 OFFCURVE",
"1003 183 OFFCURVE",
"1003 88 CURVE SMOOTH",
"1003 80 OFFCURVE",
"1008 76 OFFCURVE",
"1012 76 CURVE SMOOTH",
"1018 76 OFFCURVE",
"1023 81 OFFCURVE",
"1023 89 CURVE SMOOTH",
"1017 162 OFFCURVE",
"1093 289 OFFCURVE",
"1191 289 CURVE SMOOTH",
"1228 289 OFFCURVE",
"1243 268 OFFCURVE",
"1243 237 CURVE SMOOTH",
"1243 214 OFFCURVE",
"1234 186 OFFCURVE",
"1219 157 CURVE SMOOTH",
"1195 110 OFFCURVE",
"1155 70 OFFCURVE",
"1105 43 CURVE SMOOTH",
"1080 30 OFFCURVE",
"1053 23 OFFCURVE",
"1025 23 CURVE SMOOTH",
"966 23 OFFCURVE",
"943 65 OFFCURVE",
"943 122 CURVE SMOOTH",
"943 146 OFFCURVE",
"947 172 OFFCURVE",
"955 200 CURVE SMOOTH",
"973 262 OFFCURVE",
"1005 320 OFFCURVE",
"1048 362 CURVE SMOOTH",
"1069 383 OFFCURVE",
"1092 396 OFFCURVE",
"1116 401 CURVE",
"1140 384 OFFCURVE",
"1176 364 OFFCURVE",
"1209 364 CURVE SMOOTH",
"1247 364 OFFCURVE",
"1266 380 OFFCURVE",
"1266 395 CURVE SMOOTH",
"1266 409 OFFCURVE",
"1252 422 OFFCURVE",
"1226 426 CURVE SMOOTH",
"1219 427 OFFCURVE",
"1210 427 OFFCURVE",
"1201 427 CURVE SMOOTH",
"1174 427 OFFCURVE",
"1143 424 OFFCURVE",
"1128 418 CURVE",
"1128 433 OFFCURVE",
"1126 450 OFFCURVE",
"1129 469 CURVE SMOOTH",
"1147 557 OFFCURVE",
"1259 632 OFFCURVE",
"1339 632 CURVE SMOOTH",
"1368 632 OFFCURVE",
"1381 616 OFFCURVE",
"1381 596 CURVE SMOOTH",
"1381 584 OFFCURVE",
"1375 570 OFFCURVE",
"1365 559 CURVE SMOOTH",
"1337 523 OFFCURVE",
"1282 492 OFFCURVE",
"1242 485 CURVE",
"1229 481 OFFCURVE",
"1222 477 OFFCURVE",
"1222 474 CURVE SMOOTH",
"1222 471 OFFCURVE",
"1227 469 OFFCURVE",
"1237 469 CURVE SMOOTH",
"1308 469 OFFCURVE",
"1434 506 OFFCURVE",
"1434 585 CURVE SMOOTH",
"1434 638 OFFCURVE",
"1368 662 OFFCURVE",
"1302 662 CURVE SMOOTH",
"1270 662 OFFCURVE",
"1234 659 OFFCURVE",
"1199 652 CURVE",
"1197 653 OFFCURVE",
"1195 653 OFFCURVE",
"1193 653 CURVE SMOOTH",
"1081 660 OFFCURVE",
"994 624 OFFCURVE",
"921 568 CURVE SMOOTH",
"848 511 OFFCURVE",
"787 432 OFFCURVE",
"727 352 CURVE",
"685 354 OFFCURVE",
"643 356 OFFCURVE",
"602 356 CURVE SMOOTH",
"576 356 OFFCURVE",
"551 356 OFFCURVE",
"527 354 CURVE",
"521 435 OFFCURVE",
"451 500 OFFCURVE",
"340 500 CURVE SMOOTH",
"251 500 OFFCURVE",
"158 465 OFFCURVE",
"88 405 CURVE SMOOTH",
"18 344 OFFCURVE",
"-31 258 OFFCURVE",
"-31 155 CURVE SMOOTH",
"-31 1 OFFCURVE",
"89 -76 OFFCURVE",
"227 -76 CURVE SMOOTH"
);
},
{
closed = 1;
nodes = (
"176 39 OFFCURVE",
"113 110 OFFCURVE",
"113 209 CURVE SMOOTH",
"113 338 OFFCURVE",
"226 465 OFFCURVE",
"356 465 CURVE SMOOTH",
"445 465 OFFCURVE",
"483 415 OFFCURVE",
"477 349 CURVE",
"446 344 OFFCURVE",
"416 338 OFFCURVE",
"388 329 CURVE SMOOTH",
"329 308 OFFCURVE",
"272 269 OFFCURVE",
"272 215 CURVE SMOOTH",
"272 175 OFFCURVE",
"297 149 OFFCURVE",
"354 149 CURVE SMOOTH",
"441 149 OFFCURVE",
"512 230 OFFCURVE",
"525 324 CURVE",
"561 328 OFFCURVE",
"599 330 OFFCURVE",
"636 330 CURVE SMOOTH",
"660 330 OFFCURVE",
"685 329 OFFCURVE",
"709 328 CURVE",
"653 255 OFFCURVE",
"598 183 OFFCURVE",
"534 129 CURVE SMOOTH",
"470 75 OFFCURVE",
"398 39 OFFCURVE",
"306 39 CURVE SMOOTH"
);
},
{
closed = 1;
nodes = (
"356 217 OFFCURVE",
"347 224 OFFCURVE",
"347 237 CURVE SMOOTH",
"347 260 OFFCURVE",
"379 289 OFFCURVE",
"415 301 CURVE SMOOTH",
"431 306 OFFCURVE",
"449 311 OFFCURVE",
"470 316 CURVE",
"455 266 OFFCURVE",
"416 217 OFFCURVE",
"375 217 CURVE SMOOTH"
);
},
{
closed = 1;
nodes = (
"836 346 OFFCURVE",
"822 346 OFFCURVE",
"809 347 CURVE SMOOTH",
"767 350 LINE",
"830 434 OFFCURVE",
"924 551 OFFCURVE",
"974 568 CURVE",
"918 508 OFFCURVE",
"878 425 OFFCURVE",
"849 345 CURVE"
);
},
{
closed = 1;
nodes = (
"985 429 OFFCURVE",
"1006 477 OFFCURVE",
"1032 524 CURVE",
"1030 517 OFFCURVE",
"1029 509 OFFCURVE",
"1029 502 CURVE SMOOTH",
"1029 495 OFFCURVE",
"1030 489 OFFCURVE",
"1032 483 CURVE SMOOTH",
"1038 462 LINE",
"1049 439 OFFCURVE",
"1068 423 OFFCURVE",
"1096 412 CURVE",
"1053 408 OFFCURVE",
"1008 397 OFFCURVE",
"965 379 CURVE"
);
}
);
width = 1337;
}
);
},
{
glyphname = B.ss01;
lastChange = "2021-08-21 18:45:25 +0000";
layers = (
{
layerId = "C623C401-2266-4A98-B253-3D45160C29C7";
paths = (
{
closed = 1;
nodes = (
"574 -13 OFFCURVE",
"646 26 OFFCURVE",
"690 82 CURVE",
"692 82 LINE SMOOTH",
"757.333 88.667 OFFCURVE",
"808 122 OFFCURVE",
"848 206 CURVE SMOOTH",
"854 217 OFFCURVE",
"845 229 OFFCURVE",
"836 229 CURVE SMOOTH",
"832 229 OFFCURVE",
"828 226 OFFCURVE",
"826 221 CURVE SMOOTH",
"796.667 158.333 OFFCURVE",
"754 122 OFFCURVE",
"710 110 CURVE",
"726 137 OFFCURVE",
"734 165 OFFCURVE",
"734 193 CURVE SMOOTH",
"734 253 OFFCURVE",
"701 306 OFFCURVE",
"647 306 CURVE SMOOTH",
"643 306 LINE SMOOTH",
"645 306 OFFCURVE",
"650.667 307 OFFCURVE",
"660 309 CURVE SMOOTH",
"748.436 325.582 OFFCURVE",
"812.944 382.379 OFFCURVE",
"821 471 CURVE SMOOTH",
"826.333 543 OFFCURVE",
"782.5 594.5 OFFCURVE",
"712.5 624.5 CURVE SMOOTH",
"659 647 OFFCURVE",
"592 658 OFFCURVE",
"520 658 CURVE SMOOTH",
"497 658 OFFCURVE",
"474 657 OFFCURVE",
"451 655 CURVE SMOOTH",
"355 645.667 OFFCURVE",
"258.167 616.5 OFFCURVE",
"185.5 570.5 CURVE SMOOTH",
"112.833 524.5 OFFCURVE",
"64 460.333 OFFCURVE",
"64 379 CURVE SMOOTH",
"64 297.343 OFFCURVE",
"126.474 263 OFFCURVE",
"186 263 CURVE SMOOTH",
"285.156 263 OFFCURVE",
"358.884 331.818 OFFCURVE",
"415 420 CURVE SMOOTH",
"440 460 OFFCURVE",
"448 498 OFFCURVE",
"448 519 CURVE SMOOTH",
"448 531 OFFCURVE",
"446 538 OFFCURVE",
"442 538 CURVE SMOOTH",
"439 538 OFFCURVE",
"435 533 OFFCURVE",
"431 520 CURVE SMOOTH",
"406.206 442.862 OFFCURVE",
"352.565 359.599 OFFCURVE",
"272 357 CURVE SMOOTH",
"229.333 357 OFFCURVE",
"210 387 OFFCURVE",
"210 423 CURVE SMOOTH",
"210 496.333 OFFCURVE",
"265.333 555.667 OFFCURVE",
"340 593 CURVE SMOOTH",
"377.333 611.667 OFFCURVE",
"417.5 624.5 OFFCURVE",
"460.5 631.5 CURVE SMOOTH",
"483 635 OFFCURVE",
"504 637 OFFCURVE",
"525 637 CURVE SMOOTH",
"585 637 OFFCURVE",
"637 622 OFFCURVE",
"674 589.5 CURVE SMOOTH",
"698.667 567.833 OFFCURVE",
"711 537.667 OFFCURVE",
"711 499 CURVE SMOOTH",
"711 461.667 OFFCURVE",
"701 426.667 OFFCURVE",
"685 396 CURVE SMOOTH",
"652.237 338.034 OFFCURVE",
"623.823 320 OFFCURVE",
"562 320 CURVE",
"555 318 OFFCURVE",
"549 312 OFFCURVE",
"549 307 CURVE SMOOTH",
"549 304 OFFCURVE",
"550 302 OFFCURVE",
"554 300 CURVE SMOOTH",
"590 283 OFFCURVE",
"605 247 OFFCURVE",
"605 205 CURVE SMOOTH",
"605 169 OFFCURVE",
"594 130 OFFCURVE",
"575 97 CURVE",
"548.333 97 OFFCURVE",
"524.333 96 OFFCURVE",
"499 92 CURVE SMOOTH",
"457.542 86.472 OFFCURVE",
"402 70.785 OFFCURVE",
"402 33 CURVE SMOOTH",
"402 2.333 OFFCURVE",
"435.333 -13 OFFCURVE",
"490 -13 CURVE SMOOTH"
);
},
{
closed = 1;
nodes = (
"458 25 OFFCURVE",
"449 31 OFFCURVE",
"449 38 CURVE SMOOTH",
"449 48 OFFCURVE",
"464 60 OFFCURVE",
"490 66 CURVE SMOOTH",
"500.667 68 OFFCURVE",
"511.667 69.5 OFFCURVE",
"523 70.5 CURVE SMOOTH",
"560 74 LINE",
"537.333 44.667 OFFCURVE",
"507.667 25 OFFCURVE",
"477 25 CURVE SMOOTH"
);
},
{
closed = 1;
nodes = (
"162 -65 OFFCURVE",
"201 -57 OFFCURVE",
"228 -47 CURVE SMOOTH",
"355.888 0.958 OFFCURVE",
"444.356 131.757 OFFCURVE",
"497 266 CURVE SMOOTH",
"506.521 292.658 OFFCURVE",
"537.61 366.73 OFFCURVE",
"559.5 409 CURVE SMOOTH",
"583.9 456.117 OFFCURVE",
"622.535 511.922 OFFCURVE",
"659 518 CURVE SMOOTH",
"671 520 OFFCURVE",
"677 527 OFFCURVE",
"677 532 CURVE SMOOTH",
"677 537 OFFCURVE",
"673 541 OFFCURVE",
"663 541 CURVE SMOOTH",
"661 541 LINE SMOOTH",
"561 529 OFFCURVE",
"482 448.333 OFFCURVE",
"386 295 CURVE SMOOTH",
"368.109 266.374 OFFCURVE",
"336.45 208.475 OFFCURVE",
"314.5 171 CURVE SMOOTH",
"300.833 147.667 OFFCURVE",
"286 124.5 OFFCURVE",
"270 101.5 CURVE SMOOTH",
"238 55.5 OFFCURVE",
"202.667 17.667 OFFCURVE",
"164 -5 CURVE SMOOTH",
"144.667 -16.333 OFFCURVE",
"124.667 -22 OFFCURVE",
"104 -22 CURVE SMOOTH",
"77.527 -22 OFFCURVE",
"49.197 -7.621 OFFCURVE",
"54 26 CURVE SMOOTH",
"62.095 96.153 OFFCURVE",
"147.156 152.769 OFFCURVE",
"223 158 CURVE SMOOTH",
"241 159 OFFCURVE",
"251 166 OFFCURVE",
"251 171 CURVE SMOOTH",
"251 176 OFFCURVE",
"244 180 OFFCURVE",
"228 180 CURVE SMOOTH",
"148.271 180 OFFCURVE",
"22.55 107.163 OFFCURVE",
"20 23 CURVE SMOOTH",
"15 -41 OFFCURVE",
"65 -65 OFFCURVE",
"126 -65 CURVE SMOOTH"
);
}
);
width = 759;
}
);
leftKerningGroup = B;
note = B;
},
{
glyphname = C.ss01;
lastChange = "2021-08-21 18:45:25 +0000";
layers = (
{
layerId = "C623C401-2266-4A98-B253-3D45160C29C7";
paths = (
{
closed = 1;
nodes = (
"462 -36 OFFCURVE",
"631 84 OFFCURVE",
"631 227 CURVE SMOOTH",
"631 289 OFFCURVE",
"584 322 OFFCURVE",
"526 322 CURVE SMOOTH",
"498.667 322 OFFCURVE",
"473 317.333 OFFCURVE",
"449 308 CURVE SMOOTH",
"353.699 268.291 OFFCURVE",
"295 165.122 OFFCURVE",
"295 64 CURVE SMOOTH",
"295 55 OFFCURVE",
"299 51 OFFCURVE",
"304 51 CURVE SMOOTH",
"310 51 OFFCURVE",
"316 57 OFFCURVE",
"316 65 CURVE SMOOTH",
"310 146 OFFCURVE",
"388 291 OFFCURVE",
"495 291 CURVE SMOOTH",
"538 291 OFFCURVE",
"556 264 OFFCURVE",
"556 227 CURVE SMOOTH",
"556 203 OFFCURVE",
"548 174 OFFCURVE",
"534.5 145.5 CURVE SMOOTH",
"509.833 94.167 OFFCURVE",
"470.667 48.333 OFFCURVE",
"420 19 CURVE SMOOTH",
"394.667 4.333 OFFCURVE",
"367.667 -3 OFFCURVE",
"339 -3 CURVE SMOOTH",
"287 -3 OFFCURVE",
"264 37 OFFCURVE",
"264 85 CURVE SMOOTH",
"264 91 OFFCURVE",
"264 96 OFFCURVE",
"265 102 CURVE",
"267.342 162.894 OFFCURVE",
"303.089 264.178 OFFCURVE",
"329 316 CURVE",
"442.333 317.333 OFFCURVE",
"543.333 341.333 OFFCURVE",
"622 384 CURVE SMOOTH",
"659.333 405.333 OFFCURVE",
"691.333 431.333 OFFCURVE",
"718 462 CURVE",
"732 460 OFFCURVE",
"749 459 OFFCURVE",
"765 459 CURVE SMOOTH",
"805 459 OFFCURVE",
"845 467 OFFCURVE",
"857 499 CURVE",
"860 511 OFFCURVE",
"856 517 OFFCURVE",
"851 517 CURVE SMOOTH",
"847 517 OFFCURVE",
"844 515 OFFCURVE",
"842 511 CURVE SMOOTH",
"831 489 OFFCURVE",
"795 481 OFFCURVE",
"762 481 CURVE SMOOTH",
"753 481 OFFCURVE",
"743 482 OFFCURVE",
"735 483 CURVE",
"757.667 515 OFFCURVE",
"772 549.333 OFFCURVE",
"772 584 CURVE SMOOTH",
"772 637.333 OFFCURVE",
"726.333 654 OFFCURVE",
"669 654 CURVE SMOOTH",
"595.667 654 OFFCURVE",
"511.333 624.333 OFFCURVE",
"430 575 CURVE",
"359.333 600.333 OFFCURVE",
"269.333 631 OFFCURVE",
"184 631 CURVE SMOOTH",
"94.567 631 OFFCURVE",
"0 592.494 OFFCURVE",
"0 498 CURVE SMOOTH",
"0 450 OFFCURVE",
"18.333 412 OFFCURVE",
"55 384 CURVE SMOOTH",
"91 357.333 OFFCURVE",
"140 339.333 OFFCURVE",
"188 330 CURVE",
"153.333 266 OFFCURVE",
"132 199.333 OFFCURVE",
"132 130 CURVE SMOOTH",
"132 30.877 OFFCURVE",
"192.361 -36 OFFCURVE",
"322 -36 CURVE SMOOTH"
);
},
{
closed = 1;
nodes = (
"146.333 380.667 OFFCURVE",
"101 426.333 OFFCURVE",
"101 493 CURVE SMOOTH",
"101 546.333 OFFCURVE",
"143.667 580 OFFCURVE",
"213 580 CURVE SMOOTH",
"270.333 580 OFFCURVE",
"339 566.667 OFFCURVE",
"395 552 CURVE",
"320.333 501.333 OFFCURVE",
"254.333 434 OFFCURVE",
"205 358 CURVE"
);
},
{
closed = 1;
nodes = (
"382.667 409.667 OFFCURVE",
"438.333 475 OFFCURVE",
"497 523 CURVE",
"594.5 491 LINE SMOOTH",
"626.833 480.333 OFFCURVE",
"656.667 472.333 OFFCURVE",
"684 467 CURVE",
"668 447 OFFCURVE",
"645.667 426.667 OFFCURVE",
"615 408 CURVE SMOOTH",
"559.809 372.126 OFFCURVE",
"437.264 337.432 OFFCURVE",
"340 335 CURVE"
);
},
{
closed = 1;
nodes = (
"649.667 502 OFFCURVE",
"588 521.667 OFFCURVE",
"524 543 CURVE",
"572 577.667 OFFCURVE",
"619.333 599 OFFCURVE",
"658 599 CURVE SMOOTH",
"688.574 599 OFFCURVE",
"715 589.644 OFFCURVE",
"715 543 CURVE SMOOTH",
"715 528.333 OFFCURVE",
"709.667 510 OFFCURVE",
"699 490 CURVE"
);
}
);
width = 640;
}
);
note = C;
rightKerningGroup = C;
},
{
glyphname = D.ss01;
lastChange = "2021-08-21 18:45:25 +0000";
layers = (
{
layerId = "C623C401-2266-4A98-B253-3D45160C29C7";
paths = (
{
closed = 1;
nodes = (
"189.667 -35 OFFCURVE",
"244 -17.333 OFFCURVE",
"292 12 CURVE",
"346.667 -12 OFFCURVE",
"404.333 -24 OFFCURVE",
"465 -24 CURVE SMOOTH",
"577 -24 OFFCURVE",
"672.167 19.667 OFFCURVE",
"739.5 89 CURVE SMOOTH",
"806.833 158.333 OFFCURVE",
"847 250.333 OFFCURVE",
"847 349 CURVE SMOOTH",
"847 458.333 OFFCURVE",
"799 535.5 OFFCURVE",
"727 585.5 CURVE SMOOTH",
"655 635.5 OFFCURVE",
"559 657 OFFCURVE",
"463 657 CURVE SMOOTH",
"359 657 OFFCURVE",
"259.5 634.5 OFFCURVE",
"185.5 588.5 CURVE SMOOTH",
"111.5 542.5 OFFCURVE",
"64 473.333 OFFCURVE",
"64 380 CURVE SMOOTH",
"64 310.916 OFFCURVE",
"114.91 263 OFFCURVE",
"183 263 CURVE SMOOTH",
"288.989 263 OFFCURVE",
"417.546 362.801 OFFCURVE",
"452 508 CURVE",
"453 525 OFFCURVE",
"446 536 OFFCURVE",
"440 536 CURVE SMOOTH",
"436 536 OFFCURVE",
"432 533 OFFCURVE",
"431 524 CURVE SMOOTH",
"418.96 460.79 OFFCURVE",
"348.343 356 OFFCURVE",
"272 356 CURVE SMOOTH",
"241.333 356 OFFCURVE",
"210 373 OFFCURVE",
"210 429 CURVE SMOOTH",
"210 562.093 OFFCURVE",
"338.19 630 OFFCURVE",
"477 630 CURVE SMOOTH",
"633.377 630 OFFCURVE",
"752 541.676 OFFCURVE",
"752 403 CURVE SMOOTH",
"750.667 311 OFFCURVE",
"704 216 OFFCURVE",
"636 144 CURVE SMOOTH",
"568 72 OFFCURVE",
"477 23 OFFCURVE",
"389 23 CURVE SMOOTH",
"366.333 23 OFFCURVE",
"345.667 27.333 OFFCURVE",
"323 34 CURVE",
"415 104.667 OFFCURVE",
"481.333 221.333 OFFCURVE",
"532 352 CURVE SMOOTH",
"563.075 431.908 OFFCURVE",
"626.451 514.768 OFFCURVE",
"662 518 CURVE SMOOTH",
"673 518 OFFCURVE",
"678 523 OFFCURVE",
"678 528 CURVE SMOOTH",
"678 534 OFFCURVE",
"671 541 OFFCURVE",
"657 541 CURVE SMOOTH",
"654 541 LINE SMOOTH",
"620.667 539.667 OFFCURVE",
"576.667 518.833 OFFCURVE",
"526 471.5 CURVE SMOOTH",
"475.333 424.167 OFFCURVE",
"417 350.667 OFFCURVE",
"353 244 CURVE SMOOTH",
"313 176 OFFCURVE",
"272 117.667 OFFCURVE",
"232 75 CURVE",
"193.333 103 OFFCURVE",
"151.333 128 OFFCURVE",
"106 128 CURVE SMOOTH",
"43 128 OFFCURVE",
"12 91 OFFCURVE",
"12 52 CURVE SMOOTH",
"12 10 OFFCURVE",
"50 -35 OFFCURVE",
"127 -35 CURVE SMOOTH"
);
},
{
closed = 1;
nodes = (
"83 5 OFFCURVE",
"55 19.333 OFFCURVE",
"55 46 CURVE SMOOTH",
"55 77 OFFCURVE",
"88 102 OFFCURVE",
"126 102 CURVE SMOOTH",
"139 102 OFFCURVE",
"153 99 OFFCURVE",
"166 92 CURVE SMOOTH",
"198 72 LINE SMOOTH",
"204 68 OFFCURVE",
"210.667 64 OFFCURVE",
"218 60 CURVE",
"180.667 25.333 OFFCURVE",
"144.333 5 OFFCURVE",
"107 5 CURVE SMOOTH"
);
}
);
width = 797;
}
);
note = D;
rightKerningGroup = D;
},
{
glyphname = Eth.ss01;
lastChange = "2021-08-21 18:45:25 +0000";
layers = (
{
layerId = "C623C401-2266-4A98-B253-3D45160C29C7";
paths = (
{
closed = 1;
nodes = (
"189.667 -35 OFFCURVE",
"244 -17.333 OFFCURVE",
"292 12 CURVE",
"346.667 -12 OFFCURVE",
"404.333 -24 OFFCURVE",
"465 -24 CURVE SMOOTH",
"577 -24 OFFCURVE",
"672.167 19.667 OFFCURVE",
"739.5 89 CURVE SMOOTH",
"806.833 158.333 OFFCURVE",
"847 250.333 OFFCURVE",
"847 349 CURVE SMOOTH",
"847 458.333 OFFCURVE",
"799 535.5 OFFCURVE",
"727 585.5 CURVE SMOOTH",
"655 635.5 OFFCURVE",
"559 657 OFFCURVE",
"463 657 CURVE SMOOTH",
"359 657 OFFCURVE",
"259.5 634.5 OFFCURVE",
"185.5 588.5 CURVE SMOOTH",
"111.5 542.5 OFFCURVE",
"64 473.333 OFFCURVE",
"64 380 CURVE SMOOTH",
"64 310.916 OFFCURVE",
"114.91 263 OFFCURVE",
"183 263 CURVE SMOOTH",
"288.989 263 OFFCURVE",
"417.546 362.801 OFFCURVE",
"452 508 CURVE",
"453 525 OFFCURVE",
"446 536 OFFCURVE",
"440 536 CURVE SMOOTH",
"436 536 OFFCURVE",
"432 533 OFFCURVE",
"431 524 CURVE SMOOTH",
"418.96 460.79 OFFCURVE",
"348.343 356 OFFCURVE",
"272 356 CURVE SMOOTH",
"241.333 356 OFFCURVE",
"210 373 OFFCURVE",
"210 429 CURVE SMOOTH",
"210 562.093 OFFCURVE",
"338.19 630 OFFCURVE",
"477 630 CURVE SMOOTH",
"633.377 630 OFFCURVE",
"752 541.676 OFFCURVE",
"752 403 CURVE SMOOTH",
"750.667 311 OFFCURVE",
"704 216 OFFCURVE",
"636 144 CURVE SMOOTH",
"568 72 OFFCURVE",
"477 23 OFFCURVE",
"389 23 CURVE SMOOTH",
"366.333 23 OFFCURVE",
"345.667 27.333 OFFCURVE",
"323 34 CURVE",
"369.667 68.667 OFFCURVE",
"408.333 115.333 OFFCURVE",
"443 170 CURVE",
"496 170 LINE SMOOTH",
"508 170 OFFCURVE",
"525 203 OFFCURVE",
"525 220 CURVE SMOOTH",
"525 226 OFFCURVE",
"523 230 OFFCURVE",
"518 230 CURVE SMOOTH",
"477 230 LINE",
"497 268.667 OFFCURVE",
"516 309.333 OFFCURVE",
"532 352 CURVE SMOOTH",
"563.075 431.908 OFFCURVE",
"626.451 514.768 OFFCURVE",
"662 518 CURVE SMOOTH",
"673 518 OFFCURVE",
"678 523 OFFCURVE",
"678 528 CURVE SMOOTH",
"678 534 OFFCURVE",
"671 541 OFFCURVE",
"657 541 CURVE SMOOTH",
"654 541 LINE SMOOTH",
"620.667 539.667 OFFCURVE",
"576.667 518.833 OFFCURVE",
"526 471.5 CURVE SMOOTH",
"475.333 424.167 OFFCURVE",
"417 350.667 OFFCURVE",
"353 244 CURVE SMOOTH",
"350.333 238.667 OFFCURVE",
"347.667 234 OFFCURVE",
"345 230 CURVE",
"255 230 LINE SMOOTH",
"240.765 230 OFFCURVE",
"204.916 170 OFFCURVE",
"221 170 CURVE SMOOTH",
"306 170 LINE",
"282 133.333 OFFCURVE",
"257.333 101.667 OFFCURVE",
"232 75 CURVE",
"193.333 103 OFFCURVE",
"151.333 128 OFFCURVE",
"106 128 CURVE SMOOTH",
"43 128 OFFCURVE",
"12 91 OFFCURVE",
"12 52 CURVE SMOOTH",
"12 10 OFFCURVE",
"50 -35 OFFCURVE",
"127 -35 CURVE SMOOTH"
);
},
{
closed = 1;
nodes = (
"83 5 OFFCURVE",
"55 19.333 OFFCURVE",
"55 46 CURVE SMOOTH",
"55 77 OFFCURVE",
"88 102 OFFCURVE",
"126 102 CURVE SMOOTH",
"139 102 OFFCURVE",
"153 99 OFFCURVE",
"166 92 CURVE SMOOTH",
"198 72 LINE SMOOTH",
"204 68 OFFCURVE",
"210.667 64 OFFCURVE",
"218 60 CURVE",
"180.667 25.333 OFFCURVE",
"144.333 5 OFFCURVE",
"107 5 CURVE SMOOTH"
);
}
);
width = 797;
}
);
note = Eth;
rightKerningGroup = D;
},
{
glyphname = E.ss01;
lastChange = "2021-08-21 18:45:25 +0000";
layers = (
{
layerId = "C623C401-2266-4A98-B253-3D45160C29C7";
paths = (
{
closed = 1;
nodes = (
"391 -37 OFFCURVE",
"559 73 OFFCURVE",
"559 206 CURVE SMOOTH",
"559 267 OFFCURVE",
"515 298 OFFCURVE",
"456 298 CURVE SMOOTH",
"429.333 298 OFFCURVE",
"404 293.333 OFFCURVE",
"380 284 CURVE SMOOTH",
"288.123 247.249 OFFCURVE",
"229 152.432 OFFCURVE",
"229 57 CURVE SMOOTH",
"229 49 OFFCURVE",
"234 45 OFFCURVE",
"238 45 CURVE SMOOTH",
"244 45 OFFCURVE",
"249 50 OFFCURVE",
"249 58 CURVE SMOOTH",
"243 131 OFFCURVE",
"319 258 OFFCURVE",
"417 258 CURVE SMOOTH",
"454 258 OFFCURVE",
"469 237 OFFCURVE",
"469 206 CURVE SMOOTH",
"469 183 OFFCURVE",
"460 155 OFFCURVE",
"445 126 CURVE SMOOTH",
"421 79.333 OFFCURVE",
"380.5 38.667 OFFCURVE",
"330.5 12 CURVE SMOOTH",
"305.5 -1.333 OFFCURVE",
"279 -8 OFFCURVE",
"251 -8 CURVE SMOOTH",
"192 -8 OFFCURVE",
"169 35 OFFCURVE",
"169 93 CURVE SMOOTH",
"169 116 OFFCURVE",
"173 141 OFFCURVE",
"180.5 168.5 CURVE SMOOTH",
"198.5 230.5 OFFCURVE",
"231.333 288.5 OFFCURVE",
"274 330.5 CURVE SMOOTH",
"295.333 351.5 OFFCURVE",
"318 364.667 OFFCURVE",
"342 370 CURVE",
"366 352.667 OFFCURVE",
"401.667 333 OFFCURVE",
"435 333 CURVE SMOOTH",
"473 333 OFFCURVE",
"492 348 OFFCURVE",
"492 364 CURVE SMOOTH",
"492 378 OFFCURVE",
"478 391 OFFCURVE",
"452 395 CURVE SMOOTH",
"445 396 OFFCURVE",
"437 396 OFFCURVE",
"428 396 CURVE SMOOTH",
"401 396 OFFCURVE",
"369 393 OFFCURVE",
"354 387 CURVE",
"353 396 OFFCURVE",
"352 405 OFFCURVE",
"352 413 CURVE SMOOTH",
"352 421 LINE",
"472 422.333 OFFCURVE",
"554.333 445.333 OFFCURVE",
"601 472 CURVE SMOOTH",
"650 500 OFFCURVE",
"660 534 OFFCURVE",
"660 554 CURVE SMOOTH",
"660 607 OFFCURVE",
"594 631 OFFCURVE",
"528 631 CURVE SMOOTH",
"456.579 631 OFFCURVE",
"370.441 618.815 OFFCURVE",
"312 571 CURVE SMOOTH",
"273 540 OFFCURVE",
"256 505 OFFCURVE",
"256 472 CURVE SMOOTH",
"256 465 OFFCURVE",
"257 458 OFFCURVE",
"258 452 CURVE",
"193.182 460.455 OFFCURVE",
"104 484.783 OFFCURVE",
"104 551 CURVE SMOOTH",
"104 589.667 OFFCURVE",
"152 616 OFFCURVE",
"208 616 CURVE SMOOTH",
"246.667 616 OFFCURVE",
"288.333 607.333 OFFCURVE",
"307 598 CURVE",
"308 598 OFFCURVE",
"314 607 OFFCURVE",
"314 612 CURVE SMOOTH",
"314 613 OFFCURVE",
"313 614 OFFCURVE",
"312 615 CURVE",
"285.903 628.049 OFFCURVE",
"212.078 648 OFFCURVE",
"167 648 CURVE SMOOTH",
"96.749 648 OFFCURVE",
"15 627.972 OFFCURVE",
"15 557 CURVE SMOOTH",
"15 499.534 OFFCURVE",
"71.662 465.983 OFFCURVE",
"122 452 CURVE SMOOTH",
"167.333 438.667 OFFCURVE",
"225.333 431 OFFCURVE",
"264 431 CURVE",
"274.667 408.333 OFFCURVE",
"294 391.667 OFFCURVE",
"322 381 CURVE",
"188.302 369.116 OFFCURVE",
"24 286.494 OFFCURVE",
"24 133 CURVE SMOOTH",
"24 15.667 OFFCURVE",
"97.667 -37 OFFCURVE",
"255 -37 CURVE SMOOTH"
);
},
{
closed = 1;
nodes = (
"373.174 526.275 OFFCURVE",
"485.021 601 OFFCURVE",
"565 601 CURVE SMOOTH",
"594 601 OFFCURVE",
"607 585 OFFCURVE",
"607 566 CURVE SMOOTH",
"607 553 OFFCURVE",
"601 539 OFFCURVE",
"591 528 CURVE SMOOTH",
"584.333 518.667 OFFCURVE",
"577.667 512.667 OFFCURVE",
"571 506 CURVE SMOOTH",
"515 458 OFFCURVE",
"433.667 442 OFFCURVE",
"355 438 CURVE"
);
}
);
width = 563;
}
);
leftKerningGroup = E;
note = E;
},
{
glyphname = F.ss01;
lastChange = "2021-08-21 18:45:25 +0000";
layers = (
{
layerId = "C623C401-2266-4A98-B253-3D45160C29C7";
paths = (
{
closed = 1;
nodes = (
"253.667 -62 OFFCURVE",
"323.833 -20.167 OFFCURVE",
"380.5 40.5 CURVE SMOOTH",
"437.167 101.167 OFFCURVE",
"479.667 179.333 OFFCURVE",
"513 254 CURVE",
"594 254 LINE SMOOTH",
"607 254 OFFCURVE",
"619 267 OFFCURVE",
"619 277 CURVE SMOOTH",
"619 281 OFFCURVE",
"616 285 OFFCURVE",
"608 285 CURVE SMOOTH",
"526 285 LINE",
"564 373 LINE SMOOTH",
"584.512 419.884 OFFCURVE",
"615.467 494.139 OFFCURVE",
"645 530 CURVE",
"655.667 527.333 OFFCURVE",
"674.667 524 OFFCURVE",
"696 524 CURVE SMOOTH",
"717 524 OFFCURVE",
"749 532 OFFCURVE",
"749 559 CURVE SMOOTH",
"749 576 OFFCURVE",
"733 586 OFFCURVE",
"712 586 CURVE SMOOTH",
"669.333 586 OFFCURVE",
"637.333 569.333 OFFCURVE",
"624 560 CURVE",
"584 569.333 OFFCURVE",
"542 580 OFFCURVE",
"498 592 CURVE SMOOTH",
"454 604 OFFCURVE",
"409 612 OFFCURVE",
"363 616 CURVE SMOOTH",
"345 618 OFFCURVE",
"326 618 OFFCURVE",
"308 618 CURVE SMOOTH",
"169 618 OFFCURVE",
"25 572 OFFCURVE",
"13 444 CURVE SMOOTH",
"5.335 367.352 OFFCURVE",
"74.138 313.528 OFFCURVE",
"146 308 CURVE SMOOTH",
"154 307 OFFCURVE",
"162 307 OFFCURVE",
"170 307 CURVE SMOOTH",
"265 307 OFFCURVE",
"363 353 OFFCURVE",
"428 455 CURVE",
"431 461 OFFCURVE",
"432 467 OFFCURVE",
"432 472 CURVE SMOOTH",
"432 480 OFFCURVE",
"429 486 OFFCURVE",
"424 486 CURVE SMOOTH",
"421 486 OFFCURVE",
"417 483 OFFCURVE",
"413 477 CURVE SMOOTH",
"386.8 427.511 OFFCURVE",
"299.115 361.954 OFFCURVE",
"231 367 CURVE SMOOTH",
"184.333 372.333 OFFCURVE",
"158.333 408.667 OFFCURVE",
"161 446 CURVE SMOOTH",
"170 538 OFFCURVE",
"287 572 OFFCURVE",
"380 572 CURVE SMOOTH",
"390 572 OFFCURVE",
"401 572 OFFCURVE",
"411 571 CURVE SMOOTH",
"484.333 564.333 OFFCURVE",
"553 549.667 OFFCURVE",
"593 539 CURVE",
"518.287 477.169 OFFCURVE",
"456.996 379.118 OFFCURVE",
"412 306 CURVE SMOOTH",
"399 285 LINE",
"286 285 LINE SMOOTH",
"273 285 OFFCURVE",
"263 271 OFFCURVE",
"263 262 CURVE SMOOTH",
"263 258 OFFCURVE",
"266 254 OFFCURVE",
"272 254 CURVE SMOOTH",
"381 254 LINE",
"320.426 148.655 OFFCURVE",
"235.779 -11 OFFCURVE",
"130 -11 CURVE SMOOTH",
"103.527 -11 OFFCURVE",
"75.197 3.379 OFFCURVE",
"80 37 CURVE SMOOTH",
"88.095 107.153 OFFCURVE",
"173.156 163.769 OFFCURVE",
"249 169 CURVE SMOOTH",
"267 170 OFFCURVE",
"277 177 OFFCURVE",
"277 182 CURVE SMOOTH",
"277 187 OFFCURVE",
"270 191 OFFCURVE",
"254 191 CURVE SMOOTH",
"174.271 191 OFFCURVE",
"48.55 118.163 OFFCURVE",
"46 34 CURVE SMOOTH",
"40.961 -31.508 OFFCURVE",
"101.544 -62 OFFCURVE",
"163 -62 CURVE SMOOTH"
);
}
);
width = 568;
}
);
note = F;
},
{
glyphname = G.ss01;
lastChange = "2021-08-21 18:45:25 +0000";
layers = (
{
layerId = "C623C401-2266-4A98-B253-3D45160C29C7";
paths = (
{
closed = 1;
nodes = (
"317.333 -272 OFFCURVE",
"420.667 -210 OFFCURVE",
"498 -118 CURVE",
"564 -132 OFFCURVE",
"627 -143 OFFCURVE",
"695 -143 CURVE SMOOTH",
"773 -143 OFFCURVE",
"814 -111 OFFCURVE",
"814 -68 CURVE SMOOTH",
"814 -45 OFFCURVE",
"805 -24 OFFCURVE",
"782 -8 CURVE SMOOTH",
"777 -5 OFFCURVE",
"773 -3 OFFCURVE",
"769 -3 CURVE SMOOTH",
"765 -3 OFFCURVE",
"762 -5 OFFCURVE",
"762 -9 CURVE SMOOTH",
"762 -11 OFFCURVE",
"763 -14 OFFCURVE",
"766 -17 CURVE SMOOTH",
"774 -25 OFFCURVE",
"776.667 -32 OFFCURVE",
"778 -40 CURVE",
"779.971 -87.305 OFFCURVE",
"729.19 -106.674 OFFCURVE",
"675.5 -109.5 CURVE SMOOTH",
"624.132 -112.204 OFFCURVE",
"565.978 -106.074 OFFCURVE",
"533 -101 CURVE SMOOTH",
"515 -98 LINE",
"601.267 14.408 OFFCURVE",
"651.015 178.363 OFFCURVE",
"664 316 CURVE SMOOTH",
"665 331 OFFCURVE",
"654 337 OFFCURVE",
"641 337 CURVE SMOOTH",
"628 337 OFFCURVE",
"614 330 OFFCURVE",
"612 318 CURVE SMOOTH",
"611 313 LINE",
"609.667 310.333 OFFCURVE",
"609 308.333 OFFCURVE",
"609 307 CURVE",
"577.564 196.972 OFFCURVE",
"454.554 48 OFFCURVE",
"347 48 CURVE SMOOTH",
"297 48 OFFCURVE",
"274 84 OFFCURVE",
"274 129 CURVE SMOOTH",
"274 134 OFFCURVE",
"274 140 OFFCURVE",
"275 145 CURVE",
"277.363 199.34 OFFCURVE",
"311.139 293.98 OFFCURVE",
"337 341 CURVE",
"401 341 OFFCURVE",
"459.333 348.667 OFFCURVE",
"510 362 CURVE SMOOTH",
"586.506 381.127 OFFCURVE",
"675.222 422.844 OFFCURVE",
"729 482 CURVE SMOOTH",
"758.333 515.333 OFFCURVE",
"776 547.333 OFFCURVE",
"776 578 CURVE SMOOTH",
"776 624.667 OFFCURVE",
"745 652 OFFCURVE",
"669 652 CURVE SMOOTH",
"597 652 OFFCURVE",
"512 625.333 OFFCURVE",
"432 580 CURVE",
"360 614.667 OFFCURVE",
"275.333 642 OFFCURVE",
"182 642 CURVE SMOOTH",
"92.567 642 OFFCURVE",
"-2 603.494 OFFCURVE",
"-2 509 CURVE SMOOTH",
"-2 461 OFFCURVE",
"16.333 423 OFFCURVE",
"53 395 CURVE SMOOTH",
"87.667 368.333 OFFCURVE",
"138 350.333 OFFCURVE",
"186 341 CURVE",
"156.667 286.333 OFFCURVE",
"140 230 OFFCURVE",
"140 170 CURVE SMOOTH",
"140 74.077 OFFCURVE",
"201.79 12 OFFCURVE",
"330 12 CURVE SMOOTH",
"412.945 12 OFFCURVE",
"509.428 85.056 OFFCURVE",
"568 164 CURVE",
"533.333 80 OFFCURVE",
"481 -7 OFFCURVE",
"413 -75 CURVE",
"362.333 -63 OFFCURVE",
"310.667 -50 OFFCURVE",
"264 -38 CURVE SMOOTH",
"200 -23.333 OFFCURVE",
"136 -11 OFFCURVE",
"68 -11 CURVE SMOOTH",
"-10 -11 OFFCURVE",
"-61 -52 OFFCURVE",
"-61 -109 CURVE SMOOTH",
"-61 -202 OFFCURVE",
"35 -272 OFFCURVE",
"176 -272 CURVE SMOOTH"
);
},
{
closed = 1;
nodes = (
"89.313 -189 OFFCURVE",
"9.489 -149.742 OFFCURVE",
"18 -93 CURVE SMOOTH",
"25 -55 OFFCURVE",
"65 -43 OFFCURVE",
"113 -43 CURVE SMOOTH",
"160 -43 OFFCURVE",
"215 -54 OFFCURVE",
"255 -61 CURVE",
"393 -94 LINE",
"330.333 -151.333 OFFCURVE",
"258 -189 OFFCURVE",
"174 -189 CURVE SMOOTH"
);
},
{
closed = 1;
nodes = (
"144.333 391.667 OFFCURVE",
"99 437.333 OFFCURVE",
"99 504 CURVE SMOOTH",
"99 557.333 OFFCURVE",
"141.667 591 OFFCURVE",
"211 591 CURVE SMOOTH",
"265.667 591 OFFCURVE",
"330 577 OFFCURVE",
"394 557 CURVE",
"318 507.667 OFFCURVE",
"249.667 443.667 OFFCURVE",
"203 369 CURVE"
);
},
{
closed = 1;
nodes = (
"386.667 421.667 OFFCURVE",
"436.333 477.333 OFFCURVE",
"487 520 CURVE",
"524.333 502.667 OFFCURVE",
"557.667 483 OFFCURVE",
"583 463 CURVE SMOOTH",
"589 458 OFFCURVE",
"594 456 OFFCURVE",
"598 456 CURVE SMOOTH",
"602 456 OFFCURVE",
"605 459 OFFCURVE",
"605 463 CURVE SMOOTH",
"605 468 OFFCURVE",
"602 475 OFFCURVE",
"593 483 CURVE",
"581.667 490.333 OFFCURVE",
"569.167 498.833 OFFCURVE",
"555.5 508.5 CURVE SMOOTH",
"541.833 518.167 OFFCURVE",
"526.333 528 OFFCURVE",
"509 538 CURVE",
"562.333 578 OFFCURVE",
"615.333 602 OFFCURVE",
"658 602 CURVE SMOOTH",
"683.966 602 OFFCURVE",
"714 589.733 OFFCURVE",
"714 550 CURVE SMOOTH",
"714 531.333 OFFCURVE",
"703.333 511.333 OFFCURVE",
"686 490 CURVE SMOOTH",
"645.429 444.02 OFFCURVE",
"570.856 397.301 OFFCURVE",
"502 382 CURVE SMOOTH",
"455.333 370 OFFCURVE",
"401.333 360.333 OFFCURVE",
"348 359 CURVE"
);
}
);
width = 650;
}
);
note = G;
},
